<svg xmlns="http://www.w3.org/2000/svg" xmlns:xlink="http://www.w3.org/1999/xlink" viewBox="0 0 495.63 310.57"><defs><style>.cls-1{isolation:isolate;}.cls-2{fill:#a8e5ba;opacity:0.4;}.cls-13,.cls-15,.cls-2{mix-blend-mode:multiply;}.cls-3{fill:url(#linear-gradient);}.cls-4{fill:#dcdce2;}.cls-5{fill:#bebec6;}.cls-13,.cls-6{fill:#e6e6ed;}.cls-7{fill:#34a862;}.cls-8{fill:#1e5b23;}.cls-9{fill:url(#linear-gradient-2);}.cls-10{fill:#284f38;}.cls-11,.cls-14{fill:#53c48d;}.cls-11{opacity:0.52;}.cls-12{fill:#fff;}.cls-15{fill:#b5c6bc;}.cls-16{fill:#2b7c47;}.cls-17{fill:#e9e8e6;}.cls-18{fill:#7ced80;}.cls-19{fill:#57b294;opacity:0.41;}.cls-20{fill:url(#linear-gradient-3);}.cls-21{fill:#2aba5c;}.cls-22{fill:#e5e5e5;}.cls-23{fill:#3b965f;}.cls-24{fill:#13aa48;}.cls-25{fill:url(#linear-gradient-4);}.cls-26{fill:#9dedbe;}.cls-27,.cls-30{fill:#54ef9a;}.cls-28{fill:#c3f4d8;}.cls-29{fill:#21936f;}.cls-30{opacity:0.39;}.cls-31{fill:url(#linear-gradient-5);}.cls-32{fill:#cbcbd8;}.cls-33{fill:#f3f3f3;opacity:0.61;}</style><linearGradient id="linear-gradient" x1="346.05" y1="-9.47" x2="132.71" y2="100.31" gradientUnits="userSpaceOnUse"><stop offset="0" stop-color="#fff"/><stop offset="1" stop-color="#bbdede"/></linearGradient><linearGradient id="linear-gradient-2" x1="113.07" y1="59.05" x2="53.51" y2="115.05" gradientUnits="userSpaceOnUse"><stop offset="0" stop-color="#74d3aa"/><stop offset="1" stop-color="#058f8f"/></linearGradient><linearGradient id="linear-gradient-3" x1="10.21" y1="258.77" x2="182.73" y2="258.77" gradientUnits="userSpaceOnUse"><stop offset="0" stop-color="#a3ffb1"/><stop offset="0.67" stop-color="#4d8c88"/></linearGradient><linearGradient id="linear-gradient-4" x1="352.04" y1="92.3" x2="398.4" y2="92.3" xlink:href="#linear-gradient-3"/><linearGradient id="linear-gradient-5" x1="461.21" y1="196.69" x2="213.21" y2="243.36" xlink:href="#linear-gradient-2"/></defs><title>Asset 3</title><g class="cls-1"><g id="Layer_2" data-name="Layer 2"><g id="image"><path class="cls-2" d="M318.87,139l-40.71,23.5h0a37.62,37.62,0,0,1-3.34,1.93,1.84,1.84,0,0,1-.19.2l1.84,1.08c1.57.92,4.81.5,7.19-.93l54.42-32.65c2.39-1.43,3.05-3.35,1.47-4.27l-17.61-10.3.14,14.61C322.1,134.86,320.66,137.93,318.87,139Z"/><path class="cls-3" d="M164.22,25.83,272.74,88.49a4.51,4.51,0,0,1,1.39,1.34l.27-.18,43.77-25.27a1.81,1.81,0,0,1,2.44.27,1.84,1.84,0,0,0-1-1.41L211.11.61a6.9,6.9,0,0,0-6.18.26L163.27,24.92a2.6,2.6,0,0,0-1.49,1.89A1.52,1.52,0,0,1,164.22,25.83Z"/><path class="cls-4" d="M278.16,90.86v71.61L318.87,139c1.79-1,3.23-4.11,3.21-6.83l-.14-14.61-.47-50.06v0c-.12.1-20.21,17.19-43.32,23.31C278.15,90.79,278.16,90.82,278.16,90.86Z"/><path class="cls-5" d="M318.17,64.38,274.4,89.65l-.27.18a7.19,7.19,0,0,1,.64,1.16,3.56,3.56,0,0,1,.94-.13c1.28,0,2.34-.81,2.44-.11,23.11-6.12,43.2-23.21,43.32-23.31h0a4.2,4.2,0,0,0-.86-2.79A1.81,1.81,0,0,0,318.17,64.38Z"/><path class="cls-5" d="M278.16,162.47V90.86s0-.07,0-.11c-.1-.7-1.16.11-2.44.11a3.56,3.56,0,0,0-.94.13,6.16,6.16,0,0,1,.55,2.41v69.28a2.71,2.71,0,0,1-.5,1.72,37.62,37.62,0,0,0,3.34-1.93Z"/><path class="cls-6" d="M164.22,102l108.52,62.66a1.56,1.56,0,0,0,1.89,0,1.84,1.84,0,0,0,.19-.2,2.71,2.71,0,0,0,.5-1.72V93.4a6.16,6.16,0,0,0-.55-2.41,7.19,7.19,0,0,0-.64-1.16,4.51,4.51,0,0,0-1.39-1.34L164.22,25.83a1.52,1.52,0,0,0-2.44,1,3.52,3.52,0,0,0-.14,1V97.05A6.17,6.17,0,0,0,164.22,102Zm6.84-12.57a1,1,0,0,1,1.05-1.81l40.81,23.57a1,1,0,1,1-1,1.81Zm6.52-36.46L250,94.72a4.7,4.7,0,0,1,2.34,4.07v3.74a4.69,4.69,0,0,1-7,4.06L172.89,64.8a4.7,4.7,0,0,1-2.35-4.06V57A4.69,4.69,0,0,1,177.58,52.93Zm-7-10.93a1,1,0,0,1,1.57-.9L188,50.28a1,1,0,0,1,.52.9,1,1,0,0,1-1.56.9l-15.9-9.18A1,1,0,0,1,170.54,42Zm3.21,34.07,48,27.69a2.14,2.14,0,1,1-2.14,3.7l-48-27.69a2.14,2.14,0,1,1,2.14-3.7Z"/><path class="cls-7" d="M170.54,60.74a4.7,4.7,0,0,0,2.35,4.06l72.39,41.79a4.69,4.69,0,0,0,7-4.06V98.79A4.7,4.7,0,0,0,250,94.72L177.58,52.93a4.69,4.69,0,0,0-7,4.06Z"/><path class="cls-8" d="M171.61,79.77l48,27.69a2.14,2.14,0,1,0,2.14-3.7l-48-27.69a2.14,2.14,0,1,0-2.14,3.7Z"/><path class="cls-8" d="M213.45,112.05a1,1,0,0,0-.53-.9L172.11,87.58a1,1,0,0,0-1.05,1.81L211.88,113A1,1,0,0,0,213.45,112.05Z"/><path class="cls-8" d="M187,52.08a1,1,0,0,0,1.56-.9,1,1,0,0,0-.52-.9L172.11,41.1a1,1,0,1,0-1.05,1.8Z"/><path class="cls-2" d="M118.48,164.79c0-5.3-3.66-10.17-9.79-14,0,.55.06,1.11.06,1.67,0,18.43-19.49,33.51-44.18,34.78q3.9.35,8,.35C97.93,187.55,118.48,177.36,118.48,164.79Z"/><path class="cls-9" d="M108.75,152.42c0-.56,0-1.12-.06-1.67a25.68,25.68,0,0,0-.3-2.64s.36-83.41.36-84.86c0-11.9-8.13-22.4-20.52-28.69-2,6.44-12.87,11.37-26,11.37A49.46,49.46,0,0,1,57,45.66h0c-11.28-1.17-19.94-6-21-12-13.42,6.17-22.35,17.1-22.35,29.58v86.16h.18a25,25,0,0,0-.18,3c0,19.26,21.29,34.88,47.56,34.88,1.14,0,2.26,0,3.38-.1C89.26,185.93,108.75,170.85,108.75,152.42ZM61.19,180.19c-20.39,0-36.93-7.79-36.93-17.4,0-3.9,2.72-7.49,7.31-10.4-5-1.4-9.06-6.9-9.06-12.4V73.39c0-5.61,4.21-9.17,9.37-7.91l7,1.71c5.15,1.26,9.36,6.89,9.36,12.5v66.6a1.48,1.48,0,0,1,0,.21,74.25,74.25,0,0,1,13-1.11c20.39,0,36.92,7.79,36.92,17.4S81.58,180.19,61.19,180.19Z"/><path class="cls-10" d="M61.19,145.39a74.25,74.25,0,0,0-13,1.11c-.1,5.49-4.27,8.94-9.35,7.7l-7-1.71-.31-.1c-4.59,2.91-7.31,6.5-7.31,10.4,0,9.61,16.54,17.4,36.93,17.4s36.92-7.79,36.92-17.4S81.58,145.39,61.19,145.39Z"/><path class="cls-11" d="M38.87,154.2c5.08,1.24,9.25-2.21,9.35-7.7a1.48,1.48,0,0,0,0-.21V79.69c0-5.61-4.21-11.24-9.36-12.5l-7-1.71c-5.16-1.26-9.37,2.3-9.37,7.91V140c0,5.5,4,11,9.06,12.4l.31.1Z"/><path class="cls-12" d="M86.06,26.74l0,0h0Z"/><path class="cls-12" d="M86.82,27.65l.25.35Z"/><path class="cls-12" d="M86.31,27l.29.35Z"/><path class="cls-12" d="M87.65,29l.18.38Z"/><path class="cls-12" d="M88.22,30.32c0,.14.08.28.11.42C88.3,30.6,88.26,30.46,88.22,30.32Z"/><path class="cls-12" d="M88,29.63l.15.4Z"/><path class="cls-12" d="M87.26,28.29l.22.37Z"/><path class="cls-12" d="M88.4,31c0,.16,0,.32.08.48C88.45,31.34,88.43,31.18,88.4,31Z"/><path class="cls-12" d="M88.51,31.73a5.79,5.79,0,0,1,0,.72A5.79,5.79,0,0,0,88.51,31.73Z"/><path class="cls-12" d="M62.21,45.93,57,45.66A49.46,49.46,0,0,0,62.21,45.93Z"/><path class="cls-12" d="M57,45.66a45.88,45.88,0,0,0,10.29-3.33,46.05,46.05,0,0,1-5.05.28c-13.16,0-23.82-5.43-23.82-12.13V26.7a8.52,8.52,0,0,0-2.52,5.75A7.1,7.1,0,0,0,36,33.67C37,39.64,45.69,44.49,57,45.66Z"/><path class="cls-13" d="M86.06,26.74l.25.27Z"/><path class="cls-13" d="M87.83,29.34c0,.1.1.19.14.29C87.93,29.53,87.88,29.44,87.83,29.34Z"/><path class="cls-13" d="M88.12,30c0,.1.07.19.1.29C88.19,30.22,88.15,30.13,88.12,30Z"/><path class="cls-13" d="M88.33,30.74c0,.1,0,.19.07.28C88.38,30.93,88.35,30.84,88.33,30.74Z"/><path class="cls-13" d="M86.6,27.36l.22.29Z"/><path class="cls-13" d="M87.07,28l.19.29Z"/><path class="cls-13" d="M88.48,31.5l0,.23Z"/><path class="cls-13" d="M87.48,28.66c.06.1.12.2.17.3C87.6,28.86,87.54,28.76,87.48,28.66Z"/><path class="cls-14" d="M57,45.66h0Z"/><path class="cls-13" d="M57,45.66h0Z"/><path class="cls-12" d="M86,30.48c0,5.81-8,10.67-18.77,11.85A45.88,45.88,0,0,1,57,45.66h0l5.23.27c13.15,0,24-4.93,26-11.37a7.2,7.2,0,0,0,.32-2.11,5.79,5.79,0,0,0,0-.72l0-.23c0-.16,0-.32-.08-.48s-.05-.18-.07-.28-.07-.28-.11-.42-.07-.19-.1-.29l-.15-.4c0-.1-.09-.19-.14-.29L87.65,29c-.05-.1-.11-.2-.17-.3l-.22-.37L87.07,28l-.25-.35-.22-.29L86.31,27l-.25-.27,0,0Z"/><path class="cls-13" d="M86,30.48c0,5.81-8,10.67-18.77,11.85A45.88,45.88,0,0,1,57,45.66h0l5.23.27c13.15,0,24-4.93,26-11.37a7.2,7.2,0,0,0,.32-2.11,5.79,5.79,0,0,0,0-.72l0-.23c0-.16,0-.32-.08-.48s-.05-.18-.07-.28-.07-.28-.11-.42-.07-.19-.1-.29l-.15-.4c0-.1-.09-.19-.14-.29L87.65,29c-.05-.1-.11-.2-.17-.3l-.22-.37L87.07,28l-.25-.35-.22-.29L86.31,27l-.25-.27,0,0Z"/><path class="cls-6" d="M72.58,36V30.48H68.85V39A34.21,34.21,0,0,0,72.58,36Z"/><path class="cls-6" d="M66.81,39V30.48H63.44a1,1,0,0,1,.17.56v8.73a1,1,0,1,1-2,0V31a1,1,0,0,1,.17-.56H58V39a1,1,0,0,1-2,0V30.48H52.22v7.09a1,1,0,0,1-2,0V30.48H47.12v5.17a1,1,0,0,1-2,0V30.48H42.22v2a1,1,0,1,1-2,0v-2H38.39c0,6.7,10.66,12.13,23.82,12.13A33.43,33.43,0,0,0,67.41,40,1,1,0,0,1,66.81,39Z"/><path class="cls-6" d="M77.64,30.48h-3V34A42,42,0,0,0,77.64,30.48Z"/><path class="cls-6" d="M40.18,30.48V23.77a1,1,0,1,1,2,0v6.71h2.86V26.92a1,1,0,1,1,2,0v3.56h3.06V28.85a1,1,0,1,1,2,0v1.63H56V30.3a1,1,0,0,1,2,0v.18h3.75a1,1,0,0,1,1.7,0h3.37V30.3a1,1,0,0,1,2,0v.18h3.73V28.85a1,1,0,1,1,2,0v1.63h3l0-.05V26.92a1,1,0,1,1,2,0v.59a61.54,61.54,0,0,0,4.11-7.4c-3.77,4.15-12,7-21.62,7-13.16,0-23.82-5.43-23.82-12.13V30.48Z"/><path class="cls-6" d="M79.72,27.51v8.14a1,1,0,0,1-2,0V30.43l0,.05a42,42,0,0,1-3,3.56v3.53a1,1,0,0,1-2,0V36a34.21,34.21,0,0,1-3.73,3v0a1,1,0,0,1-1,1,1.17,1.17,0,0,1-.42-.09,33.43,33.43,0,0,1-5.2,2.65,46.05,46.05,0,0,0,5.05-.28C78,41.15,86,36.29,86,30.48V26.7h0V15a7.58,7.58,0,0,1-2.2,5.09A61.54,61.54,0,0,1,79.72,27.51Zm4.9,5a1,1,0,1,1-2,0V23.77a1,1,0,1,1,2,0Z"/><path class="cls-13" d="M79.72,27.51v8.14a1,1,0,0,1-2,0V30.43l0,.05a42,42,0,0,1-3,3.56v3.53a1,1,0,0,1-2,0V36a34.21,34.21,0,0,1-3.73,3v0a1,1,0,0,1-1,1,1.17,1.17,0,0,1-.42-.09,33.43,33.43,0,0,1-5.2,2.65,46.05,46.05,0,0,0,5.05-.28C78,41.15,86,36.29,86,30.48V26.7h0V15a7.58,7.58,0,0,1-2.2,5.09A61.54,61.54,0,0,1,79.72,27.51Zm4.9,5a1,1,0,1,1-2,0V23.77a1,1,0,1,1,2,0Z"/><path class="cls-12" d="M62.21,27.15c9.59,0,17.85-2.89,21.62-7A7.58,7.58,0,0,0,86,15C86,8.32,75.37,2.88,62.21,2.88S38.39,8.32,38.39,15,49.05,27.15,62.21,27.15ZM48.06,14.06c0-4.09,6.51-7.4,14.53-7.4S77.12,10,77.12,14.06s-6.51,7.4-14.53,7.4S48.06,18.15,48.06,14.06Z"/><path class="cls-6" d="M62.59,21.46c8,0,14.53-3.31,14.53-7.4s-6.51-7.4-14.53-7.4S48.06,10,48.06,14.06,54.57,21.46,62.59,21.46Z"/><path class="cls-15" d="M40.18,32.49a1,1,0,1,0,2,0V23.77a1,1,0,1,0-2,0v8.72Z"/><path class="cls-15" d="M46.1,36.67a1,1,0,0,0,1-1V26.92a1,1,0,1,0-2,0v8.73A1,1,0,0,0,46.1,36.67Z"/><path class="cls-15" d="M51.2,38.59a1,1,0,0,0,1-1V28.85a1,1,0,1,0-2,0v8.72A1,1,0,0,0,51.2,38.59Z"/><path class="cls-15" d="M57,40.05a1,1,0,0,0,1-1V30.3a1,1,0,0,0-2,0V39A1,1,0,0,0,57,40.05Z"/><path class="cls-15" d="M83.6,22.75a1,1,0,0,0-1,1v8.72a1,1,0,1,0,2,0V23.77A1,1,0,0,0,83.6,22.75Z"/><path class="cls-15" d="M77.68,35.65a1,1,0,0,0,2,0V26.92a1,1,0,1,0-2,0v8.73Z"/><path class="cls-15" d="M72.58,37.57a1,1,0,0,0,2,0V28.85a1,1,0,1,0-2,0v8.72Z"/><path class="cls-15" d="M67.41,40a1.17,1.17,0,0,0,.42.09,1,1,0,0,0,1-1V30.3a1,1,0,0,0-2,0V39A1,1,0,0,0,67.41,40Z"/><path class="cls-15" d="M61.57,39.77a1,1,0,1,0,2,0V31a1,1,0,0,0-.17-.56,1,1,0,0,0-1.7,0,1,1,0,0,0-.17.56Z"/><path class="cls-2" d="M192,198a15,15,0,0,1-.09,1.64c.6,6-2.11,12.19-8.15,16.79-6.85,5.21-16.34,7.18-25.19,5.89a39.6,39.6,0,0,0,12.79,2.07c16.84,0,30.49-10,30.49-22.36,0-6.5-3.8-12.36-9.85-16.45V198Z"/><path class="cls-16" d="M183.72,216.4c6-4.6,8.75-10.78,8.15-16.79-.49,4.92-3.2,9.75-8.15,13.52-11,8.37-28.81,8.37-39.8,0-4.95-3.77-7.66-8.6-8.15-13.52-.6,6,2.11,12.19,8.15,16.79a31.59,31.59,0,0,0,14.61,5.89C167.38,223.58,176.87,221.61,183.72,216.4Z"/><path class="cls-7" d="M139.57,165a28.15,28.15,0,0,1-3.89-2.91v5.57c0,3.48,2.75,7,8.24,9.63,11,5.32,28.81,5.33,39.8,0,5.49-2.66,8.24-6.15,8.24-9.63h0v-5.57a28.15,28.15,0,0,1-3.89,2.91C174.68,173.4,153,173.4,139.57,165Z"/><path class="cls-7" d="M192,191.48h0c0,3.49-2.75,7-8.24,9.64a36.44,36.44,0,0,1-7,2.47,3.23,3.23,0,0,1-1.25.95l-9.48,4a3.28,3.28,0,0,1-4.29-1.72l-.55-1.29A4.68,4.68,0,0,1,161,205a52.09,52.09,0,0,1-10.57-1.57l2.29,4.95a3.28,3.28,0,0,1-1.59,4.34l-1.27.59a3.27,3.27,0,0,1-4.34-1.6l-4.33-9.34a3.27,3.27,0,0,1,0-2.8c-3.7-2.41-5.55-5.27-5.55-8.13V198a15,15,0,0,0,.09,1.64c.49,4.92,3.2,9.75,8.15,13.52,11,8.37,28.81,8.37,39.8,0,4.95-3.77,7.66-8.6,8.15-13.52A15,15,0,0,0,192,198h0V185.24h0Zm-21.39,23-.35,1.35a3.27,3.27,0,0,1-4,2.33l-10-2.61a3.29,3.29,0,0,1-2.33-4l.36-1.36a3.27,3.27,0,0,1,4-2.33l10,2.62A3.27,3.27,0,0,1,170.57,214.49Zm15.11-4.05-9.46,4.09a3.28,3.28,0,0,1-4.3-1.7l-.55-1.28a3.27,3.27,0,0,1,1.7-4.3l9.45-4.1a3.29,3.29,0,0,1,4.3,1.7l.56,1.29A3.29,3.29,0,0,1,185.68,210.44Z"/><path class="cls-6" d="M188.07,153.82c-13.39,8.37-35.11,8.36-48.5,0a27.37,27.37,0,0,1-3.89-2.91h-6.12c.3,3.95,2.35,7.85,6.12,11.22a28.15,28.15,0,0,0,3.89,2.91c13.39,8.37,35.11,8.37,48.5,0a28.15,28.15,0,0,0,3.89-2.91c3.77-3.37,5.81-7.27,6.12-11.22H192A28.19,28.19,0,0,1,188.07,153.82Z"/><path class="cls-17" d="M198.12,137.19H198a14.5,14.5,0,0,1,.09,1.47Z"/><path class="cls-17" d="M129.52,137.19v1.47a14.5,14.5,0,0,1,.09-1.47Z"/><path class="cls-17" d="M192,150.9h6.16V138.66C198.12,143,196.06,147.24,192,150.9Z"/><path class="cls-17" d="M135.68,150.9c-4.1-3.66-6.16-8-6.16-12.24V150.9h6.16Z"/><path class="cls-12" d="M135.68,150.9a27.37,27.37,0,0,0,3.89,2.91c13.39,8.37,35.11,8.38,48.5,0A28.19,28.19,0,0,0,192,150.9c4.1-3.66,6.16-8,6.16-12.24a14.5,14.5,0,0,0-.09-1.47c-.55-5-3.86-9.87-10-13.68-13.39-8.37-35.11-8.37-48.5,0-6.1,3.82-9.41,8.71-10,13.69a14.5,14.5,0,0,0-.09,1.47C129.52,143,131.58,147.24,135.68,150.9Zm10.4-24.79c9.8-6.12,25.68-6.12,35.48,0s9.79,16,0,22.17-25.68,6.12-35.48,0S136.29,132.23,146.08,126.11Z"/><ellipse class="cls-6" cx="163.82" cy="137.19" rx="25.08" ry="15.68"/><rect class="cls-18" x="170.95" y="204.87" width="16.84" height="7.94" rx="3.27" transform="translate(-68.25 88.54) rotate(-23.43)"/><rect class="cls-18" x="158.28" y="204.61" width="7.94" height="16.84" rx="3.27" transform="matrix(0.25, -0.97, 0.97, 0.25, -85.01, 315.83)"/><path class="cls-18" d="M161.73,206.86a3.28,3.28,0,0,0,4.29,1.72l9.48-4a3.23,3.23,0,0,0,1.25-.95A55.18,55.18,0,0,1,161,205a4.68,4.68,0,0,0,.17.53Z"/><path class="cls-18" d="M141.2,202.41l4.33,9.34a3.27,3.27,0,0,0,4.34,1.6l1.27-.59a3.28,3.28,0,0,0,1.59-4.34l-2.29-4.95a36.29,36.29,0,0,1-6.52-2.35,25.79,25.79,0,0,1-2.69-1.51A3.27,3.27,0,0,0,141.2,202.41Z"/><path class="cls-12" d="M183.72,177.32c-11,5.33-28.81,5.32-39.8,0-5.49-2.66-8.24-6.15-8.24-9.63h0v23.79h0c0,2.86,1.85,5.72,5.55,8.13a25.79,25.79,0,0,0,2.69,1.51s46.65-1,48-30.63v-2.8h0C192,171.17,189.21,174.66,183.72,177.32Z"/><path class="cls-6" d="M192,167.69v2.8C192,169.58,192,168.65,192,167.69Z"/><polygon class="cls-6" points="191.96 167.69 191.96 167.69 191.96 167.69 191.96 167.69"/><path class="cls-6" d="M143.92,201.12a36.29,36.29,0,0,0,6.52,2.35A52.09,52.09,0,0,0,161,205a55.18,55.18,0,0,0,15.74-1.45,36.44,36.44,0,0,0,7-2.47c5.49-2.66,8.24-6.15,8.24-9.64h0v-21C190.57,200.1,143.92,201.12,143.92,201.12Z"/><path class="cls-19" d="M495.21,162.42a7.26,7.26,0,0,0-3.63-4.17l-48.7-28.11c-4.13-2.39-10.5-2.81-16.2-1.41l.56.28,48.69,28.11a7.34,7.34,0,0,1,3.64,4.17h0c1.49,3.23-1.24,7-5.63,9.56h0a20.92,20.92,0,0,1-5.88,2.19c6.55,2.67,15.66,2.31,21.52-1.07h0c4.4-2.54,7.13-6.32,5.63-9.56Z"/><path class="cls-4" d="M415.86,142.64l45.51,26.28c6.56,3.78,17.49,4.2,24.05.41,3.45-2,6.07-5.23,5.89-7.84a7.28,7.28,0,0,0-3.64-4.17L439,129.21c-.17-.1-.37-.19-.55-.28-5.76-3-15.26-2.47-21.61,1.2h0c-4.18,2.41-6,5.61-5.28,8.46l0-.29A10.21,10.21,0,0,0,415.86,142.64ZM430.25,137a4.58,4.58,0,0,1,4.11,0,1.25,1.25,0,0,1,0,2.37,4.58,4.58,0,0,1-4.11,0A1.25,1.25,0,0,1,430.25,137Zm-.19,8.76a1.24,1.24,0,0,1,0-2.36,4.49,4.49,0,0,1,4.1,0,1.25,1.25,0,0,1,0,2.36A4.49,4.49,0,0,1,430.06,145.78Zm30,17.34a1.25,1.25,0,0,1,0-2.37,4.55,4.55,0,0,1,4.1,0,1.25,1.25,0,0,1,0,2.37A4.55,4.55,0,0,1,460.08,163.12ZM471,169.41a1.25,1.25,0,0,1,0-2.37,4.55,4.55,0,0,1,4.1,0,1.25,1.25,0,0,1,0,2.37A4.49,4.49,0,0,1,471,169.41Zm11.06-8.74a4.55,4.55,0,0,1,4.1,0,1.25,1.25,0,0,1,0,2.37,4.55,4.55,0,0,1-4.1,0A1.25,1.25,0,0,1,482.05,160.67ZM475.28,163a4.55,4.55,0,0,1-4.1,0,1.25,1.25,0,0,1,0-2.37,4.49,4.49,0,0,1,4.1,0A1.25,1.25,0,0,1,475.28,163Zm-4.14-8.64a4.49,4.49,0,0,1,4.1,0,1.24,1.24,0,0,1,0,2.36,4.49,4.49,0,0,1-4.1,0A1.25,1.25,0,0,1,471.14,154.38Zm-30-17.34a4.49,4.49,0,0,1,4.1,0,1.25,1.25,0,0,1,0,2.36,4.49,4.49,0,0,1-4.1,0A1.24,1.24,0,0,1,441.11,137Zm10.06,2.42a1.22,1.22,0,0,1,1.2,0l16.35,9.44a1.2,1.2,0,0,1,0,2.08l-15.48,8.94a1.24,1.24,0,0,1-1.21,0l-16.34-9.44a1.2,1.2,0,0,1,0-2.08Zm-21-8.72a4.58,4.58,0,0,1,4.11,0,1.25,1.25,0,0,1,0,2.37,4.58,4.58,0,0,1-4.11,0A1.25,1.25,0,0,1,430.2,130.74ZM419.37,137a4.55,4.55,0,0,1,4.1,0,1.25,1.25,0,0,1,0,2.37,4.55,4.55,0,0,1-4.1,0A1.25,1.25,0,0,1,419.37,137Z"/><path class="cls-7" d="M485.68,171c4.4-2.53,7.13-6.32,5.63-9.55h0c.18,2.61-2.44,5.85-5.89,7.84-6.56,3.79-17.49,3.37-24.05-.41l-45.51-26.28a10.21,10.21,0,0,1-4.35-4.34l0,.29c.27,2.25,1.89,4.46,4.88,6.18L461.92,171c4.84,2.79,11.88,3.52,17.88,2.2a20.63,20.63,0,0,0,5.88-2.2Z"/><path class="cls-7" d="M435.69,148.4a1.2,1.2,0,0,0,0,2.08L452,159.92a1.24,1.24,0,0,0,1.21,0L468.72,151a1.2,1.2,0,0,0,0-2.08l-16.35-9.44a1.22,1.22,0,0,0-1.2,0Zm18.37,8.87a4.49,4.49,0,0,1-4.1,0,1.25,1.25,0,0,1,0-2.36,4.49,4.49,0,0,1,4.1,0A1.25,1.25,0,0,1,454.06,157.27Zm7-8.74a4.55,4.55,0,0,1,4.1,0,1.25,1.25,0,0,1,0,2.37,4.55,4.55,0,0,1-4.1,0A1.25,1.25,0,0,1,461,148.53Zm-6.76,2.35a4.55,4.55,0,0,1-4.1,0,1.25,1.25,0,0,1,0-2.37,4.55,4.55,0,0,1,4.1,0A1.25,1.25,0,0,1,454.26,150.88Zm-4.14-8.64a4.49,4.49,0,0,1,4.1,0,1.25,1.25,0,0,1,0,2.37,4.55,4.55,0,0,1-4.1,0A1.25,1.25,0,0,1,450.12,142.24Zm-11.06,6.37a4.55,4.55,0,0,1,4.1,0,1.25,1.25,0,0,1,0,2.37,4.55,4.55,0,0,1-4.1,0A1.25,1.25,0,0,1,439.06,148.61Z"/><path class="cls-12" d="M430.2,133.11a4.58,4.58,0,0,0,4.11,0,1.25,1.25,0,0,0,0-2.37,4.58,4.58,0,0,0-4.11,0A1.25,1.25,0,0,0,430.2,133.11Z"/><path class="cls-12" d="M441.11,139.4a4.49,4.49,0,0,0,4.1,0,1.25,1.25,0,0,0,0-2.36,4.49,4.49,0,0,0-4.1,0A1.24,1.24,0,0,0,441.11,139.4Z"/><path class="cls-12" d="M430.25,139.39a4.58,4.58,0,0,0,4.11,0,1.25,1.25,0,0,0,0-2.37,4.58,4.58,0,0,0-4.11,0A1.25,1.25,0,0,0,430.25,139.39Z"/><path class="cls-12" d="M434.16,145.78a1.25,1.25,0,0,0,0-2.36,4.49,4.49,0,0,0-4.1,0,1.24,1.24,0,0,0,0,2.36A4.49,4.49,0,0,0,434.16,145.78Z"/><path class="cls-12" d="M419.37,139.39a4.55,4.55,0,0,0,4.1,0,1.25,1.25,0,0,0,0-2.37,4.55,4.55,0,0,0-4.1,0A1.25,1.25,0,0,0,419.37,139.39Z"/><path class="cls-12" d="M471.14,156.74a4.49,4.49,0,0,0,4.1,0,1.24,1.24,0,0,0,0-2.36,4.49,4.49,0,0,0-4.1,0A1.25,1.25,0,0,0,471.14,156.74Z"/><path class="cls-12" d="M464.18,163.12a1.25,1.25,0,0,0,0-2.37,4.55,4.55,0,0,0-4.1,0,1.25,1.25,0,0,0,0,2.37A4.55,4.55,0,0,0,464.18,163.12Z"/><path class="cls-12" d="M482.05,163a4.55,4.55,0,0,0,4.1,0,1.25,1.25,0,0,0,0-2.37,4.55,4.55,0,0,0-4.1,0A1.25,1.25,0,0,0,482.05,163Z"/><path class="cls-12" d="M475.28,160.65a4.49,4.49,0,0,0-4.1,0,1.25,1.25,0,0,0,0,2.37,4.55,4.55,0,0,0,4.1,0A1.25,1.25,0,0,0,475.28,160.65Z"/><path class="cls-12" d="M475.09,167a4.55,4.55,0,0,0-4.1,0,1.25,1.25,0,0,0,0,2.37,4.49,4.49,0,0,0,4.1,0A1.25,1.25,0,0,0,475.09,167Z"/><path class="cls-12" d="M450.12,144.61a4.55,4.55,0,0,0,4.1,0,1.25,1.25,0,0,0,0-2.37,4.49,4.49,0,0,0-4.1,0A1.25,1.25,0,0,0,450.12,144.61Z"/><path class="cls-12" d="M439.06,151a4.55,4.55,0,0,0,4.1,0,1.25,1.25,0,0,0,0-2.37,4.55,4.55,0,0,0-4.1,0A1.25,1.25,0,0,0,439.06,151Z"/><path class="cls-12" d="M461,150.9a4.55,4.55,0,0,0,4.1,0,1.25,1.25,0,0,0,0-2.37,4.55,4.55,0,0,0-4.1,0A1.25,1.25,0,0,0,461,150.9Z"/><ellipse class="cls-12" cx="452.21" cy="149.69" rx="2.9" ry="1.67"/><path class="cls-12" d="M454.06,154.91a4.49,4.49,0,0,0-4.1,0,1.25,1.25,0,0,0,0,2.36,4.49,4.49,0,0,0,4.1,0A1.25,1.25,0,0,0,454.06,154.91Z"/><path class="cls-2" d="M185.35,272.09,83.08,211.66c-2.65-1.58-6.7-1.78-9-.47l-1.94,1.1-55.5,31.29c-2.33,1.32-2.06,3.65.59,5.22l102.27,60.44a9,9,0,0,0,2.23.93,9.57,9.57,0,0,0,6.8-.46L186,277.32C188.28,276,188,273.66,185.35,272.09Zm-64.54-17.5.87-.47.09-.05,2.21-1.23h0l1.8-1h0l6.76-3.75a5.67,5.67,0,0,1,7.68,7.78,5.34,5.34,0,0,1-2.78,4.29l-6.34,3.45h0l-1.62.88-.24.13h0l-.59.32-2.44,1.33a5.52,5.52,0,0,1-7.4-2.08h0a5.21,5.21,0,0,1-.67-2.95A5.72,5.72,0,0,1,120.81,254.59ZM97.25,240.43l.26-.14.17-.1.43-.24h0l1.1-.6,1.2-.67h0l1.8-1h0l6.76-3.75a5.7,5.7,0,0,1,7.73,2.21h0a5.7,5.7,0,0,1,0,5.56,5.33,5.33,0,0,1-2.78,4.29l-6.34,3.45h0l-1.62.88-.24.14h0l-.59.31-2.44,1.33A5.52,5.52,0,0,1,95.24,250h0a5.25,5.25,0,0,1-.66-2.94A5.71,5.71,0,0,1,97.25,240.43ZM73.66,226.28l.86-.48h0l2.09-1.16.21-.11,1.11-.62,7.45-4.13A5.7,5.7,0,0,1,93.11,222h0a5.69,5.69,0,0,1,0,5.57,5.32,5.32,0,0,1-2.78,4.29L84,235.29h0l-1.62.89-.25.13h0l-.58.32L79.05,238a5.52,5.52,0,0,1-7.4-2.08h0a5.22,5.22,0,0,1-.66-2.95A5.7,5.7,0,0,1,73.66,226.28Zm-11.9,21.15A5.34,5.34,0,0,1,59,251.72l-6.34,3.45h0l-1.62.88-.24.13h0l-.59.32-2.44,1.33a5.52,5.52,0,0,1-7.41-2.08,5.26,5.26,0,0,1-.66-2.95,5.7,5.7,0,0,1,2.67-6.64l2.33-1.3,2.63-1.46h0l6.76-3.75a5.71,5.71,0,0,1,7.73,2.22h0A5.7,5.7,0,0,1,61.76,247.43ZM85.35,261.6a5.33,5.33,0,0,1-2.78,4.28l-6.34,3.45h0l-1.62.89-.24.13h0l-.59.32L71.34,272a5.52,5.52,0,0,1-7.4-2.09h0a5.18,5.18,0,0,1-.67-2.94,5.72,5.72,0,0,1,2.67-6.65l.26-.14h0l.86-.48,2-1.13h0l1.8-1h0l6.76-3.75a5.67,5.67,0,0,1,7.68,7.78Zm23.56,14.14a5.33,5.33,0,0,1-2.78,4.29l-6.33,3.45h0l-1.63.88-.24.13h0l-.58.32-2.45,1.33a5.51,5.51,0,0,1-7.4-2.08h0a5.18,5.18,0,0,1-.66-2.95,5.68,5.68,0,0,1,2.67-6.64l.25-.14h0l.48-.27.13-.07h0l4.1-2.27h0l6.76-3.75a5.7,5.7,0,0,1,7.73,2.21h0A5.67,5.67,0,0,1,108.91,275.74Zm23.56,14.18a5.33,5.33,0,0,1-2.78,4.29l-6.34,3.45h0l-1.62.88-.24.14h0l-.59.31-2.44,1.33a5.51,5.51,0,0,1-7.4-2.08,5.18,5.18,0,0,1-.67-2.94,5.71,5.71,0,0,1,2.67-6.65l3.17-1.76h0l1.8-1h0l6.76-3.75a5.67,5.67,0,0,1,7.68,7.77Zm14.69-4.1-.17.09a2.65,2.65,0,0,1-2.38-.12L50.92,230.42c-.71-.42-.78-1-.16-1.38l.16-.1a2.67,2.67,0,0,1,2.39.13L147,284.44C147.7,284.85,147.77,285.47,147.16,285.82Zm16.62-15.77a5.34,5.34,0,0,1-2.78,4.29l-6.33,3.44h0l-1.63.89-.24.13h0l-.58.32-2.45,1.33a5.52,5.52,0,0,1-7.4-2.08,5.2,5.2,0,0,1-.66-2.95,5.7,5.7,0,0,1,2.67-6.65l.86-.48.06,0,2.24-1.24h0l1.8-1h0l6.76-3.75a5.67,5.67,0,0,1,7.68,7.78Z"/><path class="cls-20" d="M180.54,270.42,78.27,210c-2.66-1.57-6.7-1.78-9-.47l-1.95,1.1L11.8,241.91c-2.33,1.31-2.07,3.65.59,5.22l102.27,60.44a10.21,10.21,0,0,0,9,.46l57.45-32.39C183.47,274.33,183.2,272,180.54,270.42Zm-75,23.2a5.72,5.72,0,0,1,2.67-6.65l3.16-1.75h0l1.8-1h0l6.76-3.75a5.68,5.68,0,0,1,7.69,7.78,5.34,5.34,0,0,1-2.78,4.29L118.54,296h0l-1.62.88-.24.13h0l-.59.32-2.44,1.33a5.53,5.53,0,0,1-7.41-2.08h0A5.28,5.28,0,0,1,105.58,293.62ZM82,279.44a5.71,5.71,0,0,1,2.68-6.65l.25-.14h0l.48-.26.13-.08h0l4.1-2.27h0l6.76-3.75a5.69,5.69,0,0,1,7.72,2.21h0a5.67,5.67,0,0,1,0,5.57,5.34,5.34,0,0,1-2.78,4.29L95,281.8h0l-1.62.89-.24.13h0l-.58.32-2.45,1.33a5.52,5.52,0,0,1-7.4-2.08h0A5.21,5.21,0,0,1,82,279.44ZM58.46,265.29a5.7,5.7,0,0,1,2.67-6.64l.26-.14h0l.86-.48,2-1.14h0l1.8-1h0l6.76-3.75a5.68,5.68,0,0,1,7.68,7.78,5.33,5.33,0,0,1-2.78,4.29l-6.34,3.45h0l-1.62.88-.24.13h0L69,269l-2.44,1.33a5.52,5.52,0,0,1-7.41-2.08h0A5.26,5.26,0,0,1,58.46,265.29Zm-18.59-22.1,2.63-1.46h0L49.26,238A5.7,5.7,0,0,1,57,240.19h0a5.72,5.72,0,0,1,0,5.57A5.35,5.35,0,0,1,54.17,250l-6.34,3.45h0l-1.62.89-.25.13h0l-.58.32-2.45,1.33a5.52,5.52,0,0,1-7.4-2.09h0a5.25,5.25,0,0,1-.66-2.94,5.72,5.72,0,0,1,2.67-6.65Zm8.63-15.8,93.69,55.37c.7.42.77,1,.16,1.38l-.17.09a2.62,2.62,0,0,1-2.38-.12L46.1,228.74c-.7-.41-.77-1-.15-1.38l.16-.09A2.67,2.67,0,0,1,48.5,227.39Zm39.8-7.07a5.67,5.67,0,0,1,0,5.56,5.33,5.33,0,0,1-2.78,4.29l-6.33,3.45h0l-1.63.88-.24.13h0l-.58.32-2.45,1.33a5.51,5.51,0,0,1-7.4-2.08h0a5.18,5.18,0,0,1-.66-2.95,5.68,5.68,0,0,1,2.67-6.64l.86-.48h0L71.8,223l.21-.12h0l1.11-.61,7.45-4.14a5.71,5.71,0,0,1,7.73,2.22Zm23.59,14.14a5.72,5.72,0,0,1,0,5.57,5.37,5.37,0,0,1-2.78,4.29l-6.34,3.45h0l-1.62.88-.25.13h0l-.58.32-2.45,1.33a5.52,5.52,0,0,1-7.4-2.08h0a5.2,5.2,0,0,1-.66-2.95,5.72,5.72,0,0,1,2.67-6.65l.26-.14h0l.17-.09.43-.24h0l1.09-.61L95.6,237h0l1.8-1h0l6.76-3.75a5.71,5.71,0,0,1,7.73,2.21Zm23.56,14.17a5.7,5.7,0,0,1,0,5.56,5.33,5.33,0,0,1-2.78,4.29l-6.34,3.45h0l-1.62.88-.24.14h0l-.59.31-2.44,1.33a5.52,5.52,0,0,1-7.41-2.08h0a5.25,5.25,0,0,1-.66-2.94,5.71,5.71,0,0,1,2.67-6.65l.87-.48h0l.09-.05,2.21-1.22h0l1.8-1h0l6.76-3.75a5.69,5.69,0,0,1,7.72,2.21ZM159,262.81a5.65,5.65,0,0,1,0,5.56,5.33,5.33,0,0,1-2.78,4.29l-6.34,3.45h0l-1.62.88-.24.13h0l-.59.32L145,278.77a5.51,5.51,0,0,1-7.4-2.08,5.19,5.19,0,0,1-.67-2.95,5.7,5.7,0,0,1,2.68-6.64l.86-.48h0l.06,0,2.24-1.25h0l1.8-1h0l6.76-3.75A5.69,5.69,0,0,1,159,262.81Z"/><path class="cls-21" d="M142.35,284.14l-.17.09a2.62,2.62,0,0,1-2.38-.12L46.1,228.74c-.7-.41-.77-1-.15-1.38l.16-.09a2.67,2.67,0,0,1,2.39.12l93.69,55.37C142.89,283.18,143,283.79,142.35,284.14Z"/><path class="cls-21" d="M137.35,274.82a5.71,5.71,0,0,0,7.73,2.22l.25-.14h0l11.47-6.37a5.63,5.63,0,0,0,2.17-2.16,5.33,5.33,0,0,1-2.78,4.29l-6.34,3.45h0l-1.62.88-.24.13h0l-.59.32L145,278.77a5.51,5.51,0,0,1-7.4-2.08,5.19,5.19,0,0,1-.67-2.95,6.37,6.37,0,0,0,.46,1.08Z"/><path class="cls-22" d="M159,268.37a5.63,5.63,0,0,1-2.17,2.16l-11.47,6.37h0l2.3-1.28.61-.34h0l.25-.14,1.7-.94c2.56-1.42,2.64-4,1.39-6.62l5.3-2.72a1.16,1.16,0,0,0-1.06-2.06l-5.5,2.83c-1.52-1.76-3.59-2.5-5.79-1.28l6.76-3.75a5.67,5.67,0,0,1,7.68,7.77Z"/><polygon class="cls-8" points="142.73 265.34 142.73 265.34 140.49 266.59 142.73 265.34"/><path class="cls-23" d="M138.22,274.35h0a5.7,5.7,0,0,0,7.72,2.21l2.3-1.28h0l-.61.34-2.3,1.28-.25.14a5.71,5.71,0,0,1-7.73-2.22h0a6.37,6.37,0,0,1-.46-1.08,5.7,5.7,0,0,1,2.68-6.64l.86-.48A5.7,5.7,0,0,0,138.22,274.35Z"/><path class="cls-23" d="M150.32,265.63l-6.72,3.46a1.16,1.16,0,0,0-.5,1.56h0a1.16,1.16,0,0,0,1.55.5l6.93-3.57c1.25,2.58,1.17,5.2-1.39,6.62l-1.7.94-.25.14-2.3,1.28a5.7,5.7,0,0,1-7.72-2.21h0a5.7,5.7,0,0,1,2.21-7.73h0l.06,0,2.24-1.25,1.8-1h0C146.73,263.13,148.8,263.87,150.32,265.63Z"/><path class="cls-12" d="M144.65,271.15a1.16,1.16,0,0,1-1.55-.5h0a1.16,1.16,0,0,1,.5-1.56l6.72-3.46,5.5-2.83a1.16,1.16,0,0,1,1.06,2.06l-5.3,2.72Z"/><path class="cls-21" d="M113.79,260.65a5.71,5.71,0,0,0,7.73,2.21l.25-.14h0l4.48-2.49.37-.21h0l6.62-3.66a5.72,5.72,0,0,0,2.17-2.17,5.33,5.33,0,0,1-2.78,4.29l-6.34,3.45h0l-1.62.88-.24.14h0l-.59.31-2.44,1.33a5.52,5.52,0,0,1-7.41-2.08h0a5.25,5.25,0,0,1-.66-2.94,5.94,5.94,0,0,0,.46,1.08Z"/><path class="cls-22" d="M135.41,254.19a5.72,5.72,0,0,1-2.17,2.17L126.62,260c2.57-1.42,2.65-4,1.4-6.62l5.29-2.72a1.16,1.16,0,0,0,.5-1.56,1.15,1.15,0,0,0-1.55-.49l-5.5,2.83c-1.52-1.77-3.59-2.51-5.79-1.29l6.76-3.75a5.69,5.69,0,0,1,7.72,2.21h0A5.7,5.7,0,0,1,135.41,254.19Z"/><polygon class="cls-22" points="121.77 262.72 122.38 262.38 122.38 262.38 124.93 260.96 126.25 260.23 121.77 262.72 121.77 262.72"/><polygon class="cls-8" points="119.17 251.16 119.17 251.16 116.96 252.39 119.17 251.16"/><path class="cls-23" d="M114.65,260.17h0a5.7,5.7,0,0,0,7.73,2.21l-.61.34-.25.14a5.71,5.71,0,0,1-7.73-2.21h0a5.94,5.94,0,0,1-.46-1.08,5.71,5.71,0,0,1,2.67-6.65l.87-.48A5.71,5.71,0,0,0,114.65,260.17Z"/><path class="cls-23" d="M126.76,251.46,120,254.91a1.16,1.16,0,0,0,1.06,2.06L128,253.4c1.25,2.58,1.17,5.2-1.4,6.62h0l-.37.21-1.32.73-2.55,1.42h0a5.7,5.7,0,0,1-7.73-2.21h0a5.71,5.71,0,0,1,2.22-7.73h0l.09-.05,2.21-1.22,1.8-1h0C123.17,249,125.24,249.69,126.76,251.46Z"/><path class="cls-12" d="M121.09,257a1.16,1.16,0,0,1-1.06-2.06l6.73-3.45,5.5-2.83a1.15,1.15,0,0,1,1.55.49,1.16,1.16,0,0,1-.5,1.56L128,253.4Z"/><path class="cls-21" d="M90.23,246.48A5.69,5.69,0,0,0,98,248.69l.26-.14h0l4.48-2.48.37-.21h0l6.62-3.67a5.63,5.63,0,0,0,2.17-2.16,5.37,5.37,0,0,1-2.78,4.29l-6.34,3.45h0l-1.62.88-.25.13h0l-.58.32-2.45,1.33a5.52,5.52,0,0,1-7.4-2.08h0a5.2,5.2,0,0,1-.66-2.95,5.08,5.08,0,0,0,.46,1.08Z"/><polygon class="cls-22" points="92.69 238.61 92.87 238.52 92.69 238.61 92.69 238.61"/><path class="cls-22" d="M111.85,240a5.63,5.63,0,0,1-2.17,2.16l-6.62,3.67c2.57-1.42,2.65-4,1.39-6.62l5.3-2.73a1.15,1.15,0,1,0-1.06-2l-5.5,2.83c-1.51-1.76-3.59-2.51-5.79-1.29l6.76-3.75a5.71,5.71,0,0,1,7.73,2.21h0A5.72,5.72,0,0,1,111.85,240Z"/><polygon class="cls-22" points="98.21 248.55 98.82 248.21 98.82 248.21 101.37 246.8 102.69 246.07 98.21 248.55 98.21 248.55"/><polygon class="cls-8" points="95.6 237 95.6 237 94.39 237.67 95.6 237"/><path class="cls-23" d="M91.09,246h0a5.7,5.7,0,0,0,7.73,2.21l-.61.34-.26.14a5.69,5.69,0,0,1-7.72-2.21h0a5.08,5.08,0,0,1-.46-1.08,5.72,5.72,0,0,1,2.67-6.65l.26-.14.17-.09.43-.24A5.69,5.69,0,0,0,91.09,246Z"/><path class="cls-23" d="M103.19,237.29l-6.72,3.46a1.15,1.15,0,1,0,1.06,2.05l6.92-3.56c1.26,2.58,1.18,5.2-1.39,6.62h0l-.37.21-1.32.73-2.55,1.41h0A5.7,5.7,0,0,1,91.09,246h0a5.69,5.69,0,0,1,2.21-7.72h0l1.09-.61L95.6,237l1.8-1h0C99.6,234.78,101.68,235.53,103.19,237.29Z"/><path class="cls-12" d="M97.53,242.8a1.15,1.15,0,1,1-1.06-2.05l6.72-3.46,5.5-2.83a1.15,1.15,0,1,1,1.06,2l-5.3,2.73Z"/><path class="cls-21" d="M66.63,232.33a5.71,5.71,0,0,0,7.73,2.22l.26-.15h0l1.09-.6,1.79-1h0l.26-.14,1.69-.94h0L86.08,228a5.5,5.5,0,0,0,2.17-2.16,5.33,5.33,0,0,1-2.78,4.29l-6.33,3.45h0l-1.63.88-.24.13h0l-.58.32-2.45,1.33a5.51,5.51,0,0,1-7.4-2.08h0a5.18,5.18,0,0,1-.66-2.95,5.61,5.61,0,0,0,.45,1.08Z"/><path class="cls-22" d="M88.25,225.88A5.5,5.5,0,0,1,86.08,228l-6.61,3.67c2.56-1.42,2.64-4,1.39-6.62l5.3-2.72a1.17,1.17,0,0,0,.5-1.56h0a1.17,1.17,0,0,0-1.56-.5l-5.5,2.83c-1.52-1.76-3.59-2.51-5.79-1.29l-.69.39,7.45-4.14a5.71,5.71,0,0,1,7.73,2.22h0A5.67,5.67,0,0,1,88.25,225.88Z"/><polygon class="cls-22" points="74.61 234.41 75.22 234.07 75.22 234.07 75.71 233.8 74.61 234.41 74.61 234.41"/><polygon class="cls-8" points="72.01 222.85 72.01 222.85 71.8 222.97 72.01 222.85"/><polygon class="cls-8" points="77.5 232.8 77.52 232.79 77.52 232.79 77.5 232.8"/><path class="cls-23" d="M67.5,231.85h0a5.69,5.69,0,0,0,7.72,2.22l-.6.33-.26.15a5.71,5.71,0,0,1-7.73-2.22h0a5.61,5.61,0,0,1-.45-1.08,5.68,5.68,0,0,1,2.67-6.64l.86-.48A5.69,5.69,0,0,0,67.5,231.85Z"/><path class="cls-23" d="M79.6,223.14l-6.72,3.46a1.16,1.16,0,0,0,1.06,2.06l6.92-3.57c1.25,2.58,1.17,5.2-1.39,6.62h0l-1.69.94-.26.14h0l-1.79,1-.49.27h0a5.69,5.69,0,0,1-7.72-2.22h0a5.69,5.69,0,0,1,2.21-7.72h0L71.8,223l.21-.12,1.11-.61.69-.39C76,220.63,78.08,221.38,79.6,223.14Z"/><path class="cls-12" d="M73.94,228.66a1.16,1.16,0,0,1-1.06-2.06l6.72-3.46,5.5-2.83a1.17,1.17,0,0,1,1.56.5h0a1.17,1.17,0,0,1-.5,1.56l-5.3,2.72Z"/><path class="cls-21" d="M90.21,282.73l.25-.14h0l11.47-6.36a5.63,5.63,0,0,0,2.17-2.16,5.34,5.34,0,0,1-2.78,4.29L95,281.8h0l-1.62.89-.24.13h0l-.58.32-2.45,1.33a5.52,5.52,0,0,1-7.4-2.08h0a5.21,5.21,0,0,1-.67-2.95,6.37,6.37,0,0,0,.46,1.08A5.7,5.7,0,0,0,90.21,282.73Z"/><polygon class="cls-22" points="84.95 272.65 85.43 272.39 84.95 272.65 84.95 272.65"/><path class="cls-22" d="M101.93,276.23l-11.47,6.36h0l.61-.34h0l2.55-1.41,1.7-.94c2.56-1.42,2.64-4,1.39-6.62l5.3-2.73A1.15,1.15,0,0,0,101,268.5l-5.5,2.83c-1.52-1.76-3.59-2.51-5.79-1.29l6.76-3.75a5.69,5.69,0,0,1,7.72,2.21h0a5.71,5.71,0,0,1-2.21,7.73Z"/><path class="cls-23" d="M84.7,272.79l.25-.14.48-.26.13-.08A5.7,5.7,0,0,0,83.35,280h0a5.69,5.69,0,0,0,7.72,2.21l-.61.34-.25.14a5.7,5.7,0,0,1-7.73-2.21,6.37,6.37,0,0,1-.46-1.08A5.71,5.71,0,0,1,84.7,272.79Z"/><path class="cls-23" d="M95.45,271.33l-6.72,3.46a1.15,1.15,0,1,0,1,2l6.93-3.56c1.25,2.57,1.17,5.2-1.39,6.62l-1.7.94-2.55,1.41h0A5.69,5.69,0,0,1,83.35,280h0a5.7,5.7,0,0,1,2.21-7.73h0l4.1-2.27h0C91.86,268.82,93.93,269.57,95.45,271.33Z"/><path class="cls-12" d="M89.78,276.84a1.15,1.15,0,1,1-1-2l6.72-3.46,5.5-2.83a1.15,1.15,0,0,1,1.06,2.05l-5.3,2.73Z"/><path class="cls-21" d="M106,294.7a5.69,5.69,0,0,0,7.72,2.21l.26-.14h0l11.47-6.36a5.63,5.63,0,0,0,2.17-2.16,5.34,5.34,0,0,1-2.78,4.29L118.54,296h0l-1.62.88-.24.13h0l-.59.32-2.44,1.33a5.53,5.53,0,0,1-7.41-2.08h0a5.28,5.28,0,0,1-.66-2.95,5.66,5.66,0,0,0,.46,1.08Z"/><path class="cls-22" d="M125.49,290.41,114,296.77h0l1.52-.84,1.29-.72.1,0h0l.25-.14,1.69-.94c2.57-1.42,2.65-4,1.4-6.62l5.29-2.73a1.15,1.15,0,0,0-1-2.05l-5.5,2.83c-1.52-1.76-3.59-2.51-5.8-1.29l6.76-3.75a5.68,5.68,0,0,1,7.69,7.78A5.63,5.63,0,0,1,125.49,290.41Z"/><path class="cls-23" d="M108.25,287l3.16-1.75h0l-2.29,1.28a5.68,5.68,0,1,0,5.51,9.93l.91-.5-1.52.84-.26.14A5.69,5.69,0,0,1,106,294.7h0a5.66,5.66,0,0,1-.46-1.08A5.72,5.72,0,0,1,108.25,287Z"/><polygon class="cls-8" points="116.93 295.16 116.83 295.21 116.93 295.16 116.93 295.16"/><path class="cls-23" d="M119,285.51,112.28,289a1.15,1.15,0,0,0,1.06,2l6.93-3.56c1.25,2.58,1.17,5.2-1.4,6.62l-1.69.94-.25.14-.1,0-1.29.72-.91.5a5.68,5.68,0,1,1-5.51-9.93l2.29-1.28,1.8-1h0C115.42,283,117.49,283.75,119,285.51Z"/><path class="cls-12" d="M113.34,291a1.15,1.15,0,0,1-1.06-2l6.73-3.46,5.5-2.83a1.15,1.15,0,0,1,1,2.05l-5.29,2.73Z"/><path class="cls-21" d="M58.92,266.37a5.71,5.71,0,0,0,7.73,2.22l.25-.15h0l11.47-6.36a5.63,5.63,0,0,0,2.17-2.16,5.33,5.33,0,0,1-2.78,4.29l-6.34,3.45h0l-1.62.88-.24.13h0L69,269l-2.44,1.33a5.52,5.52,0,0,1-7.41-2.08h0a5.26,5.26,0,0,1-.66-2.95,5.66,5.66,0,0,0,.46,1.08Z"/><polygon class="cls-22" points="62 258.17 62 258.17 61.39 258.5 61.39 258.5 62.25 258.03 62.24 258.03 62 258.17"/><path class="cls-22" d="M78.37,262.08,66.9,268.44h0l.61-.33h0l.82-.46.87-.48.53-.3.33-.18,1.69-.94c2.57-1.42,2.65-4,1.4-6.62l5.29-2.72a1.16,1.16,0,0,0-1-2.06l-5.5,2.83c-1.52-1.76-3.59-2.51-5.79-1.29l6.76-3.75a5.68,5.68,0,0,1,7.68,7.78A5.63,5.63,0,0,1,78.37,262.08Z"/><path class="cls-23" d="M61.13,258.65l.26-.14.61-.34a5.68,5.68,0,1,0,5.51,9.94l-.61.33-.25.15a5.71,5.71,0,0,1-7.73-2.22h0a5.68,5.68,0,0,1,2.21-7.72Z"/><polygon class="cls-8" points="62.24 258.03 62.25 258.03 64.3 256.89 64.3 256.89 62.24 258.03"/><polygon class="cls-8" points="69.2 267.17 68.33 267.65 69.73 266.87 69.2 267.17"/><path class="cls-23" d="M71.89,257.18l-6.73,3.46a1.16,1.16,0,0,0,1.06,2.06l6.93-3.57c1.25,2.58,1.17,5.2-1.4,6.62l-1.69.94-.33.18-1.4.78-.82.46h0A5.68,5.68,0,1,1,62,258.17h0l.25-.14,2-1.14,1.8-1h0C68.3,254.67,70.37,255.42,71.89,257.18Z"/><path class="cls-12" d="M66.22,262.7a1.16,1.16,0,0,1-1.06-2.06l6.73-3.46,5.5-2.83a1.16,1.16,0,0,1,1,2.06l-5.29,2.72Z"/><path class="cls-21" d="M43.05,254.42l.26-.14h0l1.81-1,1.07-.59h0l.25-.14.67-.38,7.64-4.23A5.77,5.77,0,0,0,57,245.76,5.35,5.35,0,0,1,54.17,250l-6.34,3.45h0l-1.62.89-.25.13h0l-.58.32-2.45,1.33a5.52,5.52,0,0,1-7.4-2.09h0a5.25,5.25,0,0,1-.66-2.94,5.08,5.08,0,0,0,.46,1.08A5.69,5.69,0,0,0,43.05,254.42Z"/><path class="cls-22" d="M54.78,247.92l-7.64,4.23,1-.56c2.57-1.43,2.65-4.05,1.39-6.62l5.3-2.73a1.15,1.15,0,1,0-1.06-2.05L48.29,243c-1.51-1.77-3.59-2.51-5.79-1.29L49.26,238A5.7,5.7,0,0,1,57,240.19h0a5.71,5.71,0,0,1-2.21,7.73Z"/><polygon class="cls-22" points="43.31 254.28 43.92 253.94 43.92 253.94 45.12 253.27 43.31 254.28 43.31 254.28"/><path class="cls-24" d="M36.19,251.73h0a5.7,5.7,0,0,0,7.73,2.21l-.61.34-.26.14a5.69,5.69,0,0,1-7.72-2.21,5.08,5.08,0,0,1-.46-1.08,5.72,5.72,0,0,1,2.67-6.65l2.33-1.29L38.4,244A5.7,5.7,0,0,0,36.19,251.73Z"/><polygon class="cls-24" points="46.19 252.68 46.22 252.67 46.22 252.67 46.19 252.68"/><path class="cls-23" d="M42.5,241.73c2.2-1.22,4.28-.48,5.79,1.29l-6.72,3.46a1.15,1.15,0,1,0,1.06,2.05L49.55,245c1.26,2.57,1.18,5.19-1.39,6.62l-1,.56-.67.38-.25.14h0l-1.07.59-1.2.67h0a5.7,5.7,0,0,1-7.73-2.21h0A5.7,5.7,0,0,1,38.4,244l1.47-.81,2.63-1.46Z"/><path class="cls-12" d="M53.79,240.19a1.15,1.15,0,1,1,1.06,2.05L49.55,245l-6.92,3.56a1.15,1.15,0,1,1-1.06-2.05L48.29,243Z"/><path class="cls-19" d="M376.87,128c1.26.11,2.57.17,3.9.17,12.36,0,22.37-5,22.37-11.09,0-2.58-1.79-5-4.78-6.85,0,.28,0,.55,0,.82C398.4,120.05,388.9,127.4,376.87,128Z"/><path class="cls-25" d="M375.22,128.07c.55,0,1.1,0,1.65,0,12-.62,21.53-8,21.53-17,0-.27,0-.54,0-.82a10.89,10.89,0,0,0-.14-1.28s.18-40.65.18-41.36c0-4.24-2.12-8.11-5.62-11.09-.75,3.5-5.4,6.4-11.67,7.54V75.83c9.31,1,16.16,4.5,16.16,8.61,0,.66-.17,21.75-.17,21.75a11.49,11.49,0,0,1,.17,2c0,8.76-9.87,15.86-22,15.86s-22-7.1-22-15.86a12.26,12.26,0,0,1,.08-1.36h-.08V83.19l.21,0c1.18-3.57,7.55-6.46,15.93-7.4V64.06c-6.28-1.14-10.92-4-11.67-7.54-3.5,3-5.62,6.85-5.62,11.09v42h.09a12.08,12.08,0,0,0-.09,1.47C352,120.46,362.42,128.07,375.22,128.07Z"/><path class="cls-26" d="M381.11,93.05v14.14h0a4.89,4.89,0,0,1,0,.54s0,.1,0,.15a2.57,2.57,0,0,1-.06.4s0,.09,0,.14-.08.32-.13.48a.88.88,0,0,1-.05.15l-.12.33a1.54,1.54,0,0,1-.08.19l-.13.28-.17.31-.14.23-.17.24-.1.14a6.45,6.45,0,0,1-.76.81l0,0a5.74,5.74,0,0,1-1.35.89v5a2.33,2.33,0,0,1-.19.92,1.87,1.87,0,0,1-.35.57,1.22,1.22,0,0,1-.15.17,2.24,2.24,0,0,1-1.65.69H375a2.35,2.35,0,0,1-2.34-2.35v-5h0a5.54,5.54,0,0,1-1.35-.89l0,0a7.2,7.2,0,0,1-.75-.81l-.1-.14-.17-.24-.14-.23-.17-.31-.13-.28a1.54,1.54,0,0,1-.08-.19,2.19,2.19,0,0,1-.12-.33.88.88,0,0,1-.05-.15c0-.16-.09-.32-.13-.48s0-.09,0-.14a2.57,2.57,0,0,1-.06-.4.77.77,0,0,1,0-.15,4.89,4.89,0,0,1,0-.54V93c-9.3-1-16.14-4.5-16.14-8.6v22.34h.08a12.26,12.26,0,0,0-.08,1.36c0,8.76,9.87,15.86,22,15.86s22-7.1,22-15.86a11.49,11.49,0,0,0-.17-2s.17-21.09.17-21.75C397.27,88.55,390.42,92,381.11,93.05Z"/><path class="cls-27" d="M353.19,83.19v1.25a3.79,3.79,0,0,1,.21-1.2Z"/><path class="cls-28" d="M369.33,93v-3.7h0V75.84c-8.38.94-14.75,3.83-15.93,7.4a3.79,3.79,0,0,0-.21,1.2C353.19,88.54,360,92,369.33,93Z"/><path class="cls-28" d="M381.11,89.34v3.71c9.31-1,16.16-4.5,16.16-8.61s-6.85-7.56-16.16-8.61Z"/><path class="cls-29" d="M371.71,64.39h0c-.81-.08-1.6-.2-2.37-.33V89.34c1.15,2.67,10.42,3.12,11.78,0V64.06a34.28,34.28,0,0,1-9.4.33Z"/><path class="cls-29" d="M370.14,110.16l-.17-.31Z"/><path class="cls-29" d="M369.84,109.57a1.54,1.54,0,0,1-.08-.19A1.54,1.54,0,0,0,369.84,109.57Z"/><path class="cls-29" d="M369.64,109.05a.88.88,0,0,1-.05-.15A.88.88,0,0,0,369.64,109.05Z"/><path class="cls-29" d="M369.46,108.42s0-.09,0-.14S369.45,108.37,369.46,108.42Z"/><path class="cls-29" d="M372.68,112.49a5.54,5.54,0,0,1-1.35-.89A5.54,5.54,0,0,0,372.68,112.49Z"/><path class="cls-29" d="M381.08,107.73s0,.1,0,.15S381.07,107.78,381.08,107.73Z"/><path class="cls-29" d="M381,108.28s0,.09,0,.14S381,108.33,381,108.28Z"/><polygon class="cls-29" points="381.11 107.19 381.11 107.19 381.11 107.19 381.11 107.19"/><path class="cls-29" d="M380.85,108.9a.88.88,0,0,1-.05.15A.88.88,0,0,0,380.85,108.9Z"/><path class="cls-29" d="M380.68,109.38a1.54,1.54,0,0,1-.08.19A1.54,1.54,0,0,0,380.68,109.38Z"/><path class="cls-29" d="M380.16,110.39l-.17.24Z"/><path class="cls-29" d="M380.47,109.85l-.17.31Z"/><path class="cls-29" d="M369.38,107.88a.77.77,0,0,1,0-.15A.77.77,0,0,0,369.38,107.88Z"/><path class="cls-29" d="M370.45,110.63l-.17-.24Z"/><path class="cls-29" d="M379.13,111.58a6.45,6.45,0,0,0,.76-.81A6.45,6.45,0,0,1,379.13,111.58Z"/><path class="cls-29" d="M370.55,110.77a7.2,7.2,0,0,0,.75.81A7.2,7.2,0,0,1,370.55,110.77Z"/><path class="cls-29" d="M377.76,112.49a5.74,5.74,0,0,0,1.35-.89,5.74,5.74,0,0,1-1.35.89Z"/><path class="cls-12" d="M391.38,51.88l.2.24Z"/><path class="cls-12" d="M392.28,53.19c.05.08.09.17.13.25C392.37,53.36,392.33,53.27,392.28,53.19Z"/><path class="cls-12" d="M392.79,54.57c0,.11,0,.22,0,.32C392.82,54.79,392.81,54.68,392.79,54.57Z"/><path class="cls-12" d="M392.86,55.05a3.87,3.87,0,0,1,0,.48A3.87,3.87,0,0,0,392.86,55.05Z"/><path class="cls-12" d="M391.22,51.7l0,0h0Z"/><path class="cls-12" d="M392,52.74l.14.25Z"/><path class="cls-12" d="M391.73,52.31l.17.24Z"/><path class="cls-12" d="M392.67,54.1c0,.1.05.19.07.29C392.72,54.29,392.69,54.2,392.67,54.1Z"/><path class="cls-12" d="M392.5,53.64c0,.09.06.18.1.27C392.56,53.82,392.53,53.73,392.5,53.64Z"/><path class="cls-12" d="M369.33,64.06c.77.13,1.56.25,2.37.33a30.65,30.65,0,0,0,6.91-2.23,31.07,31.07,0,0,1-3.39.19c-8.83,0-16-3.65-16-8.14V51.67a5.7,5.7,0,0,0-1.69,3.86,4.62,4.62,0,0,0,.11,1C358.41,60,363.05,62.92,369.33,64.06Z"/><path class="cls-12" d="M371.71,64.39a33.52,33.52,0,0,0,3.51.18Z"/><path class="cls-13" d="M392.17,53a2,2,0,0,1,.11.2A2,2,0,0,0,392.17,53Z"/><path class="cls-13" d="M391.22,51.7l.16.18Z"/><path class="cls-13" d="M392.41,53.44l.09.2Z"/><path class="cls-13" d="M391.9,52.55a2.14,2.14,0,0,0,.13.19A2.14,2.14,0,0,1,391.9,52.55Z"/><path class="cls-13" d="M392.84,54.89a.88.88,0,0,1,0,.16A.88.88,0,0,0,392.84,54.89Z"/><path class="cls-13" d="M392.6,53.91a1.46,1.46,0,0,0,.07.19A1.46,1.46,0,0,1,392.6,53.91Z"/><path class="cls-13" d="M392.74,54.39c0,.06,0,.12.05.18S392.76,54.45,392.74,54.39Z"/><path class="cls-13" d="M391.58,52.12l.15.19Z"/><polygon class="cls-29" points="371.71 64.39 371.7 64.39 371.7 64.39 371.71 64.39"/><polygon class="cls-13" points="371.71 64.39 371.7 64.39 371.7 64.39 371.71 64.39"/><path class="cls-12" d="M391.2,54.21c0,3.9-5.4,7.16-12.59,7.95a30.65,30.65,0,0,1-6.91,2.23h0l3.51.18a33.63,33.63,0,0,0,5.89-.51c6.27-1.14,10.92-4,11.67-7.54a4.62,4.62,0,0,0,.11-1,3.87,3.87,0,0,0,0-.48.88.88,0,0,0,0-.16c0-.1,0-.21,0-.32s0-.12-.05-.18-.05-.19-.07-.29a1.46,1.46,0,0,1-.07-.19c0-.09-.07-.18-.1-.27l-.09-.2c0-.08-.08-.17-.13-.25a2,2,0,0,0-.11-.2l-.14-.25a2.14,2.14,0,0,1-.13-.19l-.17-.24-.15-.19-.2-.24-.16-.18,0,0Z"/><path class="cls-13" d="M391.2,54.21c0,3.9-5.4,7.16-12.59,7.95a30.65,30.65,0,0,1-6.91,2.23h0l3.51.18a33.63,33.63,0,0,0,5.89-.51c6.27-1.14,10.92-4,11.67-7.54a4.62,4.62,0,0,0,.11-1,3.87,3.87,0,0,0,0-.48.88.88,0,0,0,0-.16c0-.1,0-.21,0-.32s0-.12-.05-.18-.05-.19-.07-.29a1.46,1.46,0,0,1-.07-.19c0-.09-.07-.18-.1-.27l-.09-.2c0-.08-.08-.17-.13-.25a2,2,0,0,0-.11-.2l-.14-.25a2.14,2.14,0,0,1-.13-.19l-.17-.24-.15-.19-.2-.24-.16-.18,0,0Z"/><path class="cls-6" d="M385.57,54.21h-2V56.6A29.39,29.39,0,0,0,385.57,54.21Z"/><path class="cls-6" d="M378.31,59.94V54.21H376a.63.63,0,0,1,.12.37v5.86a.69.69,0,0,1-1.37,0V54.58a.63.63,0,0,1,.12-.37h-2.52v5.73a.69.69,0,1,1-1.37,0V54.21h-2.5V59a.69.69,0,0,1-1.37,0V54.21h-2v3.47a.69.69,0,0,1-1.37,0V54.21h-1.92v1.35a.69.69,0,1,1-1.37,0V54.21h-1.2c0,4.49,7.15,8.14,16,8.14a23.36,23.36,0,0,0,3.49-1.78A.69.69,0,0,1,378.31,59.94Z"/><path class="cls-6" d="M382.17,57.94V54.21h-2.49v5.72A23.6,23.6,0,0,0,382.17,57.94Z"/><path class="cls-6" d="M360.44,54.21v-4.5a.69.69,0,1,1,1.37,0v4.5h1.92V51.82a.69.69,0,0,1,1.37,0v2.39h2v-1.1a.69.69,0,0,1,1.37,0v1.1H371v-.12a.69.69,0,1,1,1.37,0v.12h2.52a.67.67,0,0,1,1.13,0h2.27v-.12a.69.69,0,1,1,1.37,0v.12h2.49v-1.1a.69.69,0,0,1,.69-.68.68.68,0,0,1,.68.68v1.1h2l0,0V51.82a.69.69,0,0,1,1.37,0v.39a40.49,40.49,0,0,0,2.75-5C387.19,50,381.65,52,375.22,52c-8.83,0-16-3.65-16-8.14V54.21Z"/><path class="cls-6" d="M387,52.21v5.47a.69.69,0,0,1-1.37,0V54.17l0,0a29.39,29.39,0,0,1-2,2.39V59a.68.68,0,0,1-.68.68.69.69,0,0,1-.69-.68v-1a23.6,23.6,0,0,1-2.49,2h0a.69.69,0,0,1-.69.69.88.88,0,0,1-.28-.06,23.36,23.36,0,0,1-3.49,1.78,31.07,31.07,0,0,0,3.39-.19c7.19-.79,12.59-4,12.59-7.95V51.68h0V43.84a5.05,5.05,0,0,1-1.48,3.41A40.49,40.49,0,0,1,387,52.21Zm3.28,3.35a.68.68,0,0,1-.68.69.69.69,0,0,1-.69-.69V49.71a.69.69,0,0,1,.69-.69.68.68,0,0,1,.68.69Z"/><path class="cls-13" d="M387,52.21v5.47a.69.69,0,0,1-1.37,0V54.17l0,0a29.39,29.39,0,0,1-2,2.39V59a.68.68,0,0,1-.68.68.69.69,0,0,1-.69-.68v-1a23.6,23.6,0,0,1-2.49,2h0a.69.69,0,0,1-.69.69.88.88,0,0,1-.28-.06,23.36,23.36,0,0,1-3.49,1.78,31.07,31.07,0,0,0,3.39-.19c7.19-.79,12.59-4,12.59-7.95V51.68h0V43.84a5.05,5.05,0,0,1-1.48,3.41A40.49,40.49,0,0,1,387,52.21Zm3.28,3.35a.68.68,0,0,1-.68.69.69.69,0,0,1-.69-.69V49.71a.69.69,0,0,1,.69-.69.68.68,0,0,1,.68.69Z"/><path class="cls-12" d="M375.22,52c6.43,0,12-1.94,14.5-4.73a5.05,5.05,0,0,0,1.48-3.41c0-3.16-3.53-5.9-8.69-7.25v6.48c0,2-3.27,3.72-7.29,3.72s-7.29-1.67-7.29-3.72V36.59c-5.16,1.35-8.69,4.09-8.69,7.25C359.24,48.33,366.39,52,375.22,52Z"/><path class="cls-29" d="M375.22,46.79c4,0,7.29-1.67,7.29-3.72H367.93C367.93,45.12,371.19,46.79,375.22,46.79Z"/><path class="cls-15" d="M360.44,55.56a.69.69,0,1,0,1.37,0V49.71a.69.69,0,1,0-1.37,0v5.85Z"/><path class="cls-15" d="M364.41,58.36a.68.68,0,0,0,.69-.68V51.82a.69.69,0,0,0-1.37,0v5.86A.68.68,0,0,0,364.41,58.36Z"/><path class="cls-15" d="M367.84,59.65a.69.69,0,0,0,.68-.68V53.11a.69.69,0,0,0-1.37,0V59A.69.69,0,0,0,367.84,59.65Z"/><path class="cls-15" d="M371.7,60.63a.69.69,0,0,0,.69-.69V54.09a.69.69,0,1,0-1.37,0v5.85A.69.69,0,0,0,371.7,60.63Z"/><path class="cls-15" d="M389.57,49a.69.69,0,0,0-.69.69v5.85a.69.69,0,0,0,.69.69.68.68,0,0,0,.68-.69V49.71A.68.68,0,0,0,389.57,49Z"/><path class="cls-15" d="M385.6,57.68a.69.69,0,0,0,1.37,0V51.82a.69.69,0,0,0-1.37,0v5.86Z"/><path class="cls-15" d="M382.17,59a.69.69,0,0,0,.69.68.68.68,0,0,0,.68-.68V53.11a.68.68,0,0,0-.68-.68.69.69,0,0,0-.69.68V59Z"/><path class="cls-15" d="M378.71,60.57a.88.88,0,0,0,.28.06.69.69,0,0,0,.69-.69h0V54.09a.69.69,0,1,0-1.37,0v5.85A.69.69,0,0,0,378.71,60.57Z"/><path class="cls-15" d="M374.79,60.44a.69.69,0,0,0,1.37,0V54.58a.63.63,0,0,0-.12-.37.67.67,0,0,0-1.13,0,.63.63,0,0,0-.12.37Z"/><path class="cls-29" d="M382.51,43.07V30.78h0c0-9.89-14.54-9.89-14.54,0h0V43.07C372.22,44.18,377.17,44,382.51,43.07Z"/><path class="cls-27" d="M377.76,117.47a2.33,2.33,0,0,1-.19.92,2.33,2.33,0,0,0,.19-.92v-5h0Z"/><path class="cls-30" d="M377.76,117.47a2.33,2.33,0,0,1-.19.92,2.33,2.33,0,0,0,.19-.92v-5h0Z"/><path class="cls-27" d="M379.13,111.58l0,0Z"/><path class="cls-30" d="M379.13,111.58l0,0Z"/><path class="cls-27" d="M377.57,118.39a1.87,1.87,0,0,1-.35.57A1.87,1.87,0,0,0,377.57,118.39Z"/><path class="cls-30" d="M377.57,118.39a1.87,1.87,0,0,1-.35.57A1.87,1.87,0,0,0,377.57,118.39Z"/><path class="cls-27" d="M380,110.63l-.1.14Z"/><path class="cls-30" d="M380,110.63l-.1.14Z"/><path class="cls-27" d="M371.33,111.6l0,0Z"/><path class="cls-30" d="M371.33,111.6l0,0Z"/><path class="cls-27" d="M377.07,119.13a2.37,2.37,0,0,1-.34.29A2.37,2.37,0,0,0,377.07,119.13Z"/><path class="cls-30" d="M377.07,119.13a2.37,2.37,0,0,1-.34.29A2.37,2.37,0,0,0,377.07,119.13Z"/><path class="cls-27" d="M380.3,110.16l-.14.23Z"/><path class="cls-30" d="M380.3,110.16l-.14.23Z"/><path class="cls-27" d="M381,108.42c0,.16-.08.32-.13.48C380.9,108.74,380.94,108.58,381,108.42Z"/><path class="cls-30" d="M381,108.42c0,.16-.08.32-.13.48C380.9,108.74,380.94,108.58,381,108.42Z"/><path class="cls-27" d="M381.11,107.19a4.89,4.89,0,0,1,0,.54A4.89,4.89,0,0,0,381.11,107.19Z"/><path class="cls-30" d="M381.11,107.19a4.89,4.89,0,0,1,0,.54A4.89,4.89,0,0,0,381.11,107.19Z"/><path class="cls-27" d="M381.06,107.88a2.57,2.57,0,0,1-.06.4A2.57,2.57,0,0,0,381.06,107.88Z"/><path class="cls-30" d="M381.06,107.88a2.57,2.57,0,0,1-.06.4A2.57,2.57,0,0,0,381.06,107.88Z"/><path class="cls-27" d="M380.8,109.05l-.12.33Z"/><path class="cls-30" d="M380.8,109.05l-.12.33Z"/><path class="cls-27" d="M370.55,110.77l-.1-.14Z"/><path class="cls-30" d="M370.55,110.77l-.1-.14Z"/><path class="cls-27" d="M380.6,109.57l-.13.28Z"/><path class="cls-30" d="M380.6,109.57l-.13.28Z"/><path class="cls-27" d="M370.28,110.39l-.14-.23Z"/><path class="cls-30" d="M370.28,110.39l-.14-.23Z"/><polygon class="cls-27" points="372.68 112.5 372.68 112.5 372.68 112.5 372.68 112.5"/><polygon class="cls-30" points="372.68 112.5 372.68 112.5 372.68 112.5 372.68 112.5"/><path class="cls-27" d="M369.44,108.28a2.76,2.76,0,0,1-.06-.4A2.57,2.57,0,0,0,369.44,108.28Z"/><path class="cls-30" d="M369.44,108.28a2.76,2.76,0,0,1-.06-.4A2.57,2.57,0,0,0,369.44,108.28Z"/><path class="cls-27" d="M369.59,108.9c0-.16-.09-.32-.13-.48C369.5,108.58,369.54,108.74,369.59,108.9Z"/><path class="cls-30" d="M369.59,108.9c0-.16-.09-.32-.13-.48C369.5,108.58,369.54,108.74,369.59,108.9Z"/><path class="cls-27" d="M369.76,109.38a2.19,2.19,0,0,1-.12-.33A2.19,2.19,0,0,0,369.76,109.38Z"/><path class="cls-30" d="M369.76,109.38a2.19,2.19,0,0,1-.12-.33A2.19,2.19,0,0,0,369.76,109.38Z"/><path class="cls-27" d="M370,109.85l-.13-.28Z"/><path class="cls-30" d="M370,109.85l-.13-.28Z"/><path class="cls-27" d="M369.33,93v14.15a4.89,4.89,0,0,0,0,.54,4.89,4.89,0,0,1,0-.54V89.34h0Z"/><path class="cls-30" d="M369.33,93v14.15a4.89,4.89,0,0,0,0,.54,4.89,4.89,0,0,1,0-.54V89.34h0Z"/><path class="cls-29" d="M369.33,107.19a4.89,4.89,0,0,0,0,.54.77.77,0,0,0,0,.15,2.76,2.76,0,0,0,.06.4s0,.09,0,.14.08.32.13.48a.88.88,0,0,0,.05.15,2.19,2.19,0,0,0,.12.33,1.54,1.54,0,0,0,.08.19l.13.28.17.31.14.23.17.24.1.14a7.2,7.2,0,0,0,.75.81l0,0a5.54,5.54,0,0,0,1.35.89h0v5a2.35,2.35,0,0,0,2.34,2.35h.4a2.24,2.24,0,0,0,1.65-.69,1.22,1.22,0,0,0,.15-.17,1.87,1.87,0,0,0,.35-.57,2.33,2.33,0,0,0,.19-.92v-5h0a5.74,5.74,0,0,0,1.35-.89l0,0a6.45,6.45,0,0,0,.76-.81l.1-.14.17-.24.14-.23.17-.31.13-.28a1.54,1.54,0,0,0,.08-.19l.12-.33a.88.88,0,0,0,.05-.15c0-.16.09-.32.13-.48s0-.09,0-.14a2.57,2.57,0,0,0,.06-.4s0-.1,0-.15a4.89,4.89,0,0,0,0-.54h0V89.34c-1.36,3.12-10.63,2.67-11.78,0Z"/><path class="cls-30" d="M369.33,107.19a4.89,4.89,0,0,0,0,.54.77.77,0,0,0,0,.15,2.76,2.76,0,0,0,.06.4s0,.09,0,.14.08.32.13.48a.88.88,0,0,0,.05.15,2.19,2.19,0,0,0,.12.33,1.54,1.54,0,0,0,.08.19l.13.28.17.31.14.23.17.24.1.14a7.2,7.2,0,0,0,.75.81l0,0a5.54,5.54,0,0,0,1.35.89h0v5a2.35,2.35,0,0,0,2.34,2.35h.4a2.24,2.24,0,0,0,1.65-.69,1.22,1.22,0,0,0,.15-.17,1.87,1.87,0,0,0,.35-.57,2.33,2.33,0,0,0,.19-.92v-5h0a5.74,5.74,0,0,0,1.35-.89l0,0a6.45,6.45,0,0,0,.76-.81l.1-.14.17-.24.14-.23.17-.31.13-.28a1.54,1.54,0,0,0,.08-.19l.12-.33a.88.88,0,0,0,.05-.15c0-.16.09-.32.13-.48s0-.09,0-.14a2.57,2.57,0,0,0,.06-.4s0-.1,0-.15a4.89,4.89,0,0,0,0-.54h0V89.34c-1.36,3.12-10.63,2.67-11.78,0Z"/><rect class="cls-2" x="2.02" y="204.19" width="25.22" height="11.89" rx="4.9" transform="translate(31.55 420.11) rotate(179.38)"/><rect class="cls-6" x="0.03" y="203.33" width="25.22" height="11.89" rx="4.9" transform="translate(27.55 418.41) rotate(179.38)"/><rect class="cls-12" x="0.01" y="201.6" width="25.22" height="11.89" rx="4.9" transform="matrix(-1, 0.01, -0.01, -1, 27.5, 414.95)"/><path class="cls-31" d="M365.31,145.1,215.84,232l105.7,60.61L471,205.72Z"/><polygon class="cls-6" points="442.01 207.68 358.79 159.95 366.16 155.67 449.39 203.4 442.01 207.68"/><polygon class="cls-6" points="361.25 206.58 319.63 182.71 327.01 178.43 368.62 202.29 361.25 206.58"/><polygon class="cls-6" points="341.77 217.9 300.15 194.04 307.53 189.75 349.14 213.62 341.77 217.9"/><polygon class="cls-6" points="319.39 230.91 277.78 207.04 285.15 202.76 326.77 226.62 319.39 230.91"/><polygon class="cls-6" points="326.27 283.73 280.78 257.65 287.07 253.99 332.56 280.07 326.27 283.73"/><polygon class="cls-6" points="439.57 222.54 336.88 163.65 341.23 161.12 443.93 220.01 439.57 222.54"/><polygon class="cls-6" points="347.06 276.32 244.37 217.43 248.72 214.89 351.42 273.79 347.06 276.32"/><path class="cls-19" d="M208,291.59a4.9,4.9,0,0,1,.6,1.9h0V294h0l0,3.75h0v.34h0c-.15,1.72-1.28,3.4-3.4,4.69-4.51,2.75-11.77,2.67-16.21-.18a8,8,0,0,1-.85-.6,7.72,7.72,0,0,0,2.66,2.69,16.72,16.72,0,0,0,16.21.17,6.33,6.33,0,0,0,3.4-4.68h0v-.35h0l0-3.75h0v-.49h0A5.94,5.94,0,0,0,208,291.59Z"/><path class="cls-6" d="M208.57,297.73Z"/><path class="cls-6" d="M205.15,302.76c2.12-1.29,3.25-3,3.4-4.69l-2.05,0a9,9,0,0,1-1.31,1c-4.51,2.75-11.77,2.67-16.21-.18a9.07,9.07,0,0,1-1.29-1l-2.05,0a5.92,5.92,0,0,0,2.45,4.16,8,8,0,0,0,.85.6C193.38,305.43,200.64,305.51,205.15,302.76Z"/><path class="cls-6" d="M208.61,293.49h0a4,4,0,0,1,0,.49Z"/><path class="cls-6" d="M187.69,297.85a5.4,5.4,0,0,1-2-4.61h0l-.05,4.58h0Z"/><path class="cls-6" d="M206.5,298.05l2.05,0h0v-.34h0l0-3.75A5.52,5.52,0,0,1,206.5,298.05Z"/><path class="cls-12" d="M187.69,297.85a9.07,9.07,0,0,0,1.29,1c4.44,2.85,11.7,2.93,16.21.18a9,9,0,0,0,1.31-1,5.52,5.52,0,0,0,2.11-4.07h0a4,4,0,0,0,0-.49,4.9,4.9,0,0,0-.6-1.9,7.59,7.59,0,0,0-2.68-2.71c-4.44-2.85-11.7-2.93-16.21-.18a6.4,6.4,0,0,0-3.38,4.54A5.4,5.4,0,0,0,187.69,297.85Zm3.57-8.26a12.23,12.23,0,0,1,11.86.13c3.25,2.09,3.21,5.4-.08,7.42a12.25,12.25,0,0,1-11.87-.13C187.92,294.92,188,291.6,191.26,289.59Z"/><path class="cls-6" d="M191.17,297a12.25,12.25,0,0,0,11.87.13c3.29-2,3.33-5.33.08-7.42a12.23,12.23,0,0,0-11.86-.13C188,291.6,187.92,294.92,191.17,297Zm12.26-6h0a1.13,1.13,0,0,1-.77,1.4l-11.21,3.29a1.13,1.13,0,1,1-.63-2.17L202,290.25A1.13,1.13,0,0,1,203.43,291Z"/><path class="cls-32" d="M190.82,293.54a1.13,1.13,0,1,0,.63,2.17l11.21-3.29a1.13,1.13,0,0,0,.77-1.4h0a1.13,1.13,0,0,0-1.4-.77Z"/><path class="cls-6" d="M20.74,199.06Z"/><path class="cls-6" d="M20.79,194.82h0a4,4,0,0,1,0,.49Z"/><path class="cls-2" d="M237.82,282.86l.36-.19h0l2.52-1.41,4-2.22h0l9.35-5.22a8,8,0,0,1,10.77,2.92,7.69,7.69,0,0,1-3,10.57l-9.15,5.1h0l-2.34,1.31-.35.19h0l-.85.47-3.53,2a8,8,0,0,1-10.78-2.91h0A7.71,7.71,0,0,1,237.82,282.86Z"/><path class="cls-12" d="M258.65,285.3l-16.56,9.4a8.28,8.28,0,0,1-11.25-3.09h0a8.28,8.28,0,0,1,3.1-11.25L250.5,271a8.27,8.27,0,0,1,11.24,3.1h0A8.28,8.28,0,0,1,258.65,285.3Z"/><path class="cls-7" d="M233.57,280.57l4.57-2.6a8.28,8.28,0,0,1,11.25,3.1h0a8.28,8.28,0,0,1-3.1,11.25l-.88.5-3.69,2.09a8.26,8.26,0,0,1-11.24-3.1h0A8.27,8.27,0,0,1,233.57,280.57Z"/><path class="cls-7" d="M234.82,279.86l5.92-3.36c3.94-2.24,7.65-.08,9.89,3.86h0c2.24,3.95,2.41,8.12-1.53,10.36l-2.45,1.39-3.68,2.1a8.28,8.28,0,0,1-11.25-3.1h0A8.28,8.28,0,0,1,234.82,279.86Z"/><path class="cls-33" d="M241,286.37l17.65-9.31a1.67,1.67,0,0,0,.7-2.26h0a1.68,1.68,0,0,0-2.26-.71l-17.65,9.31a1.68,1.68,0,0,0-.7,2.27h0A1.68,1.68,0,0,0,241,286.37Z"/></g></g></g></svg>