<svg xmlns="http://www.w3.org/2000/svg" xmlns:xlink="http://www.w3.org/1999/xlink" viewBox="0 0 517.69 265.33"><defs><style>.cls-1{isolation:isolate;}.cls-2,.cls-7{fill:#a8e5ba;}.cls-2,.cls-6{mix-blend-mode:multiply;}.cls-3{fill:#2b7c47;}.cls-4{fill:url(#linear-gradient);}.cls-5{fill:url(#linear-gradient-2);}.cls-6{opacity:0.4;}.cls-8{fill:#38ba88;}.cls-9{fill:url(#linear-gradient-3);}.cls-10{fill:#e1e8ef;}.cls-11{fill:#3a61d6;}.cls-12{fill:#fff;}.cls-13{fill:#34a862;}.cls-14{fill:#284f38;}.cls-15{fill:url(#linear-gradient-4);}.cls-16{fill:#3d9365;}.cls-17{fill:url(#linear-gradient-5);}.cls-18{fill:url(#linear-gradient-6);}.cls-19{fill:url(#linear-gradient-7);}.cls-20{fill:url(#linear-gradient-8);}.cls-21{fill:url(#linear-gradient-9);}.cls-22{fill:url(#linear-gradient-10);}.cls-23{fill:url(#linear-gradient-11);}.cls-24{fill:url(#linear-gradient-12);}.cls-25{fill:url(#linear-gradient-13);}.cls-26{fill:url(#linear-gradient-14);}.cls-27{fill:url(#linear-gradient-15);}.cls-28{fill:url(#linear-gradient-16);}.cls-29{fill:url(#linear-gradient-17);}.cls-30{fill:url(#linear-gradient-18);}.cls-31{fill:#fcfeff;}.cls-32{fill:url(#linear-gradient-19);}.cls-33{fill:#e1eaf4;}.cls-34{fill:url(#linear-gradient-20);}.cls-35{fill:url(#linear-gradient-21);}.cls-36{fill:url(#linear-gradient-22);}</style><linearGradient id="linear-gradient" x1="401.1" y1="94.2" x2="89.1" y2="136.87" gradientUnits="userSpaceOnUse"><stop offset="0" stop-color="#74d3aa"/><stop offset="1" stop-color="#058f8f"/></linearGradient><linearGradient id="linear-gradient-2" x1="433.75" y1="116.31" x2="-327.14" y2="94.98" gradientUnits="userSpaceOnUse"><stop offset="0" stop-color="#fff"/><stop offset="1" stop-color="#bbdede"/></linearGradient><linearGradient id="linear-gradient-3" x1="334.13" y1="197.36" x2="509.31" y2="197.36" gradientUnits="userSpaceOnUse"><stop offset="0" stop-color="#a3ffb1"/><stop offset="1" stop-color="#4d8c88"/></linearGradient><linearGradient id="linear-gradient-4" x1="153.6" y1="47.77" x2="-182.4" y2="59.77" xlink:href="#linear-gradient-2"/><linearGradient id="linear-gradient-5" x1="149.46" y1="21.03" x2="-20.76" y2="40.14" xlink:href="#linear-gradient-3"/><linearGradient id="linear-gradient-6" x1="150.97" y1="34.52" x2="-19.25" y2="53.63" xlink:href="#linear-gradient-3"/><linearGradient id="linear-gradient-7" x1="152.49" y1="48" x2="-17.74" y2="67.11" xlink:href="#linear-gradient-3"/><linearGradient id="linear-gradient-8" x1="150.13" y1="27.01" x2="-20.09" y2="46.12" xlink:href="#linear-gradient-3"/><linearGradient id="linear-gradient-9" x1="151.64" y1="40.5" x2="-18.58" y2="59.61" xlink:href="#linear-gradient-3"/><linearGradient id="linear-gradient-10" x1="153.16" y1="53.98" x2="-17.06" y2="73.1" xlink:href="#linear-gradient-3"/><linearGradient id="linear-gradient-11" x1="150.8" y1="32.99" x2="-19.42" y2="52.11" xlink:href="#linear-gradient-3"/><linearGradient id="linear-gradient-12" x1="152.32" y1="46.48" x2="-17.91" y2="65.59" xlink:href="#linear-gradient-3"/><linearGradient id="linear-gradient-13" x1="153.83" y1="59.97" x2="-16.39" y2="79.08" xlink:href="#linear-gradient-3"/><linearGradient id="linear-gradient-14" x1="151.47" y1="38.98" x2="-18.75" y2="58.09" xlink:href="#linear-gradient-3"/><linearGradient id="linear-gradient-15" x1="152.99" y1="52.46" x2="-17.23" y2="71.57" xlink:href="#linear-gradient-3"/><linearGradient id="linear-gradient-16" x1="154.5" y1="65.95" x2="-15.72" y2="85.06" xlink:href="#linear-gradient-3"/><linearGradient id="linear-gradient-17" x1="152.14" y1="44.96" x2="-18.08" y2="64.07" xlink:href="#linear-gradient-3"/><linearGradient id="linear-gradient-18" x1="153.66" y1="58.44" x2="-16.56" y2="77.55" xlink:href="#linear-gradient-3"/><linearGradient id="linear-gradient-19" x1="253.7" y1="98.72" x2="252.37" y2="116.5" xlink:href="#linear-gradient"/><linearGradient id="linear-gradient-20" x1="7" y1="197.09" x2="106.51" y2="197.09" gradientUnits="userSpaceOnUse"><stop offset="0" stop-color="#a3ffb1"/><stop offset="0" stop-color="#a2feb1"/><stop offset="0.13" stop-color="#88dba4"/><stop offset="0.26" stop-color="#73be9a"/><stop offset="0.4" stop-color="#62a892"/><stop offset="0.55" stop-color="#56988c"/><stop offset="0.72" stop-color="#4f8f89"/><stop offset="0.96" stop-color="#4d8c88"/></linearGradient><linearGradient id="linear-gradient-21" x1="113.62" y1="213.68" x2="98.29" y2="244.35" xlink:href="#linear-gradient-20"/><linearGradient id="linear-gradient-22" x1="135.81" y1="224.78" x2="120.48" y2="255.44" xlink:href="#linear-gradient-20"/></defs><title>Asset 2</title><g class="cls-1"><g id="Layer_2" data-name="Layer 2"><g id="image"><path class="cls-2" d="M220.76,235.49,69.06,147.9c-5.46-3.15-4.7-8.76,1.68-12.54L279.79,11.47c6.38-3.78,16-4.3,21.43-1.15l151.7,87.59c5.45,3.15,4.7,8.76-1.68,12.54L242.18,234.34C235.8,238.12,226.21,238.63,220.76,235.49Z"/><path class="cls-3" d="M445.58,95.24a9.1,9.1,0,0,0-2-1.58L291.85,6.08c-5.45-3.15-15.05-2.64-21.43,1.15l-209,123.88a17.61,17.61,0,0,0-1.93,1.34l-3.39,1.6.07,5a6.57,6.57,0,0,0,3.57,4.59l151.7,87.58c5.45,3.15,15.05,2.64,21.43-1.14L441.87,106.21c3.31-2,5.1-4.42,5.29-6.77l0-4Z"/><path class="cls-4" d="M211.39,227.23,59.69,139.64c-5.45-3.15-4.7-8.76,1.68-12.54L270.42,3.21c6.39-3.78,16-4.3,21.43-1.15l151.7,87.59c5.45,3.15,4.7,8.76-1.68,12.54l-209,123.89C226.44,229.86,216.84,230.37,211.39,227.23Z"/><polygon class="cls-5" points="220.76 213.84 74.92 129.63 284.5 8.63 430.35 92.84 220.76 213.84"/><path class="cls-2" d="M394.29,61.34l-5-2.88h0c5.88-3.39,5.88-8.9,0-12.29l-27-15.6c-5.88-3.39-15.41-3.39-21.29,0l-3.35-1.93c-6.12-3.53-16-3.53-22.16,0h0c-6.12,3.53-6.12,9.26,0,12.79l56.64,32.7c6.12,3.54,16,3.54,22.16,0h0C400.41,70.6,400.41,64.87,394.29,61.34Z"/><g class="cls-6"><path class="cls-2" d="M494.64,170.36,409.3,155.63l-50.25,39c-22.08,17.57-27.88,39.26-5.13,56.74l.2.08.13.11c30.27,13.13,67.84,9.79,98.28-3L514,222.09a6,6,0,0,0,3-8.31Z"/><path class="cls-7" d="M353.92,251.32l-.22-.08.26.15.17.09.26.16-.14-.13-.19-.08Z"/></g><path class="cls-8" d="M489,169.3l-83.45-14.41L356.43,193c-21.6,17.19-27.26,38.4-5,55.49a1.93,1.93,0,0,1,.32.19c29.6,12.84,66.34,9.57,96.11-2.9l56.44-24.15c2.05-.88,3.81-2.26,4.06-4.77l.9-9.4Z"/><path class="cls-9" d="M482.85,159.93l-75.57-13.05a11.05,11.05,0,0,0-8.67,2.16l-45.29,35.1c-21.59,17.18-27.26,38.39-5,55.49.06,0,.11.07.18.1s.09,0,.14.08c29.6,12.84,66.34,9.57,96.11-2.89l62.36-26.83a3.66,3.66,0,0,0,1.81-5l-21.57-41.83A6.24,6.24,0,0,0,482.85,159.93Z"/><path class="cls-10" d="M471.41,168.7l-66.34-10.43-39.38,30.28c-17.31,13.67-22.16,30.4-4.95,43.73l.15.05.1.09c23.08,9.94,52.07,7.14,75.73-2.86l52.46-22.73Z"/><path class="cls-11" d="M360.74,232.28l-.16-.07.2.12.12.07.2.12-.11-.1-.14-.06Z"/><path class="cls-12" d="M463.62,171.68l-99.41,57.39c-15.21-12-10.8-27,4.74-39.27l35.58-27.36Z"/><path class="cls-13" d="M303,67c8.62-5,9-12.78.94-17.46-4.56-2.64-10.84-3.73-17-3.28.78-3.56-1.08-7.19-5.63-9.83-8.1-4.69-22.24-4.1-30.86.85a26.5,26.5,0,0,0-4.7,3.57h0s.52-.28.48-.24a8.44,8.44,0,0,0-2.08,4.27c-2.82,9.42,2.53,23.91,2.53,23.91,32.13,5.5,45.19,1.93,45.19,1.93l.86-.16C295.41,69.88,300.73,68.26,303,67Z"/><path class="cls-2" d="M66.26,101.62,8.81,68.69c-2.69-1.55-2.48-4.2.48-5.93l79.89-46.6c3-1.72,7.55-1.87,10.25-.32l57.45,32.93c2.7,1.54,2.49,4.2-.47,5.92l-79.9,46.6C73.55,103,69,103.16,66.26,101.62Z"/><path class="cls-14" d="M151.85,43.12h-6.33v3.1l-53-30.38c-2.7-1.55-7.29-1.4-10.25.32L6.13,60.56V57.64H0V66H0a3.25,3.25,0,0,0,1.88,2.66l57.45,32.93c2.7,1.54,7.29,1.4,10.25-.33l79.9-46.6c1.63-.95,2.42-2.18,2.36-3.36h0Z"/><path class="cls-15" d="M59.34,93.43,1.89,60.5c-2.7-1.55-2.48-4.2.48-5.93L82.26,8c3-1.73,7.55-1.87,10.25-.33L150,40.58c2.7,1.55,2.49,4.2-.47,5.93l-79.9,46.6C66.63,94.83,62,95,59.34,93.43Z"/><polygon class="cls-16" points="127.5 52.12 72.88 20.81 88.11 11.92 142.73 43.23 127.5 52.12"/><polygon class="cls-12" points="128.87 46.85 81.98 19.97 88.61 16.1 135.5 42.98 128.87 46.85"/><polygon class="cls-17" points="74.79 36.78 59.92 28.26 69.56 22.64 84.43 31.16 74.79 36.78"/><polygon class="cls-18" points="94.72 48.2 79.85 39.68 89.49 34.06 104.36 42.57 94.72 48.2"/><polygon class="cls-19" points="114.64 59.62 99.78 51.1 109.42 45.48 124.28 53.99 114.64 59.62"/><polygon class="cls-20" points="61.93 44.28 47.07 35.76 56.71 30.14 71.57 38.66 61.93 44.28"/><polygon class="cls-21" points="81.86 55.7 67 47.18 76.64 41.56 91.5 50.07 81.86 55.7"/><polygon class="cls-22" points="101.79 67.12 86.92 58.6 96.56 52.97 111.43 61.49 101.79 67.12"/><polygon class="cls-23" points="49.08 51.78 34.21 43.26 43.85 37.64 58.72 46.16 49.08 51.78"/><polygon class="cls-24" points="69 63.2 54.14 54.68 63.78 49.06 78.65 57.57 69 63.2"/><polygon class="cls-25" points="88.93 74.62 74.07 66.1 83.71 60.47 98.58 68.99 88.93 74.62"/><polygon class="cls-26" points="36.22 59.28 21.36 50.76 31 45.14 45.86 53.66 36.22 59.28"/><polygon class="cls-27" points="56.15 70.7 41.28 62.18 50.93 56.56 65.79 65.07 56.15 70.7"/><polygon class="cls-28" points="76.08 82.12 61.21 73.6 70.86 67.97 85.72 76.49 76.08 82.12"/><polygon class="cls-29" points="23.37 66.78 8.5 58.26 18.14 52.64 33.01 61.16 23.37 66.78"/><polygon class="cls-30" points="43.3 78.2 28.43 69.68 38.07 64.06 52.94 72.57 43.3 78.2"/><polygon class="cls-16" points="62.83 90.79 46.28 81.31 57.01 75.05 73.56 84.53 62.83 90.79"/><path class="cls-3" d="M397,211.68c-14.76-7.82-15.37-21.29-1.36-30.08S433,172,447.79,179.83s15.38,21.29,1.37,30.08S411.81,219.5,397,211.68Z"/><path class="cls-31" d="M401.18,187.15l6.68-4.19a2.16,2.16,0,0,1,2.16-.08l33.5,17.74a2.16,2.16,0,0,1,.13,3.74L437,208.55a2.17,2.17,0,0,1-2.16.08l-33.5-17.74A2.16,2.16,0,0,1,401.18,187.15Z"/><path class="cls-31" d="M435.77,182l7.07,3.75a2.16,2.16,0,0,1,.14,3.74l-31.75,19.92a2.17,2.17,0,0,1-2.16.08L402,205.76a2.17,2.17,0,0,1-.14-3.75l31.75-19.92A2.17,2.17,0,0,1,435.77,182Z"/><path class="cls-13" d="M384.45,107.64,317.67,68a3.71,3.71,0,0,1-.11-6.3h0a3.7,3.7,0,0,1,3.9-.07l66.77,39.66a3.71,3.71,0,0,1,.11,6.3h0A3.71,3.71,0,0,1,384.45,107.64Z"/><path class="cls-10" d="M329.5,131.21,262.73,91.55l-.37-.19L208.61,59.43a3.71,3.71,0,0,0-3.79,6.37l66.77,39.66.37.19,53.76,31.93a3.7,3.7,0,0,0,3.78-6.37Z"/><path class="cls-10" d="M307.67,146.69,240.9,107c-.12-.07-.24-.12-.37-.18L186.78,74.91A3.71,3.71,0,0,0,183,81.28l66.78,39.66a2.42,2.42,0,0,0,.36.18l53.76,31.93a3.7,3.7,0,0,0,3.78-6.36Z"/><path class="cls-10" d="M285.84,162.16,219.07,122.5a2.53,2.53,0,0,0-.37-.18L165,90.39a3.7,3.7,0,1,0-3.78,6.36l66.77,39.67c.12.07.24.12.37.18l53.75,31.93a3.7,3.7,0,1,0,3.78-6.37Z"/><path class="cls-13" d="M371.52,119.17,304.75,79.51a3.71,3.71,0,0,1-.11-6.3h0a3.73,3.73,0,0,1,3.9-.07l66.77,39.66a3.71,3.71,0,0,1,.11,6.3h0A3.7,3.7,0,0,1,371.52,119.17Z"/><path class="cls-13" d="M227.33,192.58,194.3,173a3.7,3.7,0,0,0-4.82.91h0a3.7,3.7,0,0,0,1,5.45L223.67,199a3.7,3.7,0,1,0,3.66-6.44Z"/><path class="cls-13" d="M244.37,181.85l-50.43-30a3.7,3.7,0,0,0-4.8.89h0a3.71,3.71,0,0,0,1,5.48l50.55,30a3.7,3.7,0,1,0,3.66-6.43Z"/><path class="cls-2" d="M314.07,119.36l-.37-11.7a4.86,4.86,0,0,0-5-4.68l-1.65,0a4.82,4.82,0,0,0-4,2.36L198,109.58a8.76,8.76,0,0,0-6.75,3.62l-.21-.08A20.72,20.72,0,0,0,172,115l-6,3.87-2.64,1.75a.75.75,0,0,0,.09,1.32l2.81,1.33,7.14,3.13a20.75,20.75,0,0,0,17.72-.5l1.56-.79a8.74,8.74,0,0,0,5.91,2L300.56,123a10.37,10.37,0,0,1-3,5.63,10.9,10.9,0,0,1-7.29,3L245,133.1a2.07,2.07,0,1,0,.14,4.14l45.59-1.47a14.43,14.43,0,0,0,13.87-12.37,4.84,4.84,0,0,0,3.11,1l1.65,0A4.86,4.86,0,0,0,314.07,119.36Z"/><path class="cls-3" d="M196.7,109.07l-3-1.19a20.75,20.75,0,0,0-19,1.87l-6,3.87-2.65,1.75a.77.77,0,0,0,.1,1.33l2.81,1.33,7.14,3.13a20.75,20.75,0,0,0,17.72-.5l3.38-1.72Z"/><path class="cls-32" d="M312.68,117.42l-111.3,4.44a8.77,8.77,0,0,1-9.11-8.48h0a8.76,8.76,0,0,1,8.41-9l110.56-4.42Z"/><rect class="cls-16" x="300.25" y="102.79" width="21.39" height="11.33" rx="4.84" transform="translate(409.32 -205.82) rotate(88.15)"/><path class="cls-3" d="M245.76,130h0a2.06,2.06,0,0,1,2-2.13L293,126.41a10.86,10.86,0,0,0,7.29-3,10.36,10.36,0,0,0,3.14-7.79L303,101.06l4.13-.14.46,14.14a15.12,15.12,0,0,1-3.65,10.58,14.46,14.46,0,0,1-10.42,4.89L247.89,132A2.06,2.06,0,0,1,245.76,130Z"/><path class="cls-10" d="M394.29,56.51l-5-2.88h0c5.88-3.39,5.88-8.9,0-12.29l-27-15.6c-5.88-3.39-15.41-3.39-21.29,0l-3.35-1.93c-6.12-3.53-16-3.53-22.16,0h0c-6.12,3.53-6.12,9.26,0,12.79l56.64,32.7c6.12,3.54,16,3.54,22.16,0h0C400.41,65.77,400.41,60,394.29,56.51Z"/><path class="cls-12" d="M378.81,55.38,337.46,30.81a2.28,2.28,0,0,1-.07-3.89h0a2.28,2.28,0,0,1,2.41-.05l41.35,24.56a2.29,2.29,0,0,1,.07,3.9h0A2.3,2.3,0,0,1,378.81,55.38Z"/><path class="cls-2" d="M8.36,202.85C6.29,215.84,20.43,228.27,43,232c17,2.81,34.49-.06,46.4-6.65l11,6.37A12.45,12.45,0,0,0,100,234c-.24,2.92.79,4.93,2.58,5.7h0l41.63,24.91c.15.11.11.2.28.29l-.14,0h0a6.35,6.35,0,0,0,5.39-.39c4.61-2.2,8.77-8.1,9.17-13.18.21-2.7-.6-4.62-2.15-5.5h0l-41.9-25h0c-1.38-1-3.43-1.13-5.81,0a13.5,13.5,0,0,0-3.15,2.14l-7.59-4.39a23.2,23.2,0,0,0,4-5.58,16.65,16.65,0,0,0,1.65-10.15c2.07-13-12.06-25.42-34.6-29.14-25.47-4.2-52,4.31-59.31,19A16.67,16.67,0,0,0,8.36,202.85ZM81.2,215.36c.85-.46,1.67-.94,2.45-1.45C82.87,214.42,82.05,214.9,81.2,215.36Zm-57.13-6.08a17.77,17.77,0,0,1-1.39-1.84,15.14,15.14,0,0,1-1.51-2.9,15.14,15.14,0,0,0,1.51,2.9A17.77,17.77,0,0,0,24.07,209.28Zm53,8c-1,.38-1.94.73-3,1.06s-1.84.55-2.78.8c.94-.25,1.87-.51,2.78-.8S76.16,217.62,77.11,217.24Zm-14.42,3.39c-1.73.18-3.5.28-5.28.3C59.19,220.91,61,220.81,62.69,220.63Zm-8.86.25a63.52,63.52,0,0,1-7.23-.75A47.16,47.16,0,0,1,31.19,215a47.16,47.16,0,0,0,15.41,5.17A63.52,63.52,0,0,0,53.83,220.88Zm-25-7.41a24.82,24.82,0,0,1-2.11-1.6A24.82,24.82,0,0,0,28.82,213.47Z"/><path class="cls-16" d="M41.8,228.77c25.48,4.21,52-4.31,59.31-19s-7.47-30-32.94-34.24-52,4.31-59.31,19S16.33,224.57,41.8,228.77ZM45.45,222c-19.25-3.17-30.39-14.75-24.89-25.86s25.56-17.55,44.8-14.37,30.39,14.75,24.89,25.86S64.69,225.14,45.45,222Z"/><polygon class="cls-33" points="115.19 237.7 125.55 231.72 89.96 211.18 79.61 217.15 115.19 237.7"/><path class="cls-34" d="M41.8,223.72c25.48,4.21,52-4.31,59.31-19s-7.47-30-32.94-34.24-52,4.31-59.31,19S16.33,219.52,41.8,223.72Zm3.65-6.8c-19.25-3.18-30.39-14.76-24.89-25.87s25.56-17.55,44.8-14.37,30.39,14.75,24.89,25.86S64.69,220.09,45.45,216.92Z"/><path class="cls-35" d="M98.25,231.73c-.41,5.08,3,7.42,7.61,5.23a17.66,17.66,0,0,0,9.06-13.18c.41-5.08-3-7.43-7.61-5.23A17.66,17.66,0,0,0,98.25,231.73Z"/><polygon class="cls-36" points="155.06 243.59 113.14 218.54 100.83 237.43 143 262.66 155.06 243.59"/><ellipse class="cls-16" cx="148.92" cy="253.06" rx="11.31" ry="6.53" transform="translate(-143.97 232.25) rotate(-55.46)"/><path class="cls-12" d="M44.87,196.32l26.36,2.58a2.47,2.47,0,0,0,2.69-2.21h0A2.47,2.47,0,0,0,71.71,194l-26.36-2.58a2.45,2.45,0,0,0-2.69,2.21h0A2.47,2.47,0,0,0,44.87,196.32Z"/><path class="cls-12" d="M46.24,188.8l26.36,2.58c1.35.13,2.42-.4,2.39-1.2h0c0-.8-1.15-1.55-2.5-1.68l-26.36-2.59c-1.35-.13-2.42.41-2.39,1.21h0C43.77,187.91,44.89,188.67,46.24,188.8Z"/></g></g></g></svg>