<svg xmlns="http://www.w3.org/2000/svg" viewBox="0 0 159.78 97.11"><defs><style>.cls-1{isolation:isolate;}.cls-2,.cls-3{fill:none;stroke:#39b54a;stroke-miterlimit:10;}.cls-2{mix-blend-mode:multiply;}</style></defs><title>Asset 1</title><g class="cls-1"><g id="Layer_2" data-name="Layer 2"><g id="image"><path class="cls-2" d="M66.76,95.53,9.31,62.61c-2.69-1.55-2.48-4.21.48-5.93l79.89-46.6c3-1.73,7.55-1.87,10.25-.32l57.45,32.93c2.7,1.54,2.49,4.2-.47,5.92L77,95.21C74.05,96.94,69.46,97.08,66.76,95.53Z"/><path class="cls-3" d="M152.35,37H146v3.1L93,9.76c-2.7-1.55-7.29-1.41-10.25.32L6.63,54.48V51.56H.51V60h0a3.25,3.25,0,0,0,1.88,2.66L59.84,95.53c2.7,1.55,7.29,1.41,10.25-.32L150,48.61c1.63-1,2.42-2.18,2.36-3.36h0Z"/><path class="cls-3" d="M59.84,87.35,2.39,54.42c-2.7-1.55-2.48-4.2.48-5.93L82.76,1.9C85.72.17,90.31,0,93,1.57L150.46,34.5c2.7,1.55,2.49,4.2-.47,5.93L70.09,87C67.13,88.75,62.54,88.9,59.84,87.35Z"/><polygon class="cls-3" points="128 46.04 73.38 14.73 88.61 5.84 143.23 37.15 128 46.04"/><polygon class="cls-3" points="129.37 40.77 82.48 13.89 89.11 10.02 136 36.9 129.37 40.77"/><polygon class="cls-3" points="75.29 30.7 60.42 22.18 70.06 16.56 84.93 25.07 75.29 30.7"/><polygon class="cls-3" points="95.22 42.12 80.35 33.6 89.99 27.98 104.86 36.49 95.22 42.12"/><polygon class="cls-3" points="115.14 53.54 100.28 45.02 109.92 39.39 124.78 47.91 115.14 53.54"/><polygon class="cls-3" points="62.43 38.2 47.57 29.68 57.21 24.06 72.07 32.57 62.43 38.2"/><polygon class="cls-3" points="82.36 49.62 67.5 41.1 77.14 35.48 92 43.99 82.36 49.62"/><polygon class="cls-3" points="102.29 61.04 87.42 52.52 97.06 46.89 111.93 55.41 102.29 61.04"/><polygon class="cls-3" points="49.58 45.7 34.71 37.18 44.35 31.56 59.22 40.07 49.58 45.7"/><polygon class="cls-3" points="69.5 57.12 54.64 48.6 64.28 42.98 79.15 51.49 69.5 57.12"/><polygon class="cls-3" points="89.43 68.54 74.57 60.02 84.21 54.39 99.08 62.91 89.43 68.54"/><polygon class="cls-3" points="36.72 53.2 21.86 44.68 31.5 39.06 46.36 47.57 36.72 53.2"/><polygon class="cls-3" points="56.65 64.62 41.78 56.1 51.43 50.48 66.29 58.99 56.65 64.62"/><polygon class="cls-3" points="76.58 76.03 61.71 67.52 71.36 61.89 86.22 70.41 76.58 76.03"/><polygon class="cls-3" points="23.87 60.7 9 52.18 18.64 46.56 33.51 55.07 23.87 60.7"/><polygon class="cls-3" points="43.8 72.12 28.93 63.6 38.57 57.97 53.44 66.49 43.8 72.12"/><polygon class="cls-3" points="63.33 84.71 46.78 75.23 57.51 68.96 74.06 78.45 63.33 84.71"/></g></g></g></svg>