<svg xmlns="http://www.w3.org/2000/svg" xmlns:xlink="http://www.w3.org/1999/xlink" viewBox="0 0 136.89 136.89"><defs><style>.cls-1{fill:url(#linear-gradient);}.cls-2{fill:url(#linear-gradient-2);}.cls-3{fill:url(#linear-gradient-3);}.cls-4{fill:url(#linear-gradient-4);}.cls-5{fill:none;}</style><linearGradient id="linear-gradient" x1="108.22" y1="-21.67" x2="4.22" y2="88.55" gradientUnits="userSpaceOnUse"><stop offset="0" stop-color="#74d3aa"/><stop offset="1" stop-color="#058f8f"/></linearGradient><linearGradient id="linear-gradient-2" x1="146.73" y1="14.67" x2="42.73" y2="124.89" xlink:href="#linear-gradient"/><linearGradient id="linear-gradient-3" x1="129.39" y1="-1.69" x2="25.39" y2="108.53" xlink:href="#linear-gradient"/><linearGradient id="linear-gradient-4" x1="174.02" y1="40.41" x2="70.02" y2="150.64" xlink:href="#linear-gradient"/></defs><title>ins1</title><g id="Layer_2" data-name="Layer 2"><g id="image"><polygon class="cls-1" points="76.35 28.77 81.76 17.94 55.13 17.94 60.54 28.77 76.35 28.77"/><path class="cls-2" d="M74.63,88a1.82,1.82,0,0,1-1,.29H59.43a5.42,5.42,0,0,0,0,10.83H82.87v3.6H55.82a1.75,1.75,0,0,1-.81-.19L26.91,88.45a6.05,6.05,0,0,0-6.35.57,6.41,6.41,0,0,0-2.62,5.11v.2a6.24,6.24,0,0,0,3.26,5.48l30.63,16.7a19.78,19.78,0,0,0,9.51,2.43h43.18V89.16a25.19,25.19,0,0,0-6.08-3.49A25.64,25.64,0,0,0,74.63,88Z"/><path class="cls-3" d="M50.41,93.69a9,9,0,0,1,9-9H73.11A29.21,29.21,0,0,1,97.3,81.45V52.21A19.81,19.81,0,0,0,77.52,32.37H59.43A19.87,19.87,0,0,0,39.59,52.21V90.77L50.82,96.4A9.23,9.23,0,0,1,50.41,93.69ZM64.84,48.61h1.8V45h3.61v3.61h7.21v3.6H64.84a3.61,3.61,0,0,0,0,7.22h7.21a7.22,7.22,0,1,1,0,14.43h-1.8v3.6H66.64v-3.6H59.43V70.25H72.05a3.61,3.61,0,0,0,0-7.22H64.84a7.21,7.21,0,1,1,0-14.42ZM55.37,36.49l.9,3.5a12.43,12.43,0,0,0-3.16,1.29l-1.8-3.12A16.17,16.17,0,0,1,55.37,36.49ZM46.8,59.43H43.19V52.21a16.12,16.12,0,0,1,4.93-11.64l2.52,2.59a12.52,12.52,0,0,0-3.84,9.05Z"/><path class="cls-4" d="M108.12,90.09v28.85h10.82V90.09Zm7.22,23.44h-3.61v-3.6h3.61Z"/><rect class="cls-5" width="136.89" height="136.89"/></g></g></svg>