<svg xmlns="http://www.w3.org/2000/svg" xmlns:xlink="http://www.w3.org/1999/xlink" viewBox="0 0 136.89 136.89"><defs><style>.cls-1{fill:url(#linear-gradient);}.cls-2{fill:url(#linear-gradient-2);}.cls-3{fill:url(#linear-gradient-3);}.cls-4{fill:url(#linear-gradient-4);}.cls-5{fill:url(#linear-gradient-5);}.cls-6{fill:url(#linear-gradient-6);}.cls-7{fill:url(#linear-gradient-7);}.cls-8{fill:url(#linear-gradient-8);}.cls-9{fill:url(#linear-gradient-9);}.cls-10{fill:url(#linear-gradient-10);}.cls-11{fill:none;}</style><linearGradient id="linear-gradient" x1="128.73" y1="15.1" x2="32.73" y2="99.1" gradientUnits="userSpaceOnUse"><stop offset="0" stop-color="#74d3aa"/><stop offset="1" stop-color="#058f8f"/></linearGradient><linearGradient id="linear-gradient-2" x1="131.1" y1="17.81" x2="35.1" y2="101.81" xlink:href="#linear-gradient"/><linearGradient id="linear-gradient-3" x1="90.57" y1="-28.5" x2="-5.43" y2="55.5" xlink:href="#linear-gradient"/><linearGradient id="linear-gradient-4" x1="98.72" y1="-19.19" x2="2.72" y2="64.81" xlink:href="#linear-gradient"/><linearGradient id="linear-gradient-5" x1="103.43" y1="-13.81" x2="7.43" y2="70.19" xlink:href="#linear-gradient"/><linearGradient id="linear-gradient-6" x1="113.89" y1="-1.85" x2="17.89" y2="82.15" xlink:href="#linear-gradient"/><linearGradient id="linear-gradient-7" x1="151.06" y1="40.63" x2="55.06" y2="124.63" xlink:href="#linear-gradient"/><linearGradient id="linear-gradient-8" x1="148.42" y1="37.6" x2="52.42" y2="121.6" xlink:href="#linear-gradient"/><linearGradient id="linear-gradient-9" x1="148.04" y1="37.18" x2="52.04" y2="121.18" xlink:href="#linear-gradient"/><linearGradient id="linear-gradient-10" x1="160.93" y1="51.91" x2="64.93" y2="135.91" xlink:href="#linear-gradient"/></defs><title>ins2</title><g id="Layer_2" data-name="Layer 2"><g id="image"><path class="cls-1" d="M75.67,53.14a4.23,4.23,0,0,0,4.21-4.25,4.33,4.33,0,0,0-.44-1.84l6.13-5.52a4.2,4.2,0,0,0,3.89.32l7.09,8.84a4.23,4.23,0,1,0,6.6-.38L111,37.78a4.24,4.24,0,1,0-2-1.24l-7.8,12.54a4.27,4.27,0,0,0-2.82.16l-7.09-8.8a4.24,4.24,0,1,0-7.25-.59l-6.13,5.52a4.23,4.23,0,1,0-2.25,7.82ZM112.21,31.8a1.9,1.9,0,1,1,.19,3.8h-.19a1.91,1.91,0,0,1,0-3.82Zm-14,20.89a1.92,1.92,0,0,1,1.66-1.44H100a1.92,1.92,0,0,1,1.79,1.19,1.69,1.69,0,0,1,.13.66,1.91,1.91,0,0,1-3.82,0,3.12,3.12,0,0,1,.06-.41ZM87.85,36a1.91,1.91,0,1,1,0,3.82h0A1.92,1.92,0,0,1,86,38.09V38A1.91,1.91,0,0,1,87.85,36ZM75.67,47a1.92,1.92,0,0,1,1.9,1.77V49A1.91,1.91,0,1,1,75.66,47h0Z"/><path class="cls-2" d="M42.94,72.44a22.5,22.5,0,1,0,22.5,22.5A22.51,22.51,0,0,0,42.94,72.44Zm1.35,21.15V73.83A21.19,21.19,0,0,1,64.05,93.59Z"/><rect class="cls-3" x="20.44" y="19.44" width="21.01" height="8.44"/><rect class="cls-4" x="20.44" y="31.63" width="30.73" height="8.44"/><rect class="cls-5" x="20.44" y="43.82" width="24.58" height="8.44"/><rect class="cls-6" x="20.44" y="56" width="45" height="8.44"/><rect class="cls-7" x="71.44" y="94.94" width="9.38" height="22.5"/><rect class="cls-8" x="83.31" y="85.98" width="9.38" height="8.96"/><rect class="cls-9" x="95.18" y="72.66" width="9.38" height="13.33"/><rect class="cls-10" x="107.06" y="72.44" width="9.38" height="45"/><rect class="cls-11" width="136.89" height="136.89"/></g></g></svg>