<svg xmlns="http://www.w3.org/2000/svg" xmlns:xlink="http://www.w3.org/1999/xlink" viewBox="0 0 136.89 136.89"><defs><style>.cls-1{fill:url(#linear-gradient);}.cls-2{fill:url(#linear-gradient-2);}.cls-3{fill:url(#linear-gradient-3);}.cls-4{fill:url(#linear-gradient-4);}.cls-5{fill:url(#linear-gradient-5);}.cls-6{fill:url(#linear-gradient-6);}.cls-7{fill:url(#linear-gradient-7);}.cls-8{fill:none;}</style><linearGradient id="linear-gradient" x1="97.8" y1="19.26" x2="31.13" y2="87.26" gradientUnits="userSpaceOnUse"><stop offset="0" stop-color="#74d3aa"/><stop offset="1" stop-color="#058f8f"/></linearGradient><linearGradient id="linear-gradient-2" x1="119.96" y1="40.98" x2="53.29" y2="108.98" xlink:href="#linear-gradient"/><linearGradient id="linear-gradient-3" x1="108.86" y1="30.1" x2="42.19" y2="98.1" xlink:href="#linear-gradient"/><linearGradient id="linear-gradient-4" x1="107.76" y1="29.02" x2="41.09" y2="97.02" xlink:href="#linear-gradient"/><linearGradient id="linear-gradient-5" x1="118.82" y1="39.86" x2="52.15" y2="107.86" xlink:href="#linear-gradient"/><linearGradient id="linear-gradient-6" x1="109.46" y1="30.69" x2="42.79" y2="98.69" xlink:href="#linear-gradient"/><linearGradient id="linear-gradient-7" x1="128.9" y1="49.75" x2="62.23" y2="117.75" xlink:href="#linear-gradient"/></defs><title>ins3</title><g id="Layer_2" data-name="Layer 2"><g id="image"><path class="cls-1" d="M40.93,77.48H52.51a1.32,1.32,0,0,0,1.29-1.3V66.54a1.32,1.32,0,0,0-1.29-1.29H40.93a1.32,1.32,0,0,0-1.3,1.29v9.64A1.4,1.4,0,0,0,40.93,77.48Z"/><path class="cls-2" d="M84.38,77.48H96a1.33,1.33,0,0,0,1.3-1.3V66.54A1.32,1.32,0,0,0,96,65.25H84.38a1.32,1.32,0,0,0-1.3,1.29v9.64A1.27,1.27,0,0,0,84.38,77.48Z"/><path class="cls-3" d="M62.61,77.48H74.19a1.33,1.33,0,0,0,1.3-1.3V66.54a1.33,1.33,0,0,0-1.3-1.29H62.61a1.32,1.32,0,0,0-1.3,1.29v9.64A1.4,1.4,0,0,0,62.61,77.48Z"/><path class="cls-4" d="M40.93,97.4H52.51a1.32,1.32,0,0,0,1.29-1.3V86.47a1.32,1.32,0,0,0-1.29-1.3H40.93a1.33,1.33,0,0,0-1.3,1.3V96.1A1.4,1.4,0,0,0,40.93,97.4Z"/><path class="cls-5" d="M62.61,97.4H74.19a1.33,1.33,0,0,0,1.3-1.3V86.47a1.33,1.33,0,0,0-1.3-1.3H62.61a1.33,1.33,0,0,0-1.3,1.3V96.1A1.4,1.4,0,0,0,62.61,97.4Z"/><path class="cls-6" d="M107.36,32.91H96.24v-.56a7.63,7.63,0,0,0-7.6-7.59H83a7.63,7.63,0,0,0-7.6,7.59v.56h-14v-.56a7.63,7.63,0,0,0-7.6-7.59H48.15a7.63,7.63,0,0,0-7.6,7.59v.56h-11a5.15,5.15,0,0,0-5.1,5.1v69a5.14,5.14,0,0,0,5.1,5.09h77.83a5.14,5.14,0,0,0,5.1-5.09V37.91A5.06,5.06,0,0,0,107.36,32.91Zm-25.29-.56a1,1,0,0,1,1-1h5.66a1,1,0,0,1,1,1v8a1,1,0,0,1-1,1H83.08a1,1,0,0,1-1-1Zm-34.94,0a1,1,0,0,1,1-1H53.8a1,1,0,0,1,1,1v8a1,1,0,0,1-1,1H48.15a1,1,0,0,1-1-1Zm58.38,72.74H31.38V57.37h74.13Z"/><path class="cls-7" d="M86.05,97.68a3.26,3.26,0,0,0,2.22.92,3,3,0,0,0,2.23-.92l8.34-8.34A3.08,3.08,0,0,0,94.48,85l-6.21,6.21L86.05,89a3.08,3.08,0,0,0-4.36,4.35Z"/><rect class="cls-8" width="136.89" height="136.89"/></g></g></svg>