<svg xmlns="http://www.w3.org/2000/svg" xmlns:xlink="http://www.w3.org/1999/xlink" viewBox="0 0 136.89 136.89"><defs><style>.cls-1{fill:url(#linear-gradient);}.cls-2{fill:url(#linear-gradient-2);}.cls-3{fill:url(#linear-gradient-3);}.cls-4{fill:url(#linear-gradient-4);}.cls-5{fill:url(#linear-gradient-5);}.cls-6{fill:url(#linear-gradient-6);}.cls-7{fill:url(#linear-gradient-7);}.cls-8{fill:url(#linear-gradient-8);}.cls-9{fill:url(#linear-gradient-9);}.cls-10{fill:none;}</style><linearGradient id="linear-gradient" x1="30.99" y1="102.49" x2="52.7" y2="102.49" gradientUnits="userSpaceOnUse"><stop offset="0" stop-color="#74d3aa"/><stop offset="1" stop-color="#058f8f"/></linearGradient><linearGradient id="linear-gradient-2" x1="57.59" y1="102.49" x2="79.3" y2="102.49" xlink:href="#linear-gradient"/><linearGradient id="linear-gradient-3" x1="84.19" y1="102.49" x2="105.9" y2="102.49" xlink:href="#linear-gradient"/><linearGradient id="linear-gradient-4" x1="30.99" y1="75.89" x2="52.7" y2="75.89" xlink:href="#linear-gradient"/><linearGradient id="linear-gradient-5" x1="57.59" y1="71.79" x2="79.3" y2="71.79" xlink:href="#linear-gradient"/><linearGradient id="linear-gradient-6" x1="84.19" y1="65.59" x2="105.9" y2="65.59" xlink:href="#linear-gradient"/><linearGradient id="linear-gradient-7" x1="30.99" y1="49.29" x2="52.7" y2="49.29" xlink:href="#linear-gradient"/><linearGradient id="linear-gradient-8" x1="57.59" y1="40.49" x2="79.3" y2="40.49" xlink:href="#linear-gradient"/><linearGradient id="linear-gradient-9" x1="84.19" y1="34.34" x2="105.9" y2="34.34" xlink:href="#linear-gradient"/></defs><title>ins4</title><g id="Layer_2" data-name="Layer 2"><g id="image"><path class="cls-1" d="M51.39,113.39h-19A1.37,1.37,0,0,1,31,112V93a1.37,1.37,0,0,1,1.4-1.4h18.9a1.37,1.37,0,0,1,1.4,1.4v18.9A1.32,1.32,0,0,1,51.39,113.39Z"/><path class="cls-2" d="M78,113.39H59a1.37,1.37,0,0,1-1.4-1.4V93a1.37,1.37,0,0,1,1.4-1.4h18.9a1.37,1.37,0,0,1,1.4,1.4v18.9A1.37,1.37,0,0,1,78,113.39Z"/><path class="cls-3" d="M104.59,113.39h-19a1.37,1.37,0,0,1-1.4-1.4V93a1.37,1.37,0,0,1,1.4-1.4h18.9a1.37,1.37,0,0,1,1.4,1.4v18.9A1.37,1.37,0,0,1,104.59,113.39Z"/><path class="cls-4" d="M51.39,86.79h-19a1.37,1.37,0,0,1-1.4-1.4v-19a1.37,1.37,0,0,1,1.4-1.4h18.9a1.37,1.37,0,0,1,1.4,1.4v18.9A1.32,1.32,0,0,1,51.39,86.79Z"/><path class="cls-5" d="M78,82.69H59a1.37,1.37,0,0,1-1.4-1.4v-19a1.37,1.37,0,0,1,1.4-1.4h18.9a1.37,1.37,0,0,1,1.4,1.4v18.9A1.37,1.37,0,0,1,78,82.69Z"/><path class="cls-6" d="M104.59,76.49h-19a1.37,1.37,0,0,1-1.4-1.4v-19a1.37,1.37,0,0,1,1.4-1.4h18.9a1.37,1.37,0,0,1,1.4,1.4V75A1.32,1.32,0,0,1,104.59,76.49Z"/><path class="cls-7" d="M51.39,60.19h-19a1.37,1.37,0,0,1-1.4-1.4v-19a1.37,1.37,0,0,1,1.4-1.4h18.9a1.37,1.37,0,0,1,1.4,1.4v18.9A1.32,1.32,0,0,1,51.39,60.19Z"/><path class="cls-8" d="M78,51.39H59a1.37,1.37,0,0,1-1.4-1.4V31a1.37,1.37,0,0,1,1.4-1.4h18.9a1.37,1.37,0,0,1,1.4,1.4v18.9A1.32,1.32,0,0,1,78,51.39Z"/><path class="cls-9" d="M104.59,45.19h-19a1.37,1.37,0,0,1-1.4-1.4V24.89a1.37,1.37,0,0,1,1.4-1.4h18.9a1.37,1.37,0,0,1,1.4,1.4v18.9A1.29,1.29,0,0,1,104.59,45.19Z"/><rect class="cls-10" width="136.89" height="136.89"/></g></g></svg>