<svg xmlns="http://www.w3.org/2000/svg" xmlns:xlink="http://www.w3.org/1999/xlink" viewBox="0 0 136.89 136.89"><defs><style>.cls-1{fill-rule:evenodd;fill:url(#linear-gradient);}.cls-2{fill:none;}</style><linearGradient id="linear-gradient" x1="115.57" y1="36.04" x2="52.91" y2="108.04" gradientUnits="userSpaceOnUse"><stop offset="0" stop-color="#74d3aa"/><stop offset="1" stop-color="#058f8f"/></linearGradient></defs><title>ins5</title><g id="Layer_2" data-name="Layer 2"><g id="image"><path class="cls-1" d="M21.47,100.55l37.86-73a10.36,10.36,0,0,1,18.23,0l37.86,73a9.28,9.28,0,0,1-.44,9.56,10,10,0,0,1-8.67,4.66H30.58a10,10,0,0,1-8.67-4.66A9.28,9.28,0,0,1,21.47,100.55ZM31.89,104H105L68.44,33.46Zm35.48-6.4h2.14a3.08,3.08,0,0,0,3-3.12V92.89a3.08,3.08,0,0,0-3-3.12H67.37a3.07,3.07,0,0,0-3,3.12v1.55A3.07,3.07,0,0,0,67.37,97.56Zm-.75-44.23h3.65a2.31,2.31,0,0,1,2.26,2.34V81.92a2.31,2.31,0,0,1-2.26,2.34H66.62a2.31,2.31,0,0,1-2.26-2.34V55.67A2.3,2.3,0,0,1,66.62,53.33ZM26.28,103.05a3.88,3.88,0,0,0,.2,4.13,4.6,4.6,0,0,0,4.1,2.16h75.73a4.6,4.6,0,0,0,4.1-2.16,3.86,3.86,0,0,0,.19-4.13L72.74,30a4.95,4.95,0,0,0-8.59,0Z"/><rect class="cls-2" width="136.89" height="136.89"/></g></g></svg>