<svg xmlns="http://www.w3.org/2000/svg" xmlns:xlink="http://www.w3.org/1999/xlink" viewBox="0 0 136.89 136.89"><defs><style>.cls-1{fill:url(#linear-gradient);}.cls-2{fill:url(#linear-gradient-2);}.cls-3{fill:url(#linear-gradient-3);}.cls-4{fill:url(#linear-gradient-4);}.cls-5{fill:url(#linear-gradient-5);}.cls-6{fill:none;}</style><linearGradient id="linear-gradient" x1="119.92" y1="11.14" x2="42.58" y2="83.14" gradientUnits="userSpaceOnUse"><stop offset="0" stop-color="#74d3aa"/><stop offset="1" stop-color="#058f8f"/></linearGradient><linearGradient id="linear-gradient-2" x1="96.12" y1="-14.42" x2="18.78" y2="57.58" xlink:href="#linear-gradient"/><linearGradient id="linear-gradient-3" x1="118.47" y1="9.59" x2="41.14" y2="81.59" xlink:href="#linear-gradient"/><linearGradient id="linear-gradient-4" x1="135.89" y1="28.3" x2="58.56" y2="100.3" xlink:href="#linear-gradient"/><linearGradient id="linear-gradient-5" x1="113.37" y1="4.11" x2="36.04" y2="76.11" xlink:href="#linear-gradient"/></defs><title>ins6</title><g id="Layer_2" data-name="Layer 2"><g id="image"><path class="cls-1" d="M108.57,19.3H28.31a10.89,10.89,0,0,0-10.9,10.9V87.93a10.89,10.89,0,0,0,10.9,10.9H60.16a1,1,0,0,1,1,1v5.24a.84.84,0,0,1-.87.87c-6.54,1-11.19,3.05-11.19,5.52,0,3.35,8.57,6.11,19.33,6.11s19.34-2.76,19.34-6.11c0-2.47-4.5-4.5-11.19-5.52a1,1,0,0,1-.88-.87V99.85a1,1,0,0,1,1-1h31.84a10.89,10.89,0,0,0,10.91-10.9V30.2A11,11,0,0,0,108.57,19.3Zm3.93,68.63a3.9,3.9,0,0,1-3.93,3.92H28.31a3.9,3.9,0,0,1-3.92-3.92V30.2a3.9,3.9,0,0,1,3.92-3.92h80.26a3.9,3.9,0,0,1,3.93,3.92Z"/><path class="cls-2" d="M37.47,40.38H37v.29C37.18,40.53,37.33,40.53,37.47,40.38Z"/><path class="cls-3" d="M62.48,70.33a11,11,0,0,1-8.43-8.14c0-.14-.15-.29-.29-.43l-4.65-2.48a.47.47,0,0,0-.59,0,15,15,0,0,1-2.76,1,10.62,10.62,0,0,1-2.18.15A11.37,11.37,0,0,1,38.2,59a.66.66,0,0,0-1,.59V84.44a1,1,0,0,0,1,1H64.52a1,1,0,0,0,1-1V71.35a.69.69,0,0,0-.73-.72C63.94,70.48,62.92,70.48,62.48,70.33Z"/><path class="cls-4" d="M93.45,52.6h-.29a9.44,9.44,0,0,1-2.91-.44,1.32,1.32,0,0,0-1.3.15l-12.8,8.43a2.64,2.64,0,0,0-.73,1,11.3,11.3,0,0,1-2,4.5c-.29.29-.44.59-.73.88a1.32,1.32,0,0,0-.44,1V84.58a1,1,0,0,0,1,1H98.83a1,1,0,0,0,1-1V51.87c0-.58-.58-.87-1.16-.58A10.81,10.81,0,0,1,93.45,52.6Z"/><path class="cls-5" d="M93.6,35.29a6.47,6.47,0,0,0-6,3.49,5.72,5.72,0,0,0-.58,4.07c0,.29,0,.59-.3.73L69.61,54.92a.9.9,0,0,1-.87,0,5.32,5.32,0,0,0-1.75-1,6.51,6.51,0,0,0-7,1.31c-.14.15-.58.29-.73.15l-9.16-4.65c-.29-.15-.43-.44-.29-.59a7.14,7.14,0,0,0-1.45-4.36,6.34,6.34,0,0,0-6.25-2.18,6.46,6.46,0,0,0,2.61,12.65,7.33,7.33,0,0,0,3.2-1.6c.15-.14.58-.29.73-.14l9.16,4.79c.29.15.29.3.29.59a6.37,6.37,0,0,0,5.09,6.39,6.68,6.68,0,0,0,6.4-2.32,6.21,6.21,0,0,0,1.31-4.36.75.75,0,0,1,.29-.59L88.8,47.36a.68.68,0,0,1,.73,0,6,6,0,0,0,3.63,1.16A6.1,6.1,0,0,0,99,45C101.16,40.38,98.4,35.44,93.6,35.29Zm-49,16.43a2.41,2.41,0,1,1,1.16-3.2A2.44,2.44,0,0,1,44.6,51.72Zm22.25,8.87a2.45,2.45,0,1,1-1.31-3.2A2.31,2.31,0,0,1,66.85,60.59ZM95.78,42.27A2.49,2.49,0,1,1,94,39.22,2.6,2.6,0,0,1,95.78,42.27Z"/><rect class="cls-6" width="136.89" height="136.89"/></g></g></svg>