<svg xmlns="http://www.w3.org/2000/svg" xmlns:xlink="http://www.w3.org/1999/xlink" viewBox="0 0 67.67 67.67"><defs><style>.cls-1{fill:url(#linear-gradient);}.cls-2{fill:url(#linear-gradient-2);}.cls-3{fill:url(#linear-gradient-3);}.cls-4{fill:url(#linear-gradient-4);}.cls-5{fill:none;}</style><linearGradient id="linear-gradient" x1="66.12" y1="9.01" x2="17.53" y2="50.49" gradientUnits="userSpaceOnUse"><stop offset="0" stop-color="#74d3aa"/><stop offset="1" stop-color="#058f8f"/></linearGradient><linearGradient id="linear-gradient-2" x1="81.94" y1="27.55" x2="33.35" y2="69.03" xlink:href="#linear-gradient"/><linearGradient id="linear-gradient-3" x1="73.95" y1="18.18" x2="25.35" y2="59.66" xlink:href="#linear-gradient"/><linearGradient id="linear-gradient-4" x1="65.95" y1="8.81" x2="17.36" y2="50.29" xlink:href="#linear-gradient"/></defs><title>m1</title><g id="Layer_2" data-name="Layer 2"><g id="image"><path class="cls-1" d="M49.77,28.67H38.29V24h.81a3.8,3.8,0,0,0,3.67-3.14A3.79,3.79,0,0,0,42.14,18l-5.21-7.31a4.4,4.4,0,0,0-.83-.84,3.8,3.8,0,0,0-2.25-.73,3.86,3.86,0,0,0-3.09,1.58L25.52,18a3.83,3.83,0,0,0-.68,2.11,3.74,3.74,0,0,0,1.06,2.72A3.8,3.8,0,0,0,28.6,24h.78v4.66H17.9a7.49,7.49,0,0,0-7.48,7.47v9.08l2.15-.64a8.14,8.14,0,0,1,2.29-.34,8.24,8.24,0,0,1,2.32.34l2.16.64V37.58h10v7.64l2.16-.64a7.76,7.76,0,0,1,2.3-.34,7.88,7.88,0,0,1,2.31.34l2.15.64V37.58h10v7.63l2.15-.64a8.23,8.23,0,0,1,2.31-.34,8.1,8.1,0,0,1,2.3.34l2.16.64V36.14A7.49,7.49,0,0,0,49.77,28.67ZM55.57,43A9.57,9.57,0,0,0,50,43V36.14a.23.23,0,0,0-.24-.23H36.62V43a9.78,9.78,0,0,0-5.57,0V35.91H17.9a.23.23,0,0,0-.24.23V43a9.83,9.83,0,0,0-2.8-.41,10,10,0,0,0-2.77.4V36.14a5.81,5.81,0,0,1,5.81-5.8H31.05v-8H28.6a2.13,2.13,0,0,1-2.09-2.18A2.18,2.18,0,0,1,26.89,19l5.24-7.3a2.13,2.13,0,0,1,3-.46,2,2,0,0,1,.46.46l5.2,7.3a2.14,2.14,0,0,1-.52,3,2.18,2.18,0,0,1-1.18.38H36.62v8H49.77a5.8,5.8,0,0,1,5.8,5.8Z"/><path class="cls-2" d="M52.8,46.3a6.13,6.13,0,1,0,6.13,6.12A6.12,6.12,0,0,0,52.8,46.3Zm0,10.25a4.13,4.13,0,1,1,4.13-4.13A4.13,4.13,0,0,1,52.8,56.55Z"/><path class="cls-3" d="M33.83,46.3A6.13,6.13,0,1,0,40,52.42,6.12,6.12,0,0,0,33.83,46.3Zm0,10.25A4.13,4.13,0,1,1,38,52.42,4.14,4.14,0,0,1,33.83,56.55Z"/><path class="cls-4" d="M14.86,46.3A6.13,6.13,0,1,0,21,52.42,6.12,6.12,0,0,0,14.86,46.3Zm0,10.25A4.13,4.13,0,1,1,19,52.42,4.14,4.14,0,0,1,14.87,56.55Z"/><rect class="cls-5" width="67.67" height="67.67"/></g></g></svg>