<svg xmlns="http://www.w3.org/2000/svg" xmlns:xlink="http://www.w3.org/1999/xlink" viewBox="0 0 67.67 67.67"><defs><style>.cls-1{fill-rule:evenodd;fill:url(#linear-gradient);}.cls-2{fill:none;}</style><linearGradient id="linear-gradient" x1="51.07" y1="7.12" x2="18.48" y2="50.97" gradientUnits="userSpaceOnUse"><stop offset="0" stop-color="#74d3aa"/><stop offset="1" stop-color="#058f8f"/></linearGradient></defs><title>m2</title><g id="Layer_2" data-name="Layer 2"><g id="image"><path class="cls-1" d="M33.75,58.85c-4.51-2.06-9.66-4.54-13.58-8-4.43-3.88-6.63-8.36-6.74-13.72l-.3-18.8h.1c9.23-1.1,13.66-2.27,20.49-9.46l.08-.09.09.09c6.87,7.17,11.31,8.34,20.54,9.46h.11l-.36,18.8C54.1,42.51,51.9,47,47.46,50.88c-3.92,3.42-9.08,5.9-13.61,8l-.05,0ZM15.63,37.21c.18,9.95,9.28,15.37,18.17,19.35,8.93-4,18.06-9.37,18.24-19.35l.25-16.88a37.17,37.17,0,0,1-10-2.51,27.11,27.11,0,0,1-8.51-5.73,26.38,26.38,0,0,1-8.48,5.73,37.33,37.33,0,0,1-10,2.51ZM35.43,48a.82.82,0,0,1-.85-.84V45.71l-.78,0-.78,0v1.43a.81.81,0,1,1-1.62,0V45.49a8.23,8.23,0,0,1-4.6-2.91h0a1.73,1.73,0,0,1,.33-2.33h0a1.7,1.7,0,0,1,1-.31,1.63,1.63,0,0,1,1.34.69A4.51,4.51,0,0,0,31.4,42V35.21c-2.84-.68-5.83-2.73-5.83-6.46a6,6,0,0,1,1.75-4.29,8.44,8.44,0,0,1,4.08-2.18V20.57a.81.81,0,0,1,1.62,0V22h1.56V20.57a.85.85,0,0,1,1.69,0v1.71a7.16,7.16,0,0,1,5.46,4.63,1.54,1.54,0,0,1-.16,1.42,1.8,1.8,0,0,1-1.45.73,1.55,1.55,0,0,1-1.5-1.12,3.7,3.7,0,0,0-2.35-2.27v6.89a9,9,0,0,1,4,2.22A5.94,5.94,0,0,1,42,39a6,6,0,0,1-1.73,4.29,8.26,8.26,0,0,1-4,2.18v1.65A.82.82,0,0,1,35.43,48ZM33,42.41a4.38,4.38,0,0,0,1.56,0V35.58a5,5,0,0,0-.78,0,5.23,5.23,0,0,1-.78,0ZM36.27,42a3.23,3.23,0,0,0,2.52-3c0-1.7-1.51-2.6-2.52-3ZM33,32.19a5.79,5.79,0,0,0,.78,0,5.1,5.1,0,0,1,.78,0v-7q-.39,0-.78,0t-.78,0ZM31.4,25.73c-1.61.61-2.52,1.7-2.52,3,0,1.78,1.65,2.67,2.52,3Z"/><rect class="cls-2" width="67.67" height="67.67"/></g></g></svg>