<svg xmlns="http://www.w3.org/2000/svg" xmlns:xlink="http://www.w3.org/1999/xlink" viewBox="0 0 67.67 67.67"><defs><style>.cls-1{fill:url(#linear-gradient);}.cls-2{fill:none;}</style><linearGradient id="linear-gradient" x1="48.63" y1="14.98" x2="19" y2="54.69" gradientUnits="userSpaceOnUse"><stop offset="0" stop-color="#74d3aa"/><stop offset="1" stop-color="#058f8f"/></linearGradient></defs><title>m3</title><g id="Layer_2" data-name="Layer 2"><g id="image"><path class="cls-1" d="M54.62,33.43,34.22,13a10.35,10.35,0,0,0-7.6-3.2,10.74,10.74,0,0,0-7.7,3.2,10.57,10.57,0,0,0-3.2,7.7,10.74,10.74,0,0,0,3.2,7.7l3.7,3.7c-7.4.9-12.8,4.3-12.8,8.5v8.5c0,4.9,7.4,8.7,16.9,8.7,8,0,14.6-2.8,16.4-6.6a9.86,9.86,0,0,0,3.8.7,10.91,10.91,0,0,0,7.7-3.2A10.69,10.69,0,0,0,54.62,33.43Zm-34.3-6.5a8.93,8.93,0,0,1,0-12.6,9.1,9.1,0,0,1,6.3-2.5,8.77,8.77,0,0,1,6.3,2.6l9.5,9.5-8.7,8.7a29.87,29.87,0,0,0-6.9-.7h-1.5ZM35.62,46l-15.3-11.5a32.17,32.17,0,0,1,6.4-.7c8.1,0,14.9,3.1,14.9,6.8C41.72,42.73,39.22,44.73,35.62,46Zm-17.7-10.8,15.2,11.5a32.17,32.17,0,0,1-6.4.7c-8.1-.1-14.9-3.2-14.9-6.8C11.82,38.43,14.22,36.43,17.92,35.23Zm8.8,20.6c-8.1,0-14.9-3.1-14.9-6.8v-4.3c2.8,2.7,8.4,4.6,14.9,4.6s12.1-1.8,14.9-4.6V49C41.72,52.73,34.82,55.83,26.72,55.83Zm26.5-8.5a9,9,0,0,1-9.6,1.9v-8.7c0-3.2-3.1-5.9-7.8-7.4l7.9-7.9,9.5,9.5A8.87,8.87,0,0,1,53.22,47.33Z"/><rect class="cls-2" width="67.67" height="67.67"/></g></g></svg>