<svg xmlns="http://www.w3.org/2000/svg" xmlns:xlink="http://www.w3.org/1999/xlink" viewBox="0 0 136.89 136.89"><defs><style>.cls-1{fill:url(#linear-gradient);}.cls-2{fill:url(#linear-gradient-2);}.cls-3{fill:url(#linear-gradient-3);}.cls-4{fill:url(#linear-gradient-4);}.cls-5{fill:url(#linear-gradient-5);}.cls-6{fill:url(#linear-gradient-6);}.cls-7{fill:url(#linear-gradient-7);}.cls-8{fill:url(#linear-gradient-8);}.cls-9{fill:url(#linear-gradient-9);}.cls-10{fill:url(#linear-gradient-10);}.cls-11{fill:url(#linear-gradient-11);}.cls-12{fill:url(#linear-gradient-12);}.cls-13{fill:url(#linear-gradient-13);}.cls-14{fill:url(#linear-gradient-14);}.cls-15{fill:url(#linear-gradient-15);}.cls-16{fill:url(#linear-gradient-16);}.cls-17{fill:url(#linear-gradient-17);}.cls-18{fill:url(#linear-gradient-18);}.cls-19{fill:url(#linear-gradient-19);}.cls-20{fill:url(#linear-gradient-20);}.cls-21{fill:url(#linear-gradient-21);}.cls-22{fill:url(#linear-gradient-22);}.cls-23{fill:url(#linear-gradient-23);}.cls-24{fill:url(#linear-gradient-24);}.cls-25{fill:url(#linear-gradient-25);}.cls-26{fill:url(#linear-gradient-26);}.cls-27{fill:url(#linear-gradient-27);}.cls-28{fill:url(#linear-gradient-28);}.cls-29{fill:none;}</style><linearGradient id="linear-gradient" x1="35.88" y1="68.25" x2="100.88" y2="68.25" gradientUnits="userSpaceOnUse"><stop offset="0" stop-color="#74d3aa"/><stop offset="1" stop-color="#058f8f"/></linearGradient><linearGradient id="linear-gradient-2" x1="76.1" y1="73.66" x2="83.86" y2="73.66" gradientTransform="translate(103.77 -32.44) rotate(59.99)" xlink:href="#linear-gradient"/><linearGradient id="linear-gradient-3" x1="46.32" y1="108.94" x2="50.81" y2="108.94" xlink:href="#linear-gradient"/><linearGradient id="linear-gradient-4" x1="25.64" y1="51.31" x2="32.06" y2="51.31" xlink:href="#linear-gradient"/><linearGradient id="linear-gradient-5" x1="46.42" y1="29.37" x2="50.84" y2="29.37" xlink:href="#linear-gradient"/><linearGradient id="linear-gradient-6" x1="105.21" y1="89.01" x2="109.64" y2="89.01" xlink:href="#linear-gradient"/><linearGradient id="linear-gradient-7" x1="103.6" y1="38.21" x2="111.25" y2="38.21" xlink:href="#linear-gradient"/><linearGradient id="linear-gradient-8" x1="97.23" y1="27.95" x2="101.71" y2="27.95" xlink:href="#linear-gradient"/><linearGradient id="linear-gradient-9" x1="107.17" y1="69.43" x2="110.75" y2="69.43" xlink:href="#linear-gradient"/><linearGradient id="linear-gradient-10" x1="32.93" y1="37.6" x2="37.66" y2="37.6" xlink:href="#linear-gradient"/><linearGradient id="linear-gradient-11" x1="42.32" y1="108.83" x2="43.41" y2="108.83" xlink:href="#linear-gradient"/><linearGradient id="linear-gradient-12" x1="32.23" y1="103.43" x2="33.97" y2="103.43" xlink:href="#linear-gradient"/><linearGradient id="linear-gradient-13" x1="29.87" y1="100.39" x2="31.37" y2="100.39" xlink:href="#linear-gradient"/><linearGradient id="linear-gradient-14" x1="35.17" y1="105.92" x2="37.08" y2="105.92" xlink:href="#linear-gradient"/><linearGradient id="linear-gradient-15" x1="27.2" y1="93.19" x2="28.08" y2="93.19" xlink:href="#linear-gradient"/><linearGradient id="linear-gradient-16" x1="38.58" y1="107.77" x2="40.59" y2="107.77" xlink:href="#linear-gradient"/><linearGradient id="linear-gradient-17" x1="28.17" y1="96.94" x2="29.38" y2="96.94" xlink:href="#linear-gradient"/><linearGradient id="linear-gradient-18" x1="26.98" y1="89.28" x2="27.51" y2="89.28" xlink:href="#linear-gradient"/><linearGradient id="linear-gradient-19" x1="27.21" y1="85.83" x2="27.87" y2="85.83" xlink:href="#linear-gradient"/><linearGradient id="linear-gradient-20" x1="109.52" y1="96.96" x2="110.07" y2="96.96" xlink:href="#linear-gradient"/><linearGradient id="linear-gradient-21" x1="98.86" y1="109.37" x2="101.1" y2="109.37" xlink:href="#linear-gradient"/><linearGradient id="linear-gradient-22" x1="108.46" y1="100.66" x2="109.64" y2="100.66" xlink:href="#linear-gradient"/><linearGradient id="linear-gradient-23" x1="106.16" y1="104.48" x2="107.87" y2="104.48" xlink:href="#linear-gradient"/><linearGradient id="linear-gradient-24" x1="102.85" y1="107.49" x2="104.93" y2="107.49" xlink:href="#linear-gradient"/><linearGradient id="linear-gradient-25" x1="108.71" y1="49.82" x2="109.21" y2="49.82" xlink:href="#linear-gradient"/><linearGradient id="linear-gradient-26" x1="108.71" y1="53.82" x2="109.21" y2="53.82" xlink:href="#linear-gradient"/><linearGradient id="linear-gradient-27" x1="108.71" y1="57.82" x2="109.21" y2="57.82" xlink:href="#linear-gradient"/><linearGradient id="linear-gradient-28" x1="108.71" y1="61.82" x2="109.21" y2="61.82" xlink:href="#linear-gradient"/></defs><title>med1</title><g id="Layer_2" data-name="Layer 2"><g id="image"><path class="cls-1" d="M93.31,63.92A4.56,4.56,0,0,0,90,62.56a4.62,4.62,0,0,0-1.62.31l-6.35-11a4.59,4.59,0,0,0,.16-6.8l3.51-4.43-1.17-.93L81,44.24A4.49,4.49,0,0,0,79,43.8a4.63,4.63,0,0,0-4.55,3.87H62.26A4.6,4.6,0,0,0,56,44.13l-3.5-4.41-1.17.93,3.39,4.27a4.56,4.56,0,0,0,0,7l-6.35,11a4.59,4.59,0,0,0-6.17,3.57H35.88v1.5h6.28a4.57,4.57,0,0,0,6.17,3.56l8.78,15.2h6.72a4.61,4.61,0,0,0,3.8,3.8v6.28h1.5V90.5a4.56,4.56,0,0,0,3.8-3.8h6.71l8.78-15.2a4.56,4.56,0,0,0,4.89-1,4.52,4.52,0,0,0,1.28-2.52h6.29v-1.5H94.59A4.49,4.49,0,0,0,93.31,63.92ZM76,47.67a3.12,3.12,0,0,1,6.15.75,3.08,3.08,0,0,1-.86,2.13,3,3,0,0,1-1.27.81,3,3,0,0,1-1,.18,3.12,3.12,0,0,1-3-2.37,2.86,2.86,0,0,1,0-1.5Zm-21.43.75a3.12,3.12,0,0,1,6.15-.75,2.86,2.86,0,0,1,0,1.5,3.12,3.12,0,0,1-3,2.37,3.05,3.05,0,0,1-1-.18,3,3,0,0,1-1.26-.81A3.06,3.06,0,0,1,54.59,48.42Zm-7,21.75a3.1,3.1,0,1,1,1.3-.74A3.09,3.09,0,0,1,47.57,70.17ZM71.4,86.7a2.86,2.86,0,1,1,.1-.75A3.11,3.11,0,0,1,71.4,86.7Zm7.38-1.5H72.92a4.6,4.6,0,0,0-9.09,0H58L49.63,70.74a4.57,4.57,0,0,0,0-7.11L56,52.69a4.49,4.49,0,0,0,1.76.35,4.61,4.61,0,0,0,4.55-3.87H74.49A4.63,4.63,0,0,0,79,53h0a4.69,4.69,0,0,0,1.77-.35l6.32,10.94a4.55,4.55,0,0,0,0,7.11ZM92.25,69.39a3.1,3.1,0,0,1-2.21.92,3,3,0,0,1-.85-.14,3,3,0,0,1-1.31-.74,3.11,3.11,0,0,1,0-4.49,3,3,0,0,1,1.31-.74,3,3,0,0,1,.85-.14,3.12,3.12,0,0,1,2.21,5.33Z"/><rect class="cls-2" x="73.53" y="72.91" width="12.91" height="1.5" transform="translate(-23.81 106.08) rotate(-59.99)"/><path class="cls-3" d="M48.57,106.69a2.25,2.25,0,1,0,2.24,2.25A2.25,2.25,0,0,0,48.57,106.69Zm0,4a1.75,1.75,0,1,1,1.74-1.74A1.75,1.75,0,0,1,48.57,110.68Z"/><path class="cls-4" d="M28.85,48.26l-1,2-2.22.32,1.61,1.57-.38,2.21,2-1,2,1-.38-2.21,1.61-1.57-2.22-.32ZM29.92,52l.25,1.47-1.32-.69-1.32.69L27.78,52l-1.06-1,1.47-.21.66-1.34.66,1.34,1.47.21Z"/><path class="cls-5" d="M49.31,28.65l-.68-1.39L48,28.65l-1.53.22L47.52,30l-.26,1.52,1.37-.72,1.37.72L49.74,30l1.1-1.08Zm0,1.91-.7-.37-.7.37.13-.78-.57-.56.79-.11.35-.72.35.72.79.11-.57.56Z"/><path class="cls-6" d="M105.21,88.51l1.11,1.08-.26,1.52,1.36-.72,1.37.72-.26-1.52,1.11-1.08-1.53-.22-.69-1.39-.68,1.39Zm2.21-.48.36.71.78.12-.57.56.14.78-.71-.37-.7.37.13-.78-.57-.56.79-.12Z"/><path class="cls-7" d="M107.42,34.58l-.9,2.78H103.6L106,39.07l-.9,2.78,2.36-1.72,2.37,1.72-.91-2.78,2.37-1.71h-2.92Zm.88,4.3.54,1.66-1.42-1-1.41,1,.54-1.66-1.41-1h1.75l.54-1.66.53,1.66h1.75Z"/><path class="cls-8" d="M99.47,25.71A2.24,2.24,0,1,0,101.71,28,2.24,2.24,0,0,0,99.47,25.71Zm0,4A1.74,1.74,0,1,1,101.21,28,1.74,1.74,0,0,1,99.47,29.69Z"/><path class="cls-9" d="M107.17,69.43A1.79,1.79,0,1,0,109,67.64,1.8,1.8,0,0,0,107.17,69.43ZM109,68.14a1.29,1.29,0,1,1-1.29,1.29A1.29,1.29,0,0,1,109,68.14Z"/><path class="cls-10" d="M32.93,37.6a2.37,2.37,0,1,0,2.37-2.36A2.37,2.37,0,0,0,32.93,37.6Zm2.37-1.86a1.86,1.86,0,1,1-1.87,1.86A1.86,1.86,0,0,1,35.3,35.74Z"/><path class="cls-11" d="M42.44,108.47l-.12.49,1,.22.1-.49C43.08,108.63,42.76,108.55,42.44,108.47Z"/><path class="cls-12" d="M34,103.93c-.48-.44-.94-.9-1.37-1.38l-.37.34c.44.49.91,1,1.4,1.41Z"/><path class="cls-13" d="M30.3,99.44l-.43.26c.34.57.71,1.12,1.1,1.65l.4-.3A18,18,0,0,1,30.3,99.44Z"/><path class="cls-14" d="M37.08,106.25c-.55-.34-1.1-.7-1.61-1.08l-.3.4c.53.39,1.08.76,1.65,1.1Z"/><path class="cls-15" d="M27.2,92.25c.1.65.23,1.31.39,2l.49-.12a18.24,18.24,0,0,1-.38-1.9Z"/><path class="cls-16" d="M40.59,107.91q-.92-.33-1.8-.75l-.21.46a19.76,19.76,0,0,0,1.84.76Z"/><path class="cls-17" d="M29.38,97.73a18.27,18.27,0,0,1-.74-1.79l-.47.16c.22.62.48,1.24.76,1.84Z"/><path class="cls-18" d="M27,89.3c0,.32,0,.65,0,1l.5,0c0-.32,0-.63,0-1s0-.66,0-1l-.5,0C27,88.62,27,89,27,89.3Z"/><path class="cls-19" d="M27.21,86.29l.49.08c.05-.33.11-.65.17-1l-.49-.1C27.31,85.63,27.26,86,27.21,86.29Z"/><path class="cls-20" d="M110.07,96.45h-.5c0,.33,0,.66,0,1l.5,0C110.05,97.14,110.07,96.8,110.07,96.45Z"/><path class="cls-21" d="M99,109.92a13.37,13.37,0,0,0,2.13-.64l-.18-.46a14.76,14.76,0,0,1-2.06.61Z"/><path class="cls-22" d="M108.46,101.57l.46.2a14.46,14.46,0,0,0,.72-2.1l-.49-.13A13.12,13.12,0,0,1,108.46,101.57Z"/><path class="cls-23" d="M106.53,105.51a14.54,14.54,0,0,0,1.34-1.78l-.42-.27a13.44,13.44,0,0,1-1.29,1.71Z"/><path class="cls-24" d="M104.93,107.05l-.32-.39a13.45,13.45,0,0,1-1.76,1.22l.25.44A16.57,16.57,0,0,0,104.93,107.05Z"/><rect class="cls-25" x="108.71" y="48.82" width="0.5" height="2"/><rect class="cls-26" x="108.71" y="52.82" width="0.5" height="2"/><rect class="cls-27" x="108.71" y="56.82" width="0.5" height="2"/><rect class="cls-28" x="108.71" y="60.82" width="0.5" height="2"/><rect class="cls-29" width="136.89" height="136.89"/></g></g></svg>