<svg xmlns="http://www.w3.org/2000/svg" xmlns:xlink="http://www.w3.org/1999/xlink" viewBox="0 0 136.89 136.89"><defs><style>.cls-1{fill:url(#linear-gradient);}.cls-2{fill:none;}</style><linearGradient id="linear-gradient" x1="109.02" y1="24.39" x2="41.02" y2="104.39" gradientUnits="userSpaceOnUse"><stop offset="0" stop-color="#74d3aa"/><stop offset="1" stop-color="#058f8f"/></linearGradient></defs><title>med2</title><g id="Layer_2" data-name="Layer 2"><g id="image"><path class="cls-1" d="M116.63,67.16h-1.19L103.66,42.67a5.42,5.42,0,0,0-7.07-8.21,5.51,5.51,0,0,0-1,1.21l-5-3.88A20.24,20.24,0,0,0,73.81,28a5.42,5.42,0,0,0-10.73,0,20.26,20.26,0,0,0-16.77,3.81l-5,3.88a5.42,5.42,0,0,0-9.17,5.79,5.51,5.51,0,0,0,1,1.21L21.44,67.16H20.25a1.38,1.38,0,0,0-1.38,1.4v.1a17.92,17.92,0,0,0,35.71,0,1.39,1.39,0,0,0-1.28-1.5H52L40.21,42.67l.1-.09,6.3-3.85a15.06,15.06,0,0,1,13.73-1,12.63,12.63,0,0,0,2,.56V97.35l-25.41,8.07a4,4,0,0,0-2.82,3.85v.26a4,4,0,0,0,4,4H98.73a4,4,0,0,0,4-4v-.31a4,4,0,0,0-2.78-3.8l-25.38-8V38.27a12.63,12.63,0,0,0,2-.56,15.06,15.06,0,0,1,13.73,1l6.3,3.85.1.09L84.86,67.16H83.7a1.38,1.38,0,0,0-1.38,1.4v.1a17.92,17.92,0,0,0,35.7,0,1.39,1.39,0,0,0-1.28-1.5Zm-70.44,0h-19l9.48-19.67Zm44.49,0,9.48-19.67,9.48,19.67Z"/><rect class="cls-2" width="136.89" height="136.89"/></g></g></svg>