<svg xmlns="http://www.w3.org/2000/svg" xmlns:xlink="http://www.w3.org/1999/xlink" viewBox="0 0 136.89 136.89"><defs><style>.cls-1,.cls-2,.cls-3,.cls-4{fill-rule:evenodd;}.cls-1{fill:url(#linear-gradient);}.cls-2{fill:url(#linear-gradient-2);}.cls-3{fill:url(#linear-gradient-3);}.cls-4{fill:url(#linear-gradient-4);}.cls-5{fill:none;}</style><linearGradient id="linear-gradient" x1="26.01" y1="49.15" x2="73.89" y2="49.15" gradientUnits="userSpaceOnUse"><stop offset="0" stop-color="#74d3aa"/><stop offset="1" stop-color="#058f8f"/></linearGradient><linearGradient id="linear-gradient-2" x1="65.58" y1="89.37" x2="110.88" y2="89.37" xlink:href="#linear-gradient"/><linearGradient id="linear-gradient-3" x1="78.92" y1="59.41" x2="110.88" y2="59.41" xlink:href="#linear-gradient"/><linearGradient id="linear-gradient-4" x1="42.97" y1="89.86" x2="74.93" y2="89.86" xlink:href="#linear-gradient"/></defs><title>med3</title><g id="Layer_2" data-name="Layer 2"><g id="image"><path class="cls-1" d="M51.79,67a1.65,1.65,0,0,0-.62-1.56,5.74,5.74,0,0,1-1.67-2.19,5.83,5.83,0,1,1,11.16-2,1.71,1.71,0,0,0,2.39,1.67l10.33-4.53L66.59,42.91a1.71,1.71,0,0,1,1.75-2.38,4.88,4.88,0,0,0,2.56-.39,5,5,0,1,0-6-7.52,1.71,1.71,0,0,1-2.94-.33l-3-6.82L26,39.92,40.46,72.84l10.33-4.53A1.67,1.67,0,0,0,51.79,67Z"/><path class="cls-2" d="M99.19,78.85a3.7,3.7,0,0,1-1.32-1.26,3.66,3.66,0,0,1-.54-1.74,3.44,3.44,0,0,1,.31-1.63l.06-.15c0-.08.1-.18.18-.31l0-.09c.07-.12.16-.25.25-.39a3.72,3.72,0,0,0,.5-1,4.11,4.11,0,0,0,.16-1.13,3.83,3.83,0,0,0-1.11-2.7h0a3.82,3.82,0,0,0-5.32-.08l-.08.08a3.82,3.82,0,0,0-.95,3.83,4,4,0,0,0,.49,1c.09.14.18.27.25.39a4,4,0,0,1,.22.41,3.57,3.57,0,0,1,.38,1.77,3.64,3.64,0,0,1-.46,1.59l-.09.15a3.67,3.67,0,0,1-1.31,1.26,3.71,3.71,0,0,1-1.76.45H78.76V91.13A3.66,3.66,0,0,1,77.7,93.7a4,4,0,0,1-.7.53,3.55,3.55,0,0,1-.69.31l-.31.1-.24,0a3.18,3.18,0,0,1-.62.07H75a6.17,6.17,0,0,1-1.82-.27,6.23,6.23,0,0,1-1.66-.81,4,4,0,0,0-1-.5A4.11,4.11,0,0,0,69.39,93a3.82,3.82,0,0,0-2.7,1.12h0a3.86,3.86,0,0,0-.08,5.33l.08.07a3.82,3.82,0,0,0,2.7,1.12,4.06,4.06,0,0,0,1.13-.16,3.72,3.72,0,0,0,1-.5A6.24,6.24,0,0,1,75,98.91h.12a3.18,3.18,0,0,1,.62.07L76,99l.31.1a3.55,3.55,0,0,1,.69.31,4.08,4.08,0,0,1,.7.54,3.62,3.62,0,0,1,1.06,2.56v8.88h32.12V79.31H101A3.55,3.55,0,0,1,99.19,78.85Z"/><path class="cls-3" d="M78.92,43.35v5.19A6.58,6.58,0,0,1,80.28,48a6.72,6.72,0,0,1,1.79-.24A6.9,6.9,0,0,1,87,59.56h0a6.91,6.91,0,0,1-4.88,2,7,7,0,0,1-3.15-.76V75.47h9.8l0,0a8,8,0,0,1-1-2.06,7.64,7.64,0,0,1,1.9-7.66l.12-.1a7.62,7.62,0,0,1,10.69.1h0a7.62,7.62,0,0,1,2.24,5.41,7.71,7.71,0,0,1-.34,2.25,7.54,7.54,0,0,1-1,2.06l0,0h9.57V43.35Z"/><path class="cls-4" d="M73.69,103.15a7.48,7.48,0,0,1-2,1A7.59,7.59,0,0,1,64,102.25l-.11-.12A7.63,7.63,0,0,1,64,91.44h0a7.64,7.64,0,0,1,7.66-1.9,7.78,7.78,0,0,1,2,1,2.68,2.68,0,0,0,.63.32,2.71,2.71,0,0,0,.61.09V79.3H65.72A3.59,3.59,0,0,1,64,78.84a3.49,3.49,0,0,1-1.22-1.14l-.1-.14A3.57,3.57,0,0,1,62.51,74a3.61,3.61,0,0,0,.33-.88,3.84,3.84,0,0,0,.1-.93,3.92,3.92,0,0,0-7.83,0,3.83,3.83,0,0,0,.11.93,3.61,3.61,0,0,0,.33.88A3.57,3.57,0,0,1,56,75.8a3.64,3.64,0,0,1-.53,1.76h0a3.73,3.73,0,0,1-1.31,1.28,3.63,3.63,0,0,1-1.78.46H43v32.12h32v-8.67a2.62,2.62,0,0,0-.61.09A2.45,2.45,0,0,0,73.69,103.15Z"/><rect class="cls-5" width="136.89" height="136.89"/></g></g></svg>