<svg xmlns="http://www.w3.org/2000/svg" xmlns:xlink="http://www.w3.org/1999/xlink" viewBox="0 0 136.89 136.89"><defs><style>.cls-1{fill:url(#linear-gradient);}.cls-2{fill:url(#linear-gradient-2);}.cls-3{fill:url(#linear-gradient-3);}.cls-4{fill:url(#linear-gradient-4);}.cls-5{fill:url(#linear-gradient-5);}.cls-6{fill:url(#linear-gradient-6);}.cls-7{fill:url(#linear-gradient-7);}.cls-8{fill:none;}</style><linearGradient id="linear-gradient" x1="98.46" y1="4.56" x2="13.13" y2="63.23" gradientUnits="userSpaceOnUse"><stop offset="0" stop-color="#74d3aa"/><stop offset="1" stop-color="#058f8f"/></linearGradient><linearGradient id="linear-gradient-2" x1="108.85" y1="19.68" x2="23.52" y2="78.35" xlink:href="#linear-gradient"/><linearGradient id="linear-gradient-3" x1="113.6" y1="26.58" x2="28.27" y2="85.25" xlink:href="#linear-gradient"/><linearGradient id="linear-gradient-4" x1="118.34" y1="33.48" x2="33.01" y2="92.15" xlink:href="#linear-gradient"/><linearGradient id="linear-gradient-5" x1="103.49" y1="11.87" x2="18.15" y2="70.54" xlink:href="#linear-gradient"/><linearGradient id="linear-gradient-6" x1="109.32" y1="20.35" x2="23.98" y2="79.02" xlink:href="#linear-gradient"/><linearGradient id="linear-gradient-7" x1="122.08" y1="38.92" x2="36.75" y2="97.58" xlink:href="#linear-gradient"/></defs><title>med4</title><g id="Layer_2" data-name="Layer 2"><g id="image"><path class="cls-1" d="M30.36,48.46A4.26,4.26,0,1,0,34.61,44,4.36,4.36,0,0,0,30.36,48.46Z"/><polygon class="cls-2" points="59.18 43.99 63.45 52.93 74.8 52.93 70.53 43.99 59.18 43.99"/><polygon class="cls-3" points="73.97 43.99 78.24 52.93 89.58 52.93 85.31 43.99 73.97 43.99"/><polygon class="cls-4" points="88.75 43.99 93.02 52.93 104.37 52.93 100.1 43.99 88.75 43.99"/><path class="cls-5" d="M48.52,44h-8a7.59,7.59,0,0,1,0,8.94H60L55.75,44Z"/><path class="cls-6" d="M27.26,48.46a7.48,7.48,0,0,1,7.35-7.57H46a13.41,13.41,0,0,0-11.36-6.43A13.21,13.21,0,0,0,25,38.59a14.32,14.32,0,0,0-4,10v53.83H48.19V56H34.61A7.47,7.47,0,0,1,27.26,48.46Z"/><path class="cls-7" d="M111.6,44h-8.07l4.27,8.94h3.8a4.48,4.48,0,0,0,0-8.94Z"/><rect class="cls-8" width="136.89" height="136.89"/></g></g></svg>