<svg xmlns="http://www.w3.org/2000/svg" xmlns:xlink="http://www.w3.org/1999/xlink" viewBox="0 0 136.89 136.89"><defs><style>.cls-1{fill:url(#linear-gradient);}.cls-2{fill:none;}</style><linearGradient id="linear-gradient" x1="129.25" y1="29.95" x2="49.25" y2="93.95" gradientUnits="userSpaceOnUse"><stop offset="0" stop-color="#74d3aa"/><stop offset="1" stop-color="#058f8f"/></linearGradient></defs><title>med5</title><g id="Layer_2" data-name="Layer 2"><g id="image"><path class="cls-1" d="M109,32.64H53.31A7.29,7.29,0,0,0,48,35l-25.3,28.8a7,7,0,0,0,0,9.2l25.2,28.8a7.13,7.13,0,0,0,5.3,2.4h55.7a7,7,0,0,0,7-7V39.64A6.81,6.81,0,0,0,109,32.64Zm-61.6,42.5a6.7,6.7,0,1,1,6.7-6.7A6.7,6.7,0,0,1,47.41,75.14Zm37.8,10.7v4.4a.88.88,0,0,1-.8.9h-4.3a.9.9,0,0,1-.9-.9v-4.3a8.89,8.89,0,0,1-8.3-8,.9.9,0,0,1,.9-.9h4.3a.87.87,0,0,1,.8.6,3,3,0,0,0,2.9,2.3h3.7a4.45,4.45,0,0,0,4.5-3.8,4.2,4.2,0,0,0-4.3-4.7h-2.8c-5.4,0-10.2-3.9-10.7-9.2A10.26,10.26,0,0,1,79,51v-4.3a.82.82,0,0,1,.9-.8h4.3a.79.79,0,0,1,.8.8V51a8.89,8.89,0,0,1,8.3,8,.9.9,0,0,1-.9.9h-4.3a.87.87,0,0,1-.8-.6,3,3,0,0,0-2.9-2.3h-3.8a4.21,4.21,0,1,0-.1,8.4h3.3A10.28,10.28,0,0,1,94,76.74C93.61,81.44,89.71,85,85.21,85.84Z"/><rect class="cls-2" width="136.89" height="136.89"/></g></g></svg>