<svg xmlns="http://www.w3.org/2000/svg" xmlns:xlink="http://www.w3.org/1999/xlink" viewBox="0 0 136.89 136.89"><defs><style>.cls-1{fill:url(#linear-gradient);}.cls-2{fill:url(#linear-gradient-2);}.cls-3{fill:none;}</style><linearGradient id="linear-gradient" x1="100.48" y1="34.03" x2="27.15" y2="86.03" gradientUnits="userSpaceOnUse"><stop offset="0" stop-color="#74d3aa"/><stop offset="1" stop-color="#058f8f"/></linearGradient><linearGradient id="linear-gradient-2" x1="107.1" y1="43.35" x2="33.76" y2="95.35" xlink:href="#linear-gradient"/></defs><title>med6</title><g id="Layer_2" data-name="Layer 2"><g id="image"><path class="cls-1" d="M64.06,51.09a8.74,8.74,0,1,0,8.74,8.74A8.76,8.76,0,0,0,64.06,51.09Z"/><path class="cls-2" d="M105.14,76.94,98.52,63.58a1.71,1.71,0,0,1-.25-.75C98.39,45.1,85,30.12,67.93,28.62A33.52,33.52,0,0,0,31.47,62c0,22.73,18.11,23.23,18.11,45.2a1.33,1.33,0,0,0,1.24,1.25h38A1.34,1.34,0,0,0,90,107.15V92.42h5.24a3.09,3.09,0,0,0,3.12-3.12V80.93c0-.37.25-.5.63-.5h4.12a2.13,2.13,0,0,0,2-1.12A2.67,2.67,0,0,0,105.14,76.94ZM85.66,63.08a1.34,1.34,0,0,1-1.12,1.25L79.79,65a13,13,0,0,1-1,2.37l2.87,3.87a1.17,1.17,0,0,1-.12,1.63L77,77.31a1.32,1.32,0,0,1-1.62.13l-3.87-2.87a19.88,19.88,0,0,1-2.37,1l-.63,4.75a1.32,1.32,0,0,1-1.24,1.12H60.94a1.32,1.32,0,0,1-1.25-1.12l-.63-4.75a14,14,0,0,1-2.37-1l-3.87,2.87a1.17,1.17,0,0,1-1.62-.13l-4.5-4.49a1.32,1.32,0,0,1-.12-1.63l2.87-3.87a20,20,0,0,1-1-2.37l-4.74-.62a1.34,1.34,0,0,1-1.13-1.25V56.71a1.34,1.34,0,0,1,1.13-1.25l4.74-.62a13.39,13.39,0,0,1,1-2.37l-3-4a1.17,1.17,0,0,1,.13-1.62l4.49-4.5a1.18,1.18,0,0,1,1.63-.12l3.87,2.87a18.43,18.43,0,0,1,2.37-1l.75-4.74a1.32,1.32,0,0,1,1.25-1.13h6.37a1.32,1.32,0,0,1,1.24,1.13l.63,4.74a13.28,13.28,0,0,1,2.37,1l3.87-2.87a1.16,1.16,0,0,1,1.62.12l4.5,4.5a1.17,1.17,0,0,1,.12,1.62l-2.87,3.87a18.43,18.43,0,0,1,1,2.37l4.75.63a1.32,1.32,0,0,1,1.12,1.25Z"/><rect class="cls-3" width="136.89" height="136.89"/></g></g></svg>