<svg xmlns="http://www.w3.org/2000/svg" xmlns:xlink="http://www.w3.org/1999/xlink" viewBox="0 0 136.89 136.89"><defs><style>.cls-1{fill:url(#linear-gradient);}.cls-2{fill:url(#linear-gradient-2);}.cls-3{fill:none;}</style><linearGradient id="linear-gradient" x1="118.63" y1="38.55" x2="50.63" y2="113.21" gradientUnits="userSpaceOnUse"><stop offset="0" stop-color="#74d3aa"/><stop offset="1" stop-color="#058f8f"/></linearGradient><linearGradient id="linear-gradient-2" x1="91.58" y1="13.91" x2="23.58" y2="88.57" xlink:href="#linear-gradient"/></defs><title>sys1</title><g id="Layer_2" data-name="Layer 2"><g id="image"><path class="cls-1" d="M123.24,107.54h-8.68V92.27c4.52-1.22,8.07-7.09,8.07-14,0-7.94-4.4-14.42-9.78-14.42s-9.77,6.48-9.77,14.42c0,7.08,3.42,13,7.94,14v15.27H95.87V42.79a3.55,3.55,0,0,0-3.54-3.55H85.24a16.74,16.74,0,0,0-33.48,0H44.68a3.55,3.55,0,0,0-3.55,3.55v64.75h-15V92.27c4.52-1.22,7.94-7.09,7.94-14,0-7.94-4.4-14.42-9.78-14.42S14.5,70.28,14.5,78.22c0,7.08,3.42,13,8.06,14v15.27H13.77a3.28,3.28,0,0,0-3.3,3.3,3.39,3.39,0,0,0,3.3,3.42H123.11a3.31,3.31,0,0,0,3.3-3.42A3.17,3.17,0,0,0,123.24,107.54ZM64.47,75.78a.84.84,0,0,1,.86-.86h6.35a.83.83,0,0,1,.85.86v6a.83.83,0,0,1-.85.86H65.33a.84.84,0,0,1-.86-.86Zm7.21-9H65.33a.83.83,0,0,1-.86-.85v-6a.83.83,0,0,1,.86-.85h6.35a.83.83,0,0,1,.85.85v6A.83.83,0,0,1,71.68,66.73ZM68.5,27.15A12.1,12.1,0,1,1,56.41,39.24,12.13,12.13,0,0,1,68.5,27.15ZM49.2,59.89a.83.83,0,0,1,.85-.85h6.23a.83.83,0,0,1,.86.85v6a.83.83,0,0,1-.86.85h-6.1a.83.83,0,0,1-.86-.85v-6Zm7.21,22.73H50.18a.84.84,0,0,1-.86-.86v-6a.84.84,0,0,1,.86-.86h6.23a.83.83,0,0,1,.85.86v6A.91.91,0,0,1,56.41,82.62Zm11,22.6a.83.83,0,0,1-.85.85H58.24a.83.83,0,0,1-.86-.85V91.54a.84.84,0,0,1,.86-.86h8.31a.83.83,0,0,1,.85.86Zm12.34,0a.83.83,0,0,1-.85.85H70.58a.83.83,0,0,1-.86-.85V91.54a.84.84,0,0,1,.86-.86h8.31a.83.83,0,0,1,.85.86Zm8.07-23.58a.83.83,0,0,1-.86.85H80.6a.83.83,0,0,1-.86-.85V75.78a.84.84,0,0,1,.86-.86h6.23a.83.83,0,0,1,.85.86v5.86Zm0-15.76a.83.83,0,0,1-.86.85H80.6a.83.83,0,0,1-.86-.85v-6A.83.83,0,0,1,80.6,59h6.23a.83.83,0,0,1,.85.85v6Z"/><path class="cls-2" d="M61.78,41.81h4.16V46a.57.57,0,0,0,.61.61h3.91a.58.58,0,0,0,.61-.61V41.81h4.15a.57.57,0,0,0,.61-.61V37.29a.57.57,0,0,0-.61-.61H71.07V32.52a.58.58,0,0,0-.61-.61H66.55a.58.58,0,0,0-.61.61v4.16H61.78a.58.58,0,0,0-.61.61V41.2A.58.58,0,0,0,61.78,41.81Z"/><rect class="cls-3" width="136.89" height="136.89"/></g></g></svg>