<svg xmlns="http://www.w3.org/2000/svg" xmlns:xlink="http://www.w3.org/1999/xlink" viewBox="0 0 136.89 136.89"><defs><style>.cls-1{fill:url(#linear-gradient);}.cls-2{fill:none;}</style><linearGradient id="linear-gradient" x1="108.1" y1="25.38" x2="45.43" y2="102.71" gradientUnits="userSpaceOnUse"><stop offset="0" stop-color="#74d3aa"/><stop offset="1" stop-color="#058f8f"/></linearGradient></defs><title>sys2</title><g id="Layer_2" data-name="Layer 2"><g id="image"><path class="cls-1" d="M104.32,61.49,106.77,59a1.31,1.31,0,0,1,1.85,0l1.84,1.85a1.3,1.3,0,0,1,0,1.84l-6.9,6.91a2.61,2.61,0,0,1-3.69,0L93,62.73a1.3,1.3,0,0,1,0-1.84L94.81,59a1.3,1.3,0,0,1,1.84,0l2.45,2.45V43H88.66a1.3,1.3,0,0,1-1.3-1.3V39.09a1.31,1.31,0,0,1,1.3-1.31h13a2.61,2.61,0,0,1,2.61,2.61ZM66.26,87.36l2.45,2.45a1.31,1.31,0,0,1,0,1.85L66.87,93.5a1.31,1.31,0,0,1-1.85,0l-6.9-6.9a2.61,2.61,0,0,1,0-3.69L65,76a1.31,1.31,0,0,1,1.85,0l1.84,1.85a1.3,1.3,0,0,1,0,1.84l-2.45,2.45H80.84a1.31,1.31,0,0,1,1.3,1.31v2.61a1.3,1.3,0,0,1-1.3,1.3ZM39.74,112.15a15,15,0,1,1,15-15A15,15,0,0,1,39.74,112.15Zm-3-71.76-2.45-2.45a1.3,1.3,0,0,1,0-1.84l1.85-1.85a1.3,1.3,0,0,1,1.84,0l6.91,6.91a2.61,2.61,0,0,1,0,3.69l-6.91,6.9a1.3,1.3,0,0,1-1.84,0l-1.85-1.84a1.31,1.31,0,0,1,0-1.85l2.45-2.45H30V73a1.31,1.31,0,0,1-1.3,1.31H26A1.31,1.31,0,0,1,24.74,73V43a2.61,2.61,0,0,1,2.61-2.61Zm18-15.65H78.23a2.61,2.61,0,0,1,2.61,2.61V50.83a2.61,2.61,0,0,1-2.61,2.61H54.74a2.61,2.61,0,0,1-2.61-2.61V27.35A2.61,2.61,0,0,1,54.74,24.74ZM97.45,79.53l14.35,24.79a2.61,2.61,0,0,1-2.26,3.92H80.84a2.61,2.61,0,0,1-2.26-3.92L92.93,79.53A2.62,2.62,0,0,1,97.45,79.53Z"/><rect class="cls-2" width="136.89" height="136.89"/></g></g></svg>