<svg xmlns="http://www.w3.org/2000/svg" xmlns:xlink="http://www.w3.org/1999/xlink" viewBox="0 0 136.89 136.89"><defs><style>.cls-1{fill:url(#linear-gradient);}.cls-2{fill:url(#linear-gradient-2);}.cls-3{fill:url(#linear-gradient-3);}.cls-4{fill:url(#linear-gradient-4);}.cls-5{fill:url(#linear-gradient-5);}.cls-6{fill:url(#linear-gradient-6);}.cls-7{fill:url(#linear-gradient-7);}.cls-8{fill:url(#linear-gradient-8);}.cls-9{fill:url(#linear-gradient-9);}.cls-10{fill:none;}</style><linearGradient id="linear-gradient" x1="109.34" y1="20.44" x2="30.67" y2="64.44" gradientUnits="userSpaceOnUse"><stop offset="0" stop-color="#74d3aa"/><stop offset="1" stop-color="#058f8f"/></linearGradient><linearGradient id="linear-gradient-2" x1="134.97" y1="66.27" x2="56.31" y2="110.27" xlink:href="#linear-gradient"/><linearGradient id="linear-gradient-3" x1="115.77" y1="31.94" x2="37.1" y2="75.94" xlink:href="#linear-gradient"/><linearGradient id="linear-gradient-4" x1="120.49" y1="40.38" x2="41.82" y2="84.38" xlink:href="#linear-gradient"/><linearGradient id="linear-gradient-5" x1="113.62" y1="28.09" x2="34.95" y2="72.09" xlink:href="#linear-gradient"/><linearGradient id="linear-gradient-6" x1="123.53" y1="45.81" x2="44.86" y2="89.81" xlink:href="#linear-gradient"/><linearGradient id="linear-gradient-7" x1="117.74" y1="35.45" x2="39.07" y2="79.45" xlink:href="#linear-gradient"/><linearGradient id="linear-gradient-8" x1="119.73" y1="39.02" x2="41.06" y2="83.02" xlink:href="#linear-gradient"/><linearGradient id="linear-gradient-9" x1="112.41" y1="25.94" x2="33.75" y2="69.94" xlink:href="#linear-gradient"/></defs><title>sys3</title><g id="Layer_2" data-name="Layer 2"><g id="image"><path class="cls-1" d="M65.44,58.64V36a45.61,45.61,0,0,0-34.6,20l19.5,11.3A22.58,22.58,0,0,1,65.44,58.64Z"/><path class="cls-2" d="M90.94,80.94a21.18,21.18,0,0,1-1.8,8.7l19.6,11.3a44.9,44.9,0,0,0,0-40l-19.6,11.3A20.84,20.84,0,0,1,90.94,80.94Z"/><path class="cls-3" d="M45.94,80.94a21.18,21.18,0,0,1,1.8-8.7l-19.6-11.3a44.9,44.9,0,0,0,0,40l19.6-11.3A21.18,21.18,0,0,1,45.94,80.94Z"/><path class="cls-4" d="M94.84,35.94c-2.6,8-20.1,46.1-21.7,48.8a5.64,5.64,0,1,1-9.8-5.6C64.94,76.44,89.74,42.34,94.84,35.94Z"/><path class="cls-5" d="M94.84,35.94c-.9,1.1-2.5,3.2-4.4,5.8.6.3,1.2.7,1.7,1C93.44,39.74,94.34,37.34,94.84,35.94Z"/><path class="cls-6" d="M76.84,60.14c-6.6,9.2-12.7,17.7-13.4,19a5.62,5.62,0,0,0,2.1,7.7,6,6,0,0,0,2.8.8,5.78,5.78,0,0,0,4.9-2.8c.7-1.3,5.1-10.6,9.7-20.9A21.52,21.52,0,0,0,76.84,60.14Z"/><path class="cls-7" d="M92.14,42.74c-.6-.4-1.2-.7-1.7-1-3.7,4.9-8.8,11.9-13.6,18.5a21.57,21.57,0,0,1,6,3.7C86.24,56.44,89.74,48.54,92.14,42.74Z"/><path class="cls-8" d="M105.74,56a44.6,44.6,0,0,0-11.9-12.2c-2.5,5.9-6,13.9-9.4,21.4.7.7,1.3,1.4,1.9,2.1Z"/><path class="cls-9" d="M71.44,36v22.6c1,.2,2.5.5,3.8.9,4.8-6.6,10.1-13.7,13.9-18.7A47.1,47.1,0,0,0,71.44,36Z"/><rect class="cls-10" width="136.89" height="136.89"/></g></g></svg>