<svg xmlns="http://www.w3.org/2000/svg" xmlns:xlink="http://www.w3.org/1999/xlink" viewBox="0 0 136.89 136.89"><defs><style>.cls-1{fill:url(#linear-gradient);}.cls-2{fill:url(#linear-gradient-2);}.cls-3{fill:url(#linear-gradient-3);}.cls-4{fill:url(#linear-gradient-4);}.cls-5{fill:url(#linear-gradient-5);}.cls-6{fill:url(#linear-gradient-6);}.cls-7{fill:none;}</style><linearGradient id="linear-gradient" x1="103.22" y1="25.33" x2="44.55" y2="97.33" gradientUnits="userSpaceOnUse"><stop offset="0" stop-color="#74d3aa"/><stop offset="1" stop-color="#058f8f"/></linearGradient><linearGradient id="linear-gradient-2" x1="103.21" y1="25.32" x2="44.55" y2="97.32" xlink:href="#linear-gradient"/><linearGradient id="linear-gradient-3" x1="87.1" y1="12.19" x2="28.43" y2="84.19" xlink:href="#linear-gradient"/><linearGradient id="linear-gradient-4" x1="119.71" y1="38.76" x2="61.04" y2="110.76" xlink:href="#linear-gradient"/><linearGradient id="linear-gradient-5" x1="126.22" y1="44.07" x2="67.55" y2="116.07" xlink:href="#linear-gradient"/><linearGradient id="linear-gradient-6" x1="80.56" y1="6.86" x2="21.89" y2="78.86" xlink:href="#linear-gradient"/></defs><title>sys4</title><g id="Layer_2" data-name="Layer 2"><g id="image"><path class="cls-1" d="M90,63h-3.6a15.67,15.67,0,0,0-1.8-4.2l2.5-2.5a1.57,1.57,0,0,0,0-2.2l-4.7-4.9a1.57,1.57,0,0,0-2.2,0l-2.5,2.5a19.44,19.44,0,0,0-4.2-1.7v-3.6a1.58,1.58,0,0,0-1.6-1.6h-6.8a1.58,1.58,0,0,0-1.6,1.6V50a15.67,15.67,0,0,0-4.2,1.8l-2.5-2.5a1.57,1.57,0,0,0-2.2,0l-4.8,4.8a1.57,1.57,0,0,0,0,2.2l2.5,2.5a19.44,19.44,0,0,0-1.7,4.2H47a1.58,1.58,0,0,0-1.6,1.6v6.8A1.58,1.58,0,0,0,47,73h3.4a15.67,15.67,0,0,0,1.8,4.2l-2.5,2.5a1.57,1.57,0,0,0,0,2.2l4.8,4.8a1.57,1.57,0,0,0,2.2,0l2.5-2.5a19.44,19.44,0,0,0,4.2,1.7v3.6a1.58,1.58,0,0,0,1.6,1.6h6.8a1.58,1.58,0,0,0,1.6-1.6v-3.6a15.67,15.67,0,0,0,4.2-1.8l2.5,2.5a1.57,1.57,0,0,0,2.2,0l4.8-4.8a1.57,1.57,0,0,0,0-2.2l-2.5-2.5a19.44,19.44,0,0,0,1.7-4.2h3.6a1.58,1.58,0,0,0,1.6-1.6v-6.8A1.42,1.42,0,0,0,90,63Zm-21.6,14.9a9.8,9.8,0,1,1,9.8-9.8A9.82,9.82,0,0,1,68.44,77.89Z"/><circle class="cls-2" cx="68.44" cy="67.99" r="5.1"/><path class="cls-3" d="M51.54,37.09a26.17,26.17,0,0,1,11-5.6,1.88,1.88,0,0,0,.8-.2c.3-.1.6-.1.9-.2a26,26,0,0,1,4-.3A27.55,27.55,0,0,1,78.84,33l1.8.8-5.7,1.3a3.6,3.6,0,0,0-1.8,1.2,2.84,2.84,0,0,0,.9,3.8,2.63,2.63,0,0,0,2.1.3l11.7-2.7a3,3,0,0,0,1.7-1.2,3.08,3.08,0,0,0,.4-2.1l-2.7-11.5a2.77,2.77,0,0,0-3.4-2,3,3,0,0,0-1.7,1.2,2.58,2.58,0,0,0-.3,2.1l1.1,4.6-1.3-.5A30.88,30.88,0,0,0,47.94,33a2.46,2.46,0,0,0-.9,1.9,3.23,3.23,0,0,0,.8,2.1A2.75,2.75,0,0,0,51.54,37.09Z"/><path class="cls-4" d="M85.34,99.59a26.17,26.17,0,0,1-11,5.6,1.88,1.88,0,0,0-.8.2c-.3.1-.6.1-.9.2a26.19,26.19,0,0,1-14.6-1.9l-1.8-.8,5.7-1.3a3.6,3.6,0,0,0,1.8-1.2,2.84,2.84,0,0,0-.9-3.8,2.63,2.63,0,0,0-2.1-.3L49,99a2.76,2.76,0,0,0-2.1,3.3l2.7,11.7a2.77,2.77,0,0,0,3.4,2,3,3,0,0,0,1.7-1.2,2.58,2.58,0,0,0,.3-2.1l-1.1-4.6,1.3.5a30.88,30.88,0,0,0,33.7-4.7,2.46,2.46,0,0,0,.9-1.9,3.23,3.23,0,0,0-.8-2.1A2.42,2.42,0,0,0,85.34,99.59Z"/><path class="cls-5" d="M115.84,83.69a3,3,0,0,0-1.2-1.7,2.58,2.58,0,0,0-2.1-.3l-4.6,1.1.5-1.3a30.83,30.83,0,0,0,2.2-20.3,29.68,29.68,0,0,0-6.9-13.4,2.46,2.46,0,0,0-1.9-.9,3.23,3.23,0,0,0-2.1.8,2.69,2.69,0,0,0-.1,3.8,26.17,26.17,0,0,1,5.6,11,1.88,1.88,0,0,0,.2.8c.1.3.1.6.2.9a26.19,26.19,0,0,1-1.9,14.6l-.8,1.8-1.3-5.7a3.6,3.6,0,0,0-1.2-1.8,2.41,2.41,0,0,0-1.5-.4,2,2,0,0,0-.7.1,2.59,2.59,0,0,0-1.7,1.2,2.63,2.63,0,0,0-.3,2.1l2.7,11.7a2.76,2.76,0,0,0,3.3,2.1l11.7-2.7a2.74,2.74,0,0,0,1.7-1.3A3.36,3.36,0,0,0,115.84,83.69Z"/><path class="cls-6" d="M38,48.89a2.76,2.76,0,0,0-3.3-2.1L23,49.49a2.74,2.74,0,0,0-1.7,1.3,2.58,2.58,0,0,0-.3,2.1,3,3,0,0,0,1.2,1.7,2.58,2.58,0,0,0,2.1.3l4.6-1.1-.5,1.3a30.88,30.88,0,0,0,4.7,33.7,2.46,2.46,0,0,0,1.9.9,3.23,3.23,0,0,0,2.1-.8,2.69,2.69,0,0,0,.1-3.8,26.17,26.17,0,0,1-5.6-11,1.88,1.88,0,0,0-.2-.8c-.1-.3-.1-.6-.2-.9a26.19,26.19,0,0,1,1.9-14.6l.8-1.8,1.3,5.7a3.6,3.6,0,0,0,1.2,1.8,2.84,2.84,0,0,0,3.8-.9,2.63,2.63,0,0,0,.3-2.1Z"/><rect class="cls-7" width="136.89" height="136.89"/></g></g></svg>