<svg xmlns="http://www.w3.org/2000/svg" xmlns:xlink="http://www.w3.org/1999/xlink" viewBox="0 0 136.89 136.89"><defs><style>.cls-1{fill-rule:evenodd;fill:url(#linear-gradient);}.cls-2{fill:none;}</style><linearGradient id="linear-gradient" x1="113.78" y1="14.21" x2="37.78" y2="104.88" gradientUnits="userSpaceOnUse"><stop offset="0" stop-color="#74d3aa"/><stop offset="1" stop-color="#058f8f"/></linearGradient></defs><title>sys5</title><g id="Layer_2" data-name="Layer 2"><g id="image"><path class="cls-1" d="M101.92,65c6.53,15.78,13.07,31.56.28,47.4l0,0a48.63,48.63,0,0,1-5.7,5.87l-.19.18,0,0c-.65.56-1.31,1.13-2,1.69a.86.86,0,0,1-.6.23H34.93c-.86,1-1.79,1.92-2.78,2.87-.56.52-1.14,1.06-1.75,1.6H99.49c21.73-17.67,14.67-36.95,7.62-56.23C102,54.8,96.89,40.86,102.23,27.31H96.65C91.4,40.07,97,53.2,101.92,65M84.5,90.13a12.67,12.67,0,0,0-2.16.19,12.41,12.41,0,0,0-1.27.32L85,101.31h0v0h0v0h0v0h0v0h0v0h0l0,0h0v0h0v0h0l0,0v0h0v0h0l0,0h0l0,0h0v0h0v0h0v0h0l0,0h0l0,0h-.76L73.29,98.53A8.06,8.06,0,0,0,73,99.71a11,11,0,0,0-.19,2.09,11.67,11.67,0,0,0,19.92,8.26l.06,0A11.68,11.68,0,0,0,84.5,90.13ZM73,90.48a15.52,15.52,0,0,1,5.68-3.64.87.87,0,0,1,1.13.53L80.44,89c.52-.16,1-.29,1.56-.4a13.92,13.92,0,0,1,2.5-.22,13.44,13.44,0,0,1,9.56,22.9l0,.06a13.45,13.45,0,0,1-19,0l0,0a13.43,13.43,0,0,1-4-9.51,12.94,12.94,0,0,1,.22-2.41,14.49,14.49,0,0,1,.35-1.48l-1.7-.63a.88.88,0,0,1-.52-1.13A15.69,15.69,0,0,1,73,90.48Zm5.47-1.65a14.08,14.08,0,0,0-7.12,7.11l11.29,4.18C81.28,96.35,79.91,92.59,78.51,88.83Zm-41-62.91H32.08v5.45h5.45Zm-6.3-1.7h7.15a.85.85,0,0,1,.85.85v7.15a.85.85,0,0,1-.85.85H31.23a.85.85,0,0,1-.86-.85V25.07A.85.85,0,0,1,31.23,24.22ZM41,27.66A.85.85,0,0,1,41,26h13.4a.85.85,0,1,1,0,1.7Zm0,3.25a.85.85,0,0,1,0-1.7H72.49a.85.85,0,0,1,0,1.7Zm-3.51,6.33H32.08v5.44h5.45Zm-6.3-1.71h7.15a.86.86,0,0,1,.85.86v7.15a.86.86,0,0,1-.85.85H31.23a.86.86,0,0,1-.86-.85V36.39A.85.85,0,0,1,31.23,35.53ZM41,39a.85.85,0,1,1,0-1.7h13.4a.85.85,0,0,1,0,1.7Zm0,3.25a.86.86,0,0,1,0-1.71H72.49a.86.86,0,0,1,0,1.71Zm-3.51,6.31H32.08V54h5.45Zm-6.3-1.7h7.15a.86.86,0,0,1,.85.85v7.16a.86.86,0,0,1-.85.85H31.23a.85.85,0,0,1-.86-.85V47.69A.85.85,0,0,1,31.23,46.84ZM41,50.3a.86.86,0,0,1,0-1.71h13.4a.86.86,0,0,1,0,1.71Zm0,3.24a.85.85,0,1,1,0-1.7H72.49a.85.85,0,1,1,0,1.7Zm13.3,15.74H51.05V79.43h3.29Zm-4.14-1.7h5a.85.85,0,0,1,.84.85V80.27a.85.85,0,0,1-.84.86h-5a.85.85,0,0,1-.85-.86V68.43A.85.85,0,0,1,50.2,67.58Zm12.52-5.95H59.43v17.8h3.29Zm-4.14-1.71h5a.86.86,0,0,1,.86.86V80.27a.86.86,0,0,1-.86.86h-5a.85.85,0,0,1-.86-.86V60.78A.85.85,0,0,1,58.58,59.92ZM71.1,71.38H67.81v8.05H71.1ZM67,69.67h5a.86.86,0,0,1,.84.86v9.74a.86.86,0,0,1-.84.86H67a.85.85,0,0,1-.85-.86V70.53A.85.85,0,0,1,67,69.67Zm12.51-4.42H76.19V79.43h3.28Zm-4.13-1.71h5a.85.85,0,0,1,.85.86V80.27a.85.85,0,0,1-.85.86h-5a.86.86,0,0,1-.86-.86V64.4A.87.87,0,0,1,75.34,63.54Zm12.25,18.7a.85.85,0,1,1,0,1.7H42.94a.85.85,0,1,1,0-1.7Zm18.7-70.31H37.21C15.48,29.56,22.83,47.3,30.19,65c7.41,17.89,14.83,35.77-6,53.76H93.32c.35-.27.68-.55,1-.82s.65-.55,1-.83l.92-.83c.29-.28.59-.55.87-.83s.55-.55.83-.83l.8-.82c.26-.27.51-.55.75-.82h0c.24-.28.49-.56.71-.83s.48-.56.69-.83.43-.56.65-.83h0l.6-.83h0c.19-.28.39-.55.57-.83h0c.17-.28.37-.54.54-.82l.49-.83c.17-.28.33-.55.48-.83,5.38-9.76,3.94-19.69.4-29.89h0c-1.25-3.6-2.75-7.2-4.23-10.8C92.92,47.8,85.51,29.91,106.29,11.93Z"/><rect class="cls-2" width="136.89" height="136.89"/></g></g></svg>