<svg xmlns="http://www.w3.org/2000/svg" xmlns:xlink="http://www.w3.org/1999/xlink" viewBox="0 0 136.89 136.89"><defs><style>.cls-1{fill:url(#linear-gradient);}.cls-2{fill:url(#linear-gradient-2);}.cls-3{fill:url(#linear-gradient-3);}.cls-4{fill:url(#linear-gradient-4);}.cls-5{fill:url(#linear-gradient-5);}.cls-6{fill:none;}</style><linearGradient id="linear-gradient" x1="95.29" y1="5.85" x2="3.29" y2="89.85" gradientUnits="userSpaceOnUse"><stop offset="0" stop-color="#74d3aa"/><stop offset="1" stop-color="#058f8f"/></linearGradient><linearGradient id="linear-gradient-2" x1="118.26" y1="31.01" x2="26.26" y2="115.01" xlink:href="#linear-gradient"/><linearGradient id="linear-gradient-3" x1="135.44" y1="49.82" x2="43.44" y2="133.82" xlink:href="#linear-gradient"/><linearGradient id="linear-gradient-4" x1="137.65" y1="52.25" x2="45.65" y2="136.25" xlink:href="#linear-gradient"/><linearGradient id="linear-gradient-5" x1="116.42" y1="28.99" x2="24.42" y2="112.99" xlink:href="#linear-gradient"/></defs><title>sys6</title><g id="Layer_2" data-name="Layer 2"><g id="image"><path class="cls-1" d="M74,35.11l4.56-1.86-1.66-3.73-4.55,1.86a17.17,17.17,0,0,0-5.8-5.79L68.44,21l-3.72-1.66-1.87,4.56a13.45,13.45,0,0,0-4.14-.62,14.48,14.48,0,0,0-4.14.62l-1.86-4.56L49,21l1.87,4.56a15.5,15.5,0,0,0-5.8,5.79l-4.56-1.86-1.65,3.73,4.55,1.86a14.08,14.08,0,0,0,0,8.28l-4.55,1.87L40.49,49l4.56-1.86a17.3,17.3,0,0,0,5.8,5.8L49,57.47l3.73,1.66,1.86-4.56a13.16,13.16,0,0,0,4.14.62h0a14.14,14.14,0,0,0,4.14-.62l1.87,4.56,3.72-1.66-1.86-4.55a15.6,15.6,0,0,0,5.8-5.8L76.93,49l1.66-3.72L74,43.39A18.37,18.37,0,0,0,74,35.11Zm-4.55,8.7a12.16,12.16,0,0,1-6.42,6.41,11,11,0,0,1-4.55.83h0a11.52,11.52,0,0,1-10.77-7.24,11.14,11.14,0,0,1,0-8.91,12.18,12.18,0,0,1,6.42-6.42,11.15,11.15,0,0,1,4.55-.82A11.5,11.5,0,0,1,69.48,34.9,11.14,11.14,0,0,1,69.48,43.81Z"/><path class="cls-2" d="M97.22,65.55V61.4H94.33a11.19,11.19,0,0,0-1.87-4.55l2.07-2.07-2.9-2.9L89.56,54A9.7,9.7,0,0,0,85,52.09v-2.9H80.87v2.69a11.3,11.3,0,0,0-4.56,1.86l-2.07-2.07-2.9,2.9,2.07,2.07a9.79,9.79,0,0,0-1.86,4.56h-2.9v4.14h2.9a11.26,11.26,0,0,0,1.86,4.55L71.34,72l2.9,2.9,2.07-2.07a9.71,9.71,0,0,0,4.56,1.87v2.89H85V74.66a11.19,11.19,0,0,0,4.55-1.87l2.07,2.07,2.9-2.9-2.07-2.07a9.67,9.67,0,0,0,1.87-4.55h2.89ZM82.73,70.93a7.66,7.66,0,1,1,7.66-7.66A7.51,7.51,0,0,1,82.73,70.93Z"/><rect class="cls-3" x="66.37" y="104.47" width="4.14" height="13.04"/><rect class="cls-4" x="31.18" y="113.37" width="74.54" height="4.14"/><path class="cls-5" d="M76.52,37.18a19.68,19.68,0,0,1,0,5l5,2.07-1,2.69h6.84v3.31c.82.21,1.45.63,2.27.83l2.49-2.48,5.8,5.8-2.49,2.48a7.59,7.59,0,0,1,.83,2.28H99.5v8.28H96.19c-.21.83-.62,1.45-.83,2.28l2.49,2.48L92.05,78l-2.9-2.28a7.33,7.33,0,0,1-2.28.83v3.31H78.59V76.52c-.83-.21-1.45-.62-2.28-.83l-2.48,2.49L68,72.38l2.48-2.49a7.36,7.36,0,0,1-.82-2.27H66.37V60.78l-2.69,1-2.07-5a13.45,13.45,0,0,1-2.9.21,13.54,13.54,0,0,1-2.9-.21l-2.07,5-7.66-3.11,2.07-5a14.27,14.27,0,0,1-3.93-3.93l-5,2.07-3.11-7.66,5-2.07a20.66,20.66,0,0,1,0-5H19.79V108.4H117.1V37.18Zm-34,67.29H38.42V72.79h4.14Zm18.64,0H57.06V63.89H61.2Zm18.63,0H75.69V85h4.14Zm18.64,0H94.33V79.63h4.14Z"/><rect class="cls-6" width="136.89" height="136.89"/></g></g></svg>