<svg xmlns="http://www.w3.org/2000/svg" xmlns:xlink="http://www.w3.org/1999/xlink" viewBox="0 0 517.69 325.58"><defs><style>.cls-1{isolation:isolate;}.cls-2,.cls-7{fill:#a8e5ba;}.cls-2,.cls-6{mix-blend-mode:multiply;}.cls-3{fill:#2b7c47;}.cls-4{fill:url(#linear-gradient);}.cls-5{fill:url(#linear-gradient-2);}.cls-6{opacity:0.4;}.cls-8{fill:#38ba88;}.cls-9{fill:url(#linear-gradient-3);}.cls-10{fill:#e1e8ef;}.cls-11{fill:#3a61d6;}.cls-12{fill:#fff;}.cls-13{fill:#34a862;}.cls-14{fill:#284f38;}.cls-15{fill:url(#linear-gradient-4);}.cls-16{fill:#3d9365;}.cls-17{fill:url(#linear-gradient-5);}.cls-18{fill:url(#linear-gradient-6);}.cls-19{fill:url(#linear-gradient-7);}.cls-20{fill:url(#linear-gradient-8);}.cls-21{fill:url(#linear-gradient-9);}.cls-22{fill:url(#linear-gradient-10);}.cls-23{fill:url(#linear-gradient-11);}.cls-24{fill:url(#linear-gradient-12);}.cls-25{fill:url(#linear-gradient-13);}.cls-26{fill:url(#linear-gradient-14);}.cls-27{fill:url(#linear-gradient-15);}.cls-28{fill:url(#linear-gradient-16);}.cls-29{fill:url(#linear-gradient-17);}.cls-30{fill:url(#linear-gradient-18);}.cls-31{fill:#fcfeff;}.cls-32{fill:#e6e6ed;}.cls-33{fill:#e9e8e6;}.cls-34{fill:#7ced80;}.cls-35{fill:url(#linear-gradient-19);}.cls-36{fill:#e1eaf4;}.cls-37{fill:url(#linear-gradient-20);}.cls-38{fill:url(#linear-gradient-21);}.cls-39{fill:url(#linear-gradient-22);}</style><linearGradient id="linear-gradient" x1="56.05" y1="174.89" x2="447.2" y2="174.89" gradientUnits="userSpaceOnUse"><stop offset="0" stop-color="#a3ffb1"/><stop offset="1" stop-color="#4d8c88"/></linearGradient><linearGradient id="linear-gradient-2" x1="433.75" y1="176.56" x2="-327.14" y2="155.23" gradientUnits="userSpaceOnUse"><stop offset="0" stop-color="#fff"/><stop offset="1" stop-color="#bbdede"/></linearGradient><linearGradient id="linear-gradient-3" x1="334.13" y1="257.61" x2="509.31" y2="257.61" xlink:href="#linear-gradient"/><linearGradient id="linear-gradient-4" x1="153.6" y1="108.02" x2="-182.4" y2="120.02" xlink:href="#linear-gradient-2"/><linearGradient id="linear-gradient-5" x1="149.46" y1="81.28" x2="-20.76" y2="100.39" xlink:href="#linear-gradient"/><linearGradient id="linear-gradient-6" x1="150.97" y1="94.77" x2="-19.25" y2="113.88" xlink:href="#linear-gradient"/><linearGradient id="linear-gradient-7" x1="152.49" y1="108.25" x2="-17.74" y2="127.36" xlink:href="#linear-gradient"/><linearGradient id="linear-gradient-8" x1="150.13" y1="87.26" x2="-20.09" y2="106.37" xlink:href="#linear-gradient"/><linearGradient id="linear-gradient-9" x1="151.64" y1="100.75" x2="-18.58" y2="119.86" xlink:href="#linear-gradient"/><linearGradient id="linear-gradient-10" x1="153.16" y1="114.23" x2="-17.06" y2="133.35" xlink:href="#linear-gradient"/><linearGradient id="linear-gradient-11" x1="150.8" y1="93.24" x2="-19.42" y2="112.35" xlink:href="#linear-gradient"/><linearGradient id="linear-gradient-12" x1="152.32" y1="106.73" x2="-17.91" y2="125.84" xlink:href="#linear-gradient"/><linearGradient id="linear-gradient-13" x1="153.83" y1="120.22" x2="-16.39" y2="139.33" xlink:href="#linear-gradient"/><linearGradient id="linear-gradient-14" x1="151.47" y1="99.22" x2="-18.75" y2="118.34" xlink:href="#linear-gradient"/><linearGradient id="linear-gradient-15" x1="152.99" y1="112.71" x2="-17.23" y2="131.82" xlink:href="#linear-gradient"/><linearGradient id="linear-gradient-16" x1="154.5" y1="126.2" x2="-15.72" y2="145.31" xlink:href="#linear-gradient"/><linearGradient id="linear-gradient-17" x1="152.14" y1="105.21" x2="-18.08" y2="124.32" xlink:href="#linear-gradient"/><linearGradient id="linear-gradient-18" x1="153.66" y1="118.69" x2="-16.56" y2="137.8" xlink:href="#linear-gradient"/><linearGradient id="linear-gradient-19" x1="189.58" y1="72.64" x2="172.69" y2="45.98" xlink:href="#linear-gradient-2"/><linearGradient id="linear-gradient-20" x1="7" y1="257.34" x2="106.51" y2="257.34" gradientUnits="userSpaceOnUse"><stop offset="0" stop-color="#a3ffb1"/><stop offset="0" stop-color="#a2feb1"/><stop offset="0.13" stop-color="#88dba4"/><stop offset="0.26" stop-color="#73be9a"/><stop offset="0.4" stop-color="#62a892"/><stop offset="0.55" stop-color="#56988c"/><stop offset="0.72" stop-color="#4f8f89"/><stop offset="0.96" stop-color="#4d8c88"/></linearGradient><linearGradient id="linear-gradient-21" x1="113.62" y1="273.93" x2="98.29" y2="304.6" xlink:href="#linear-gradient-20"/><linearGradient id="linear-gradient-22" x1="135.81" y1="285.03" x2="120.48" y2="315.69" xlink:href="#linear-gradient-20"/></defs><title>Asset 1</title><g class="cls-1"><g id="Layer_2" data-name="Layer 2"><g id="image"><path class="cls-2" d="M220.76,295.74,69.06,208.15c-5.46-3.15-4.7-8.76,1.68-12.55L279.79,71.72c6.38-3.78,16-4.3,21.43-1.15l151.7,87.59c5.45,3.14,4.7,8.76-1.68,12.54L242.18,294.59C235.8,298.37,226.21,298.88,220.76,295.74Z"/><path class="cls-3" d="M445.58,155.49a9.1,9.1,0,0,0-2-1.58L291.85,66.33c-5.45-3.15-15.05-2.64-21.43,1.14l-209,123.89a17.61,17.61,0,0,0-1.93,1.34l-3.39,1.6.07,5a6.57,6.57,0,0,0,3.57,4.59l151.7,87.58c5.45,3.15,15.05,2.64,21.43-1.14L441.87,166.46c3.31-2,5.1-4.42,5.29-6.77l0-4Z"/><path class="cls-4" d="M211.39,287.48,59.69,199.89c-5.45-3.15-4.7-8.76,1.68-12.55L270.42,63.46c6.39-3.78,16-4.3,21.43-1.15l151.7,87.59c5.45,3.15,4.7,8.76-1.68,12.54l-209,123.89C226.44,290.11,216.84,290.62,211.39,287.48Z"/><polygon class="cls-5" points="220.76 274.09 74.92 189.88 284.5 68.88 430.35 153.09 220.76 274.09"/><path class="cls-2" d="M394.29,121.59l-5-2.88h0c5.88-3.4,5.88-8.9,0-12.29l-27-15.6c-5.88-3.39-15.41-3.39-21.29,0l-3.35-1.93c-6.12-3.53-16-3.53-22.16,0h0c-6.12,3.53-6.12,9.26,0,12.79l56.64,32.7c6.12,3.54,16,3.54,22.16,0h0C400.41,130.85,400.41,125.12,394.29,121.59Z"/><g class="cls-6"><path class="cls-2" d="M494.64,230.61,409.3,215.88l-50.25,39c-22.08,17.57-27.88,39.26-5.13,56.74l.2.08.13.11c30.27,13.13,67.84,9.79,98.28-3L514,282.34a6,6,0,0,0,3-8.31Z"/><path class="cls-7" d="M353.92,311.57l-.22-.08.26.15.17.09.26.15-.14-.12-.19-.08Z"/></g><path class="cls-8" d="M489,229.54l-83.45-14.4-49.14,38.08c-21.6,17.19-27.26,38.4-5,55.49a1.93,1.93,0,0,1,.32.19c29.6,12.84,66.34,9.57,96.11-2.9l56.44-24.15c2.05-.88,3.81-2.26,4.06-4.77l.9-9.4Z"/><path class="cls-9" d="M482.85,220.18l-75.57-13.05a11.05,11.05,0,0,0-8.67,2.16l-45.29,35.1c-21.59,17.18-27.26,38.39-5,55.49.06,0,.11.07.18.09s.09,0,.14.09c29.6,12.84,66.34,9.57,96.11-2.9l62.36-26.82a3.66,3.66,0,0,0,1.81-5l-21.57-41.83A6.24,6.24,0,0,0,482.85,220.18Z"/><path class="cls-10" d="M471.41,228.94l-66.34-10.42L365.69,248.8c-17.31,13.66-22.16,30.4-4.95,43.73l.15.05.1.09c23.08,9.94,52.07,7.14,75.73-2.86l52.46-22.73Z"/><path class="cls-11" d="M360.74,292.53l-.16-.07.2.12.12.07.2.12-.11-.1-.14-.06Z"/><path class="cls-12" d="M463.62,231.93l-99.41,57.39c-15.21-12-10.8-27,4.74-39.27l35.58-27.36Z"/><path class="cls-13" d="M303,127.22c8.62-5,9-12.78.94-17.46-4.56-2.64-10.84-3.73-17-3.29.78-3.55-1.08-7.18-5.63-9.82-8.1-4.69-22.24-4.11-30.86.85a26,26,0,0,0-4.7,3.57h0s.52-.28.48-.24a8.37,8.37,0,0,0-2.08,4.27c-2.82,9.42,2.53,23.91,2.53,23.91,32.13,5.5,45.19,1.93,45.19,1.93l.86-.16C295.41,130.13,300.73,128.51,303,127.22Z"/><path class="cls-2" d="M66.26,161.86,8.81,128.94c-2.69-1.55-2.48-4.21.48-5.93l79.89-46.6c3-1.73,7.55-1.87,10.25-.32L156.88,109c2.7,1.54,2.49,4.2-.47,5.92l-79.9,46.6C73.55,163.27,69,163.41,66.26,161.86Z"/><path class="cls-14" d="M151.85,103.37h-6.33v3.1l-53-30.38c-2.7-1.55-7.29-1.41-10.25.32L6.13,120.81v-2.92H0v8.39H0a3.25,3.25,0,0,0,1.88,2.66l57.45,32.92c2.7,1.55,7.29,1.41,10.25-.32l79.9-46.6c1.63-1,2.42-2.18,2.36-3.36h0Z"/><path class="cls-15" d="M59.34,153.68,1.89,120.75c-2.7-1.55-2.48-4.2.48-5.93L82.26,68.23c3-1.73,7.55-1.88,10.25-.33L150,100.83c2.7,1.55,2.49,4.2-.47,5.93l-79.9,46.6C66.63,155.08,62,155.23,59.34,153.68Z"/><polygon class="cls-16" points="127.5 112.37 72.88 81.06 88.11 72.17 142.73 103.48 127.5 112.37"/><polygon class="cls-12" points="128.87 107.1 81.98 80.22 88.61 76.35 135.5 103.23 128.87 107.1"/><polygon class="cls-17" points="74.79 97.03 59.92 88.51 69.56 82.89 84.43 91.41 74.79 97.03"/><polygon class="cls-18" points="94.72 108.45 79.85 99.93 89.49 94.31 104.36 102.82 94.72 108.45"/><polygon class="cls-19" points="114.64 119.87 99.78 111.35 109.42 105.72 124.28 114.24 114.64 119.87"/><polygon class="cls-20" points="61.93 104.53 47.07 96.01 56.71 90.39 71.57 98.91 61.93 104.53"/><polygon class="cls-21" points="81.86 115.95 67 107.43 76.64 101.81 91.5 110.32 81.86 115.95"/><polygon class="cls-22" points="101.79 127.37 86.92 118.85 96.56 113.22 111.43 121.74 101.79 127.37"/><polygon class="cls-23" points="49.08 112.03 34.21 103.51 43.85 97.89 58.72 106.4 49.08 112.03"/><polygon class="cls-24" points="69 123.45 54.14 114.93 63.78 109.31 78.65 117.82 69 123.45"/><polygon class="cls-25" points="88.93 134.87 74.07 126.35 83.71 120.72 98.58 129.24 88.93 134.87"/><polygon class="cls-26" points="36.22 119.53 21.36 111.01 31 105.39 45.86 113.9 36.22 119.53"/><polygon class="cls-27" points="56.15 130.95 41.28 122.43 50.93 116.81 65.79 125.32 56.15 130.95"/><polygon class="cls-28" points="76.08 142.37 61.21 133.85 70.86 128.22 85.72 136.74 76.08 142.37"/><polygon class="cls-29" points="23.37 127.03 8.5 118.51 18.14 112.89 33.01 121.4 23.37 127.03"/><polygon class="cls-30" points="43.3 138.45 28.43 129.93 38.07 124.31 52.94 132.82 43.3 138.45"/><polygon class="cls-16" points="62.83 151.04 46.28 141.56 57.01 135.29 73.56 144.78 62.83 151.04"/><path class="cls-3" d="M397,271.93c-14.76-7.82-15.37-21.29-1.36-30.08s37.35-9.58,52.11-1.77,15.38,21.29,1.37,30.08S411.81,279.75,397,271.93Z"/><path class="cls-31" d="M401.18,247.4l6.68-4.19a2.16,2.16,0,0,1,2.16-.08l33.5,17.74a2.16,2.16,0,0,1,.13,3.74L437,268.8a2.17,2.17,0,0,1-2.16.08l-33.5-17.74A2.16,2.16,0,0,1,401.18,247.4Z"/><path class="cls-31" d="M435.77,242.26l7.07,3.74a2.17,2.17,0,0,1,.14,3.75l-31.75,19.92a2.17,2.17,0,0,1-2.16.08L402,266a2.17,2.17,0,0,1-.14-3.75l31.75-19.92A2.17,2.17,0,0,1,435.77,242.26Z"/><path class="cls-13" d="M384.45,167.89l-66.78-39.67a3.7,3.7,0,0,1-.11-6.29h0a3.7,3.7,0,0,1,3.9-.07l66.77,39.66a3.7,3.7,0,0,1,.11,6.3h0A3.71,3.71,0,0,1,384.45,167.89Z"/><path class="cls-10" d="M329.5,191.46,262.73,151.8l-.37-.19-53.75-31.93a3.71,3.71,0,0,0-3.79,6.37l66.77,39.66.37.19,53.76,31.93a3.7,3.7,0,0,0,3.78-6.37Z"/><path class="cls-10" d="M307.67,206.94,240.9,167.27c-.12-.07-.24-.12-.37-.18l-53.75-31.93a3.71,3.71,0,0,0-3.79,6.37l66.78,39.66a2.42,2.42,0,0,0,.36.18l53.76,31.93a3.7,3.7,0,0,0,3.78-6.36Z"/><path class="cls-10" d="M285.84,222.41l-66.77-39.66a2.53,2.53,0,0,0-.37-.18L165,150.64a3.7,3.7,0,1,0-3.78,6.36l66.77,39.66a2.58,2.58,0,0,0,.37.19l53.75,31.93a3.7,3.7,0,1,0,3.78-6.37Z"/><path class="cls-13" d="M371.52,179.42l-66.77-39.66a3.71,3.71,0,0,1-.11-6.3h0a3.7,3.7,0,0,1,3.9-.07l66.77,39.66a3.71,3.71,0,0,1,.11,6.3h0A3.7,3.7,0,0,1,371.52,179.42Z"/><path class="cls-13" d="M227.33,252.83l-33-19.62a3.69,3.69,0,0,0-4.82.91h0a3.7,3.7,0,0,0,1,5.45l33.15,19.7a3.7,3.7,0,1,0,3.66-6.44Z"/><path class="cls-13" d="M244.37,242.09l-50.43-30a3.7,3.7,0,0,0-4.8.89h0a3.71,3.71,0,0,0,1,5.48l50.55,30a3.7,3.7,0,1,0,3.66-6.44Z"/><path class="cls-2" d="M314.07,179.61l-.37-11.7a4.87,4.87,0,0,0-5-4.69l-1.65.06a4.83,4.83,0,0,0-4,2.35L198,169.83a8.76,8.76,0,0,0-6.75,3.62l-.21-.08a20.72,20.72,0,0,0-19,1.87l-6,3.87-2.64,1.75a.75.75,0,0,0,.09,1.32l2.81,1.33,7.14,3.13a20.75,20.75,0,0,0,17.72-.5l1.56-.79a8.74,8.74,0,0,0,5.91,2l101.91-4.07a10.37,10.37,0,0,1-3,5.64,10.9,10.9,0,0,1-7.29,3L245,193.35a2.07,2.07,0,1,0,.14,4.14L290.76,196a14.46,14.46,0,0,0,10.42-4.89,14.61,14.61,0,0,0,3.45-7.48,4.84,4.84,0,0,0,3.11,1l1.65,0A4.86,4.86,0,0,0,314.07,179.61Z"/><path class="cls-3" d="M196.7,169.32l-3-1.19a20.75,20.75,0,0,0-19,1.87l-6,3.87-2.65,1.75a.77.77,0,0,0,.1,1.33l2.81,1.33,7.14,3.13a20.75,20.75,0,0,0,17.72-.5l3.38-1.72Z"/><path class="cls-3" d="M312.68,177.67l-111.3,4.44a8.77,8.77,0,0,1-9.11-8.48h0a8.76,8.76,0,0,1,8.41-9l110.56-4.42Z"/><rect class="cls-16" x="300.25" y="163.04" width="21.39" height="11.33" rx="4.84" transform="translate(469.53 -147.52) rotate(88.15)"/><path class="cls-3" d="M245.76,190.25h0a2.06,2.06,0,0,1,2-2.13L293,186.65a10.8,10.8,0,0,0,7.29-3,10.36,10.36,0,0,0,3.14-7.79L303,161.31l4.13-.14.46,14.14a15.12,15.12,0,0,1-3.65,10.58,14.46,14.46,0,0,1-10.42,4.89l-45.6,1.47A2.06,2.06,0,0,1,245.76,190.25Z"/><path class="cls-10" d="M394.29,116.76l-5-2.88h0c5.88-3.39,5.88-8.9,0-12.29l-27-15.6c-5.88-3.39-15.41-3.39-21.29,0l-3.35-1.93c-6.12-3.53-16-3.53-22.16,0h0c-6.12,3.53-6.12,9.26,0,12.79l56.64,32.7c6.12,3.54,16,3.54,22.16,0h0C400.41,126,400.41,120.29,394.29,116.76Z"/><path class="cls-12" d="M378.81,115.63,337.46,91.06a2.29,2.29,0,0,1-.07-3.9h0a2.3,2.3,0,0,1,2.41,0l41.35,24.56a2.29,2.29,0,0,1,.07,3.9h0A2.3,2.3,0,0,1,378.81,115.63Z"/><path class="cls-2" d="M200.68,67.53a12.73,12.73,0,0,1-.08,1.37c.51,5-1.76,10.19-6.82,14-5.72,4.36-13.66,6-21.06,4.93a33.47,33.47,0,0,0,10.7,1.73c14.08,0,25.49-8.37,25.49-18.7,0-5.44-3.17-10.34-8.23-13.76V67.53Z"/><path class="cls-3" d="M193.78,82.94c5.06-3.85,7.33-9,6.82-14-.41,4.12-2.68,8.15-6.82,11.3-9.19,7-24.09,7-33.28,0-4.14-3.15-6.41-7.18-6.82-11.31-.5,5,1.77,10.2,6.82,14a26.45,26.45,0,0,0,12.22,4.93C180.12,88.94,188.06,87.3,193.78,82.94Z"/><path class="cls-13" d="M156.86,40a22.77,22.77,0,0,1-3.25-2.44V42.2c0,2.92,2.3,5.83,6.89,8.06,9.19,4.45,24.09,4.45,33.28,0,4.6-2.23,6.9-5.14,6.9-8.06h0V37.55A24.24,24.24,0,0,1,197.42,40C186.22,47,168.06,47,156.86,40Z"/><path class="cls-13" d="M200.68,62.1h0c0,2.92-2.3,5.83-6.9,8.06A29.75,29.75,0,0,1,188,72.22a2.7,2.7,0,0,1-1.05.8L179,76.4A2.74,2.74,0,0,1,175.4,75l-.46-1.08a2.25,2.25,0,0,1-.14-.44A44.21,44.21,0,0,1,166,72.13l1.92,4.14a2.75,2.75,0,0,1-1.34,3.63l-1.06.49a2.74,2.74,0,0,1-3.63-1.34l-3.62-7.81a2.74,2.74,0,0,1,0-2.34c-3.09-2-4.64-4.41-4.64-6.8v5.43c0,.45,0,.91.07,1.36.41,4.13,2.68,8.16,6.82,11.31,9.19,7,24.09,7,33.28,0,4.14-3.15,6.41-7.18,6.82-11.3a12.73,12.73,0,0,0,.08-1.37h0V56.88h0ZM182.79,81.34l-.3,1.13a2.72,2.72,0,0,1-3.33,2l-8.34-2.18a2.75,2.75,0,0,1-1.95-3.34l.3-1.14a2.75,2.75,0,0,1,3.34-2L180.84,78A2.75,2.75,0,0,1,182.79,81.34ZM195.42,78l-7.9,3.43a2.74,2.74,0,0,1-3.6-1.42l-.46-1.08a2.73,2.73,0,0,1,1.42-3.59l7.9-3.43a2.74,2.74,0,0,1,3.6,1.42l.46,1.08A2.73,2.73,0,0,1,195.42,78Z"/><path class="cls-32" d="M197.42,30.6c-11.2,7-29.36,7-40.56,0a22.77,22.77,0,0,1-3.25-2.44h-5.12a14.22,14.22,0,0,0,5.12,9.38A22.77,22.77,0,0,0,156.86,40c11.2,7,29.36,7,40.56,0a24.24,24.24,0,0,0,3.26-2.43c3.15-2.83,4.86-6.09,5.11-9.39h-5.11A23.46,23.46,0,0,1,197.42,30.6Z"/><path class="cls-33" d="M205.82,16.7h-.07c0,.41.07.82.07,1.22Z"/><path class="cls-33" d="M148.46,16.7v1.22c0-.41,0-.81.07-1.22Z"/><path class="cls-33" d="M200.68,28.16h5.14V17.92C205.82,21.51,204.1,25.1,200.68,28.16Z"/><path class="cls-33" d="M153.61,28.16c-3.43-3.06-5.15-6.65-5.15-10.24V28.16h5.15Z"/><path class="cls-12" d="M153.61,28.16a22.77,22.77,0,0,0,3.25,2.44c11.2,7,29.36,7,40.56,0a23.46,23.46,0,0,0,3.26-2.44c3.42-3.06,5.14-6.65,5.14-10.24,0-.4,0-.81-.07-1.22-.46-4.17-3.23-8.26-8.33-11.45-11.2-7-29.36-7-40.56,0-5.1,3.19-7.87,7.28-8.33,11.45,0,.41-.07.81-.07,1.22C148.46,21.51,150.18,25.1,153.61,28.16Zm8.7-20.73c8.19-5.12,21.47-5.12,29.67,0s8.19,13.42,0,18.54-21.48,5.12-29.67,0S154.12,12.55,162.31,7.43Z"/><ellipse class="cls-32" cx="177.14" cy="16.7" rx="20.98" ry="13.11"/><rect class="cls-34" x="183.11" y="73.3" width="14.08" height="6.64" rx="2.73" transform="translate(-14.79 81.92) rotate(-23.43)"/><rect class="cls-34" x="172.51" y="73.08" width="6.64" height="14.08" rx="2.73" transform="translate(53.67 229.83) rotate(-75.28)"/><path class="cls-34" d="M175.4,75A2.74,2.74,0,0,0,179,76.4L186.91,73a2.7,2.7,0,0,0,1.05-.8,45.73,45.73,0,0,1-13.16,1.22,2.25,2.25,0,0,0,.14.44Z"/><path class="cls-34" d="M158.22,71.24l3.62,7.81a2.74,2.74,0,0,0,3.63,1.34l1.06-.49a2.75,2.75,0,0,0,1.34-3.63L166,72.13a30.69,30.69,0,0,1-5.45-2,21.46,21.46,0,0,1-2.25-1.26A2.74,2.74,0,0,0,158.22,71.24Z"/><path class="cls-35" d="M193.78,50.26c-9.19,4.45-24.09,4.45-33.28,0-4.59-2.23-6.89-5.14-6.89-8.06h0V62.1h0c0,2.39,1.55,4.78,4.64,6.8a21.46,21.46,0,0,0,2.25,1.26s39-.85,40.18-25.61V42.2h0C200.68,45.12,198.38,48,193.78,50.26Z"/><path class="cls-32" d="M200.68,42.2v2.35C200.71,43.79,200.72,43,200.68,42.2Z"/><polygon class="cls-32" points="200.68 42.2 200.68 42.2 200.68 42.2 200.68 42.2"/><path class="cls-32" d="M160.5,70.16a30.69,30.69,0,0,0,5.45,2,44.21,44.21,0,0,0,8.85,1.31A45.73,45.73,0,0,0,188,72.22a29.75,29.75,0,0,0,5.82-2.06c4.6-2.23,6.9-5.14,6.9-8.06h0V44.55C199.52,69.31,160.5,70.16,160.5,70.16Z"/><path class="cls-2" d="M8.36,263.09c-2.07,13,12.07,25.43,34.6,29.14,17,2.81,34.49-.06,46.4-6.65l11,6.37a12.45,12.45,0,0,0-.4,2.27c-.24,2.92.79,4.93,2.58,5.7h0l41.63,24.91c.15.11.11.2.28.29l-.14,0h0a6.35,6.35,0,0,0,5.39-.39c4.61-2.2,8.77-8.1,9.17-13.18.21-2.7-.6-4.62-2.15-5.5h0l-41.9-25h0c-1.38-1.05-3.43-1.13-5.81,0a13.5,13.5,0,0,0-3.15,2.14l-7.59-4.39a23.4,23.4,0,0,0,4-5.58,16.65,16.65,0,0,0,1.65-10.15c2.07-13-12.06-25.42-34.6-29.14-25.47-4.2-52,4.31-59.31,19A16.65,16.65,0,0,0,8.36,263.09ZM81.2,275.6c.85-.45,1.67-.93,2.45-1.44C82.87,274.67,82.05,275.15,81.2,275.6Zm-57.13-6.07a17.77,17.77,0,0,1-1.39-1.84,15.14,15.14,0,0,1-1.51-2.9,15.14,15.14,0,0,0,1.51,2.9A17.77,17.77,0,0,0,24.07,269.53Zm53,8c-1,.38-1.94.73-3,1.06s-1.84.55-2.78.8c.94-.25,1.87-.51,2.78-.8S76.16,277.87,77.11,277.49Zm-14.42,3.39c-1.73.18-3.5.28-5.28.3C59.19,281.16,61,281.06,62.69,280.88Zm-8.86.24a59.28,59.28,0,0,1-7.23-.75,46.93,46.93,0,0,1-15.41-5.16,46.93,46.93,0,0,0,15.41,5.16A59.28,59.28,0,0,0,53.83,281.12Zm-25-7.4a24.82,24.82,0,0,1-2.11-1.6A24.82,24.82,0,0,0,28.82,273.72Z"/><path class="cls-16" d="M41.8,289c25.48,4.21,52-4.31,59.31-19s-7.47-30-32.94-34.24-52,4.31-59.31,19S16.33,284.82,41.8,289Zm3.65-6.81C26.2,279,15.06,267.46,20.56,256.35S46.12,238.8,65.36,242s30.39,14.75,24.89,25.86S64.69,285.39,45.45,282.21Z"/><polygon class="cls-36" points="115.19 297.95 125.55 291.97 89.96 271.43 79.61 277.4 115.19 297.95"/><path class="cls-37" d="M41.8,284c25.48,4.21,52-4.31,59.31-19s-7.47-30-32.94-34.24-52,4.31-59.31,19S16.33,279.77,41.8,284Zm3.65-6.81C26.2,274,15.06,262.41,20.56,251.3s25.56-17.55,44.8-14.37,30.39,14.75,24.89,25.86S64.69,280.34,45.45,277.16Z"/><path class="cls-38" d="M98.25,292c-.41,5.08,3,7.42,7.61,5.23A17.66,17.66,0,0,0,114.92,284c.41-5.08-3-7.43-7.61-5.23A17.66,17.66,0,0,0,98.25,292Z"/><polygon class="cls-39" points="155.06 303.83 113.14 278.8 100.83 297.68 143 322.91 155.06 303.83"/><ellipse class="cls-16" cx="148.92" cy="313.31" rx="11.31" ry="6.53" transform="translate(-193.59 258.34) rotate(-55.46)"/><path class="cls-12" d="M44.87,256.57l26.36,2.58a2.47,2.47,0,0,0,2.69-2.21h0a2.47,2.47,0,0,0-2.21-2.69l-26.36-2.58a2.45,2.45,0,0,0-2.69,2.21h0A2.47,2.47,0,0,0,44.87,256.57Z"/><path class="cls-12" d="M46.24,249.05l26.36,2.58c1.35.13,2.42-.41,2.39-1.2h0c0-.8-1.15-1.55-2.5-1.68l-26.36-2.59c-1.35-.13-2.42.41-2.39,1.21h0C43.77,248.16,44.89,248.92,46.24,249.05Z"/></g></g></g></svg>