<svg width="1581" height="793" viewBox="0 0 1581 793" fill="none" xmlns="http://www.w3.org/2000/svg">
<mask id="mask0" mask-type="alpha" maskUnits="userSpaceOnUse" x="0" y="0" width="1581" height="793">
<rect width="1581" height="793" fill="url(#paint0_linear)"/>
</mask>
<g mask="url(#mask0)">
<path opacity="0.15" fill-rule="evenodd" clip-rule="evenodd" d="M475.053 215.869L823.22 7.11566C840.563 -3.29854 870.859 -2.13832 890.522 9.65707L1230.24 213.355C1249.9 225.151 1251.81 243.3 1234.46 253.714L886.297 462.467C868.953 472.882 838.658 471.721 818.994 459.926L479.278 256.228C459.587 244.432 457.682 226.283 475.053 215.869Z" fill="#65DB94"/>
<path opacity="0.15" fill-rule="evenodd" clip-rule="evenodd" d="M893.174 489.981L1241.34 281.227C1258.68 270.813 1288.98 271.973 1308.64 283.769L1581.31 447.247V570.587L1304.45 736.606C1287.1 747.021 1256.81 745.86 1237.14 734.065L897.427 530.367C877.709 518.544 875.803 500.367 893.174 489.981Z" fill="#65DB94"/>
<path opacity="0.15" fill-rule="evenodd" clip-rule="evenodd" d="M136 442.55L405.072 281.227C422.415 270.813 452.711 271.973 472.374 283.769L812.091 487.467C831.754 499.262 833.659 517.411 816.316 527.825L468.149 736.579C450.806 746.993 420.51 745.833 400.847 734.037L136 575.228V442.55Z" fill="url(#paint1_linear)"/>
<path opacity="0.15" fill-rule="evenodd" clip-rule="evenodd" d="M1315.58 767.158L1581.31 607.824V767.545C1581.31 781.44 1570.04 792.71 1556.15 792.71H1305.44C1301.3 783.484 1304.56 773.761 1315.58 767.158Z" fill="url(#paint2_linear)"/>
<path opacity="0.15" fill-rule="evenodd" clip-rule="evenodd" d="M475.053 772.352L823.22 563.598C840.563 553.184 870.859 554.344 890.522 566.14L1230.24 769.838C1241.06 776.329 1246.5 784.727 1246.31 792.738H463.343C462.266 785.169 466.077 777.711 475.053 772.352Z" fill="url(#paint3_linear)"/>
</g>
<defs>
<linearGradient id="paint0_linear" x1="1468" y1="483" x2="1553.5" y2="793" gradientUnits="userSpaceOnUse">
<stop stop-color="white"/>
<stop offset="1" stop-color="#C4C4C4" stop-opacity="0"/>
</linearGradient>
<linearGradient id="paint1_linear" x1="792" y1="417.5" x2="202.98" y2="660.164" gradientUnits="userSpaceOnUse">
<stop stop-color="#65DB94"/>
<stop offset="1" stop-color="#65DB94" stop-opacity="0"/>
</linearGradient>
<linearGradient id="paint2_linear" x1="1460" y1="556.5" x2="1460.45" y2="792.999" gradientUnits="userSpaceOnUse">
<stop stop-color="#65DB94"/>
<stop offset="0.479167" stop-color="#65DB94" stop-opacity="0.785352"/>
<stop offset="0.9999" stop-color="#65DB94" stop-opacity="0.552083"/>
<stop offset="1" stop-color="#65DB94" stop-opacity="0"/>
</linearGradient>
<linearGradient id="paint3_linear" x1="854.741" y1="556.482" x2="855" y2="793" gradientUnits="userSpaceOnUse">
<stop stop-color="#65DB94"/>
<stop offset="1" stop-color="#65DB94" stop-opacity="0"/>
</linearGradient>
</defs>
</svg>
